<svg xmlns="http://www.w3.org/2000/svg" width="256" height="256" fill="none" viewBox="0 0 256 256">
  <rect width="256" height="256" fill="url(#paint0_linear_3399_7237)" rx="128"/>
  <path fill="url(#paint1_linear_3399_7237)" d="M124.928 210h6.144v-23.992a61.578 61.578 0 0 1-6.189-2.691V210h.045Zm-4.305-29.105-5.606 28.163-6.054-1.211 6.099-30.764c1.794 1.346 3.633 2.691 5.561 3.812Zm-8.566-6.278-12.556 30.315-5.74-2.332 13.498-32.647c1.525 1.659 3.139 3.184 4.798 4.664Zm-6.861-6.951-20.18 30.226-5.158-3.409 21.436-32.109c1.211 1.839 2.557 3.588 3.947 5.292h-.045Zm-5.202-7.31L72.19 188.16l-4.35-4.35 29.06-29.105a49.174 49.174 0 0 0 3.139 5.651h-.045Zm-3.857-7.355-34.62 23.141-3.409-5.158 35.742-23.902a76.95 76.95 0 0 0 2.242 5.919h.045Zm-2.69-7.309-40.003 16.592-2.377-5.74 40.9-16.951c.358 2.062.897 4.08 1.48 6.099Zm-1.705-7.31-43.59 8.655-1.21-6.054 44.083-8.79c.134 2.108.359 4.171.717 6.189Zm-.807-7.265H46v-6.189h44.935a62.687 62.687 0 0 0 0 6.189Zm.09-7.31-44.038-8.745 1.166-6.099 43.59 8.7a54.728 54.728 0 0 0-.718 6.144Zm.942-7.4-40.9-16.906 2.333-5.74 40.047 16.592a61.438 61.438 0 0 0-1.48 6.054Zm1.883-7.489L58.108 85.016l3.409-5.158L96.136 103c-.897 1.928-1.614 3.901-2.242 5.919h-.045Zm3.05-7.624L67.84 72.19l4.35-4.35 27.804 27.804c-1.121 1.794-2.153 3.722-3.094 5.65Zm4.394-7.668L79.858 61.56l5.158-3.453 20.18 30.271a60.876 60.876 0 0 0-3.902 5.247Zm5.965-7.579L93.76 53.444l5.696-2.377 12.557 30.316c-1.66 1.48-3.229 3.05-4.754 4.664Zm7.803-7.13-6.099-30.72 6.054-1.21 5.606 28.118c-1.928 1.166-3.767 2.466-5.561 3.812Zm9.866-6.19V46h6.144v24.037a53.853 53.853 0 0 0-6.189 2.69h.045Zm11.794-4.529 4.216-21.211 6.099 1.21-3.722 18.656c-2.243.314-4.44.807-6.593 1.346Zm13.544-2.017 6.278-15.113 5.695 2.376-5.336 12.826a62.772 62.772 0 0 0-6.637-.09Zm14.575 1.12 6.143-9.193 5.158 3.453-4.933 7.355a61.549 61.549 0 0 0-6.368-1.614Zm14.619 4.844 4.35-4.305 4.35 4.35-3.049 3.05c-1.794-1.122-3.722-2.153-5.651-3.095Zm13.454 8.745 1.525-1.032 3.453 5.158-.359.269a62.537 62.537 0 0 0-4.619-4.395Zm4.619 89.87.359.224-3.453 5.158-1.525-1.032c1.614-1.345 3.139-2.825 4.619-4.35Zm-12.422 10.001 3.049 3.049-4.35 4.35-4.35-4.305a61.758 61.758 0 0 0 5.651-3.094Zm-13.902 6.323 4.933 7.399-5.158 3.409-6.143-9.194c2.15-.421 4.276-.96 6.368-1.614Zm-14.306 2.691 5.336 12.825-5.74 2.332-6.278-15.068c2.242.091 4.488.061 6.727-.089h-.045Zm-13.588-.583 3.722 18.655-6.099 1.211-4.216-21.257a62.972 62.972 0 0 0 6.593 1.346v.045Z"/>
  <path fill="url(#paint2_linear_3399_7237)" d="m129.547 70.62-3.094 1.346V90.89a37.682 37.682 0 0 1 3.139 0V70.665l-.045-.045Zm-10.314 5.337 3.004 15.337c-1.031.18-2.063.359-3.049.628l-2.781-14.037a30.17 30.17 0 0 1 2.781-1.883l.045-.045Zm-8.431 6.547 4.439 10.629c-.972.35-1.929.739-2.87 1.166l-3.946-9.463c.807-.807 1.569-1.614 2.377-2.332Zm-6.593 7.086 4.485 6.727a19.947 19.947 0 0 0-2.601 1.704l-3.857-5.785 1.973-2.646Zm-5.022 7.4c-.538.896-1.032 1.883-1.525 2.825l3.004 3.049 2.198-2.197-3.677-3.677Zm-3.678 7.444 2.512 1.659a37.178 37.178 0 0 0-1.704 2.556l-1.929-1.255 1.121-2.96Zm-2.511 7.399-.718 3.05.852.359c.347-.974.736-1.931 1.166-2.871l-1.3-.538Zm-1.48 7.355.404.045a36.986 36.986 0 0 0-.628 3.049h-.18c.135-1.076.225-2.107.404-3.139v.045Zm-.628 7.265a63.322 63.322 0 0 0 0 3.094 37.645 37.645 0 0 1 0-3.094Zm.224 7.31h.18c.18.986.359 2.018.628 3.004l-.449.09-.359-3.139v.045Zm1.166 7.354.718 3.05 1.345-.538a36.834 36.834 0 0 1-1.21-2.87l-.897.358h.044Zm2.108 7.49 1.884-1.256c.538.897 1.12 1.704 1.749 2.556l-2.512 1.659a61.57 61.57 0 0 1-1.12-2.959Zm3.274 7.579c.448.941.986 1.883 1.525 2.825l3.677-3.678a37.031 37.031 0 0 1-2.198-2.197l-3.004 3.05Zm4.574 7.578 3.857-5.785a32.833 32.833 0 0 0 2.601 1.749l-4.485 6.682a61.353 61.353 0 0 1-1.973-2.646Zm6.189 7.445 2.421 2.332 4.395-10.673a37.545 37.545 0 0 1-2.87-1.166l-3.946 9.507Zm8.027 6.906 2.781-14.037c1.031.269 2.018.449 3.049.628l-3.049 15.337a61.16 61.16 0 0 1-2.781-1.928Zm10.001 5.92 3.139 1.345v-20.27a38.207 38.207 0 0 1-3.139 0v18.925Zm11.929 4.17-4.664-23.499 3.049-.583 4.933 24.8a61.605 61.605 0 0 1-3.318-.718Zm13.588 1.704a69.29 69.29 0 0 0 3.318-.089l-11.66-28.118c-.939.428-1.897.817-2.87 1.166l11.212 27.041Zm14.485-1.524-19.104-28.702a36.96 36.96 0 0 0 2.556-1.704l19.732 29.598-3.139.808h-.045Zm14.485-5.247 2.825-1.57-28.432-28.432a37.014 37.014 0 0 1-2.197 2.197l27.804 27.805Zm13.184-9.104-36.145-24.127 1.749-2.556 36.684 24.53a65.49 65.49 0 0 1-2.288 2.153Zm-32.423-30.405 41.482 17.176 1.166-2.871-41.482-17.175c-.359.986-.717 1.928-1.166 2.87Zm46.415 1.928-43.993-8.79c.224-.986.448-2.018.583-3.049l44.038 8.79-.628 3.004v.045Zm-43.007-16.01H210v-3.094h-44.891a37.12 37.12 0 0 1 0 3.094Zm43.635-16.01-44.038 8.701a37.097 37.097 0 0 0-.583-3.05l43.993-8.745.628 3.05v.044Zm-45.877 1.705 41.482-17.176-1.166-2.87-41.482 17.175c.449.897.807 1.884 1.166 2.871Zm33.545-31.123-36.684 24.575a37.263 37.263 0 0 0-1.749-2.601l36.145-24.127c.763.718 1.57 1.435 2.288 2.198v-.045ZM180.94 72.907l-27.804 27.805a32.93 32.93 0 0 1 2.197 2.152l28.432-28.432a62.239 62.239 0 0 0-2.825-1.57v.046Zm-11.301-4.484L149.907 98.02a37.467 37.467 0 0 0-2.556-1.749l19.104-28.656c1.068.243 2.129.512 3.184.807Zm-8.835-15.606-2.87-1.166 2.87 1.21v-.044Zm-5.516 13.364-11.66 28.118a36.664 36.664 0 0 0-2.87-1.166l11.212-26.997c1.106-.03 2.212-.03 3.318 0v.045Zm-13.588.897-4.933 24.844a36.822 36.822 0 0 0-3.049-.628l4.664-23.499 3.318-.717Zm3.857-19.194-3.05-.628 3.005.628h.045Z"/>
  <defs>
    <linearGradient id="paint0_linear_3399_7237" x1="121.218" x2="121.218" y1="235.5" y2="-.658" gradientUnits="userSpaceOnUse">
      <stop stop-color="#1D1C26"/>
      <stop offset="1" stop-color="#373956"/>
    </linearGradient>
    <linearGradient id="paint1_linear_3399_7237" x1="121.923" x2="121.923" y1="210" y2="46" gradientUnits="userSpaceOnUse">
      <stop stop-color="#00CADD"/>
      <stop offset="1" stop-color="#016DFC"/>
    </linearGradient>
    <linearGradient id="paint2_linear_3399_7237" x1="163.047" x2="92.28" y1="117.484" y2="117.484" gradientUnits="userSpaceOnUse">
      <stop stop-color="#02E9C6"/>
      <stop offset="1" stop-color="#02E9C6" stop-opacity="0"/>
    </linearGradient>
  </defs>
</svg>
