<svg width="128" height="128" viewBox="0 0 64 64" xml:space="preserve" xmlns="http://www.w3.org/2000/svg"><defs><linearGradient id="a"><stop offset="0" stop-color="#12afa4"/><stop offset=".25" stop-color="#12a5a8"/><stop offset=".5" stop-color="#208cb6"/><stop offset="1" stop-color="#3367cc"/></linearGradient></defs><path d="M1.78 61.58c-1.42-.24-1.67-.8-1.75-3.93l-.06-2.38 24.83-.02c13.66-.02 24.86-.06 24.9-.1.03-.03-1.2-2.15-2.73-4.7-3.96-6.6-10.7-18.15-10.7-18.36 0-.1 2.12-3.79 2.93-5.1.65-1.05-1.43-4.44 13.1 21.47l7.19 12.82.22.39-28.78-.01c-15.83 0-28.95-.04-29.15-.08Zm54.09-14.45C43.63 25.37 39.85 18.7 39.77 18.7c-.1 0-4.1 6.88-10.7 18.4l-3.33 5.82h-3.4c-4.08 0-3.85.53-1.57-3.56C36.48 11.26 39.37 6.18 39.5 6.32c.09.1 4.15 7.56 10.49 19.28a1753.75 1753.75 0 0 1 13.1 24.41l.8 1.56.05 2.42c.03 1.33.02 3.53-.01 4.89l-.07 2.47zM2.29 51.45c0-.17 12.94-22.47 22.46-38.7 6.1-10.38 5.78-9.87 6.38-10.2.33-.2 3.51-.34 5.13-.25l1.02.05-1.05 1.89c-3.02 5.4-17.08 30.83-21.41 38.71a44.92 44.92 0 0 0-1.8 3.43c.1.1 2.04.11 15.5.19l11.84.06 1.44 2.4c.8 1.33 1.45 2.43 1.45 2.45 0 .02-9.22.04-20.48.04-11.27 0-20.48-.03-20.48-.07z" fill="#273687"/></svg>