<svg id="Layer_2" version="1.1" width="128" height="128" xml:space="preserve" xmlns:xlink="http://www.w3.org/1999/xlink" xmlns="http://www.w3.org/2000/svg"><defs id="defs1"><linearGradient id="linearGradient1"><stop offset="0" id="stop1" stop-color="#58f99c" stop-opacity="1"/><stop offset=".5" id="stop3" stop-color="#35dcf1" stop-opacity="1"/><stop offset="1" id="stop2" stop-color="#2c99fd" stop-opacity="1"/></linearGradient><linearGradient xlink:href="#linearGradient1" id="linearGradient2" x1="165.8" y1="33.4" x2="205.4" y2="102.3" gradientUnits="userSpaceOnUse" gradientTransform="translate(-120)"/><style id="style1">.cls-1,.cls-2{fill:#fff}.cls-3{fill:#fd4f4f}.cls-4{fill:#222}.cls-5{fill:#39f}.cls-6{fill:#23e843}.cls-2,.cls-6{fill-rule:evenodd}</style></defs><circle id="path3" cx="64" cy="64" r="64" fill="#000" fill-opacity="1"/><path d="M73 103.9c9.2-.2 10-.3 12.4-1.6 5-2.8 6.7-6.6 6.9-15.3.3-13.3-2.8-19.2-11.4-21.7l-2.1-.6c-.2 0 .7-.3 2-.5 7-1.5 9-4.3 9-13 0-13.2-5.5-19.6-17.2-20-2-.2-2.2-.2-2.2-.5l-.8-5.4c-.8-6-1.1-6.8-2.7-6.6-1.2.2-1.6.7-4.9 6l-3.2 5v-5l-.3-5.3c-.5-1-1.4-1.4-2.5-.8-.6.3-1.2 1.1-5.2 7.2l-5 7.6c-2 2.7-3.5 5.3-4.7 7.7-9.9 19.6-6 54 7 62.2 1.6 1 2.2 1 24.8.6zm-10.9-8c-8.8-1.8-13-11.2-8.2-18.5 6.4-9.7 21.7-5.1 21.7 6.5 0 7.2-6.8 13.2-13.5 12zm.1-34.5A11.8 11.8 0 0 1 54 44.7l.8-1.3c.2-.1 7.7 2 8.2 2.2l-.4.7c-3 3.4-1 8.6 3.5 8.8 3.6.2 6.4-3 5.5-6.4l-.2-.6 1.3.4 2.6.7 1.2.4v1.1a11.9 11.9 0 0 1-14.2 10.7zm-8.5-29.8c0-2.4 0-2.5-1.8-2.3h-1.2l.4-.5a202.4 202.4 0 0 0 4-5.5V25c-.2 2.6.1 3 2.1 2.7h.9l-2 2.8-2.3 3v-1.9zm10.9-.4c0-2.4 0-2.4-1.6-2.4-1.5 0-1.6.4 1-3.1 2.4-3.4 2.2-3.2 2-2.1-.5 3 0 4 2.1 3.6h.9l-.4.5a284 284 0 0 0-4 5.4v-2z" id="path1" fill="url(#linearGradient2)"/></svg>