<svg width="958" height="958" viewBox="0 0 479 479" xml:space="preserve" xmlns="http://www.w3.org/2000/svg"><circle cx="239.5" cy="239.5" r="239.5"/><path d="M140.16 152.17c-2-.04-3.9-.02-5.26.07l-4.84.34c-21.49 19.32-34.68 39.37-34.8 68.92-.03 24.86 12.63 74.42 75.74 83.68 31.86 4.68 68.37-21.6 64.5-23-3.41-2.8-6.37-6.14-9.41-9.32l-5.67.28c-3.12.15-7.02.64-8.67 1.09-1.65.44-4.4 1.46-6.12 2.26a36 36 0 0 0-5 2.84l-1.88 1.38 1.18-1.32c.65-.73 2.8-2.11 4.75-3.07 1.97-.97 4.92-2.11 6.57-2.56 1.65-.44 5.61-.94 8.81-1.1l5.81-.3-1.18-1.75a8.79 8.79 0 0 1-1.19-2.14c0-.21-2.08-.88-4.63-1.49a40.05 40.05 0 0 0-9.87-1.09c-3.9.01-6.08.28-8.48 1.04-1.77.57-3.3.96-3.39.87-.09-.1.46-.41 1.23-.7.76-.3 2.4-.82 3.64-1.15 1.24-.33 4.61-.58 7.5-.55 3.44.02 6.63.38 9.25 1.03 2.2.54 4.02.95 4.05.9.04-.04.2-1.01.38-2.15.29-1.92.2-2.16-1.36-3.34-.92-.7-3.11-2.06-4.87-3.02a36.04 36.04 0 0 0-5.97-2.54 53.14 53.14 0 0 0-5.75-1.22c-2.24-.33-2.53-.45-1.19-.5 1-.03 3.5.37 5.58.9 2.07.54 5.1 1.65 6.7 2.48 1.61.83 3.93 2.18 5.15 3l2.22 1.51 1.68-1.96a8.02 8.02 0 0 1 3.53-2.47c1.02-.28 5.56-.51 10.1-.5 6.95 0 8.57.15 10.29.93 1.12.5 2.59 1.62 3.26 2.48l1.21 1.55 2.25-1.52c1.23-.83 3.36-2.1 4.73-2.8 1.37-.71 3.7-1.7 5.18-2.22a28.4 28.4 0 0 1 6-1.15c1.84-.13 2.77-.13 2.08 0l-4.25.76c-1.65.3-4.47 1.15-6.26 1.9-1.8.74-4.66 2.3-6.37 3.47-3.04 2.06-3.12 2.17-3.12 4.35 0 1.23.1 2.23.21 2.23.12 0 2.2-.48 4.63-1.07a37.96 37.96 0 0 1 9.66-1.05c3.95.02 6.1.3 8.67 1.1 1.89.6 3.33 1.19 3.2 1.31-.12.12-1.2-.13-2.42-.56a34.87 34.87 0 0 0-5.78-1.24 35.2 35.2 0 0 0-7.82.03 49.1 49.1 0 0 0-7.42 1.47c-2.76.86-3.32 1.24-4.22 2.93l-1.05 1.94 5.8.3c3.18.16 7.08.65 8.65 1.08a47.9 47.9 0 0 1 5.14 1.76c1.24.53 3.39 1.7 4.76 2.6 1.37.9 2.49 1.79 2.49 1.98 0 .19-1.3-.52-2.88-1.58a35.44 35.44 0 0 0-5.44-2.93 46.17 46.17 0 0 0-6.68-1.79 54.92 54.92 0 0 0-8.46-.78h-4.34c-2.34 2.7-4.46 5.64-7.12 8.04-2.93 2.3 22.61 24.51 56.9 24.45 40.64-.07 83.2-31.96 83.26-83.49 0-7.43-.21-10.94-.92-14.75-5.79-31.1-26.32-46.9-27.6-49.35a6.25 6.25 0 0 1-.72-2.3c0-.93-.5-.96-14.38-.87-19.95-.31-40.35 3.57-56.75 15.56-11.12 8.34-33.65 33.6-42.31 68-.83 3.27-1.85 8.1-2.27 10.71a156.8 156.8 0 0 0-.92 6.25c-.08.82-.44-.75-.8-3.5a179 179 0 0 0-1.9-10.98c-4.47-21.37-14.1-43.26-32.55-61.96-12.36-12.51-32.54-26-62.46-26.64zm154.33 36.71c14.6 0 16.23 29.98.94 32.31-3.59.55-13.06-2.78-12.31-17.39.66-12.92 8.9-14.92 11.37-14.92zm-109.95.04c14.45.12 15.61 29.93.96 32.29a8.5 8.5 0 0 1-3.62-.4c-14.33-5.25-10.7-31.99 2.66-31.89z" fill="#e9c89c"/><path d="M254.42 373.73a13.66 13.66 0 0 0 4.3-2.27c.95-.83 2.1-2.5 2.56-3.73a8 8 0 0 0 .51-4.35 12.03 12.03 0 0 0-1.54-3.96c-.82-1.25-2.21-2.32-4.35-3.35-1.73-.83-3.98-1.85-4.99-2.25a6.67 6.67 0 0 1-2.68-2.03c-.78-1.2-.79-1.38-.03-2.53a4.15 4.15 0 0 1 2.08-1.56c.7-.18 2.44-.19 3.87-.02l3.79.43c1 .12 1.28-.2 1.87-2.11.37-1.24.59-2.5.47-2.82-.11-.3-1.37-.84-2.8-1.18a24.8 24.8 0 0 0-6.16-.4c-2.23.15-4.32.63-5.57 1.27-1.1.57-2.5 1.56-3.1 2.2a9.5 9.5 0 0 0-1.62 2.59c-.29.77-.53 2.46-.53 3.76a6.8 6.8 0 0 0 1.23 4.16c.68 1 1.98 2.27 2.88 2.83.9.55 3.16 1.61 5.03 2.36 1.86.74 3.72 1.82 4.12 2.4.4.58.74 1.53.74 2.11 0 .59-.45 1.47-1 1.97s-2.07 1-3.42 1.13c-1.47.14-3.57-.1-5.27-.6-1.57-.45-3.03-.7-3.27-.56-.23.15-.68 1.31-1 2.6-.4 1.54-.42 2.5-.1 2.82.28.28 1.58.79 2.9 1.15 1.33.35 3.78.66 5.44.68 1.67.01 4.2-.32 5.64-.74zm-138.68-.86c.15-.61.32-3.6.39-6.62l.12-5.5h11l.25 6.5.25 6.5h7v-31.5h-7l-.14 5.88-.14 5.87H116v-5.38c-.01-2.95-.2-5.66-.43-6.02-.29-.45-1.4-.6-3.62-.5l-3.2.15-.13 15.24c-.08 8.39-.03 15.53.1 15.88.17.42 1.35.63 3.5.63 2.97 0 3.28-.1 3.52-1.13zm40.13.5c.27-.34.9-2.14 1.38-4l.9-3.37h9.32l1.18 3.88 1.17 3.87 3.53.15c2.54.1 3.6-.04 3.76-.5.13-.36-1.85-7.33-4.4-15.5a453.67 453.67 0 0 0-4.94-15.37c-.2-.3-2.2-.53-4.81-.53-4.17 0-4.52.08-4.97 1.13-.28.61-2.4 7.4-4.74 15.06-2.34 7.67-4.25 14.36-4.25 14.88 0 .81.4.93 3.19.93 1.96 0 3.38-.24 3.68-.63zm4.23-13.5c-.38-.45-.16-2 .74-5.38.7-2.6 1.42-5.15 1.6-5.66.23-.6.89 1.05 1.98 4.95 1.33 4.7 1.52 5.95 1 6.29-.37.23-1.6.42-2.73.42-1.14 0-2.3-.27-2.6-.62zm37.5 9.38c.18-2.48.49-8.1.68-12.5l.35-8 1.16 5.15a260.11 260.11 0 0 0 4.26 16.25l1 3.4 2.83-.15 2.83-.15 1.16-3.75 3.63-11.75c1.35-4.4 2.48-7.89 2.5-7.75.02.14.24 5.38.5 11.64.25 6.27.6 11.61.76 11.88.16.26 1.62.48 3.24.48s3.08-.22 3.25-.5c.17-.27-.06-7.19-.5-15.37s-.9-15.17-1.02-15.52c-.16-.48-1.4-.61-4.8-.5l-4.6.14-1.58 4.75c-.87 2.61-2.34 7.5-3.25 10.84l-1.66 6.1-1.86-7.35a303.46 303.46 0 0 0-2.97-10.98l-1.12-3.64-4.82.14-4.82.14-1.02 15.25c-.56 8.39-.93 15.54-.82 15.9.15.46 1.1.6 3.28.5l3.06-.15Zm92 4.63c.06-.07.23-5.87.38-12.88l.27-12.75 4-.25 4-.25v-5.5l-12.13-.13-12.12-.14v5.98l4.13.14 4.12.15.13 12.25c.07 6.74.23 12.53.36 12.88.15.4 1.34.62 3.5.62 1.79 0 3.3-.06 3.36-.13zm42.6-.67c.16-.44.3-1.5.3-2.38-.01-.87-.19-1.85-.4-2.19-.26-.41-2.4-.65-6.62-.75l-6.23-.14v-7l5.75-.25 5.75-.25v-5.5l-5.75-.25-5.75-.25v-6l6-.25 6-.25.15-2.88.15-2.87H312v15.67c0 8.61.15 15.81.33 16 .19.18 4.66.33 9.95.33 8.3 0 9.65-.1 9.92-.8zm21.8-5.46.25-6 2-.15c1.48-.1 2.3.13 3.11.88.6.56 1.33 1.87 1.61 2.9l1.42 5.12.91 3.25 3.17.15c1.75.08 3.38-.05 3.63-.3.28-.28.04-2.1-.6-4.57-.57-2.27-1.4-5-1.83-6.08a8.47 8.47 0 0 0-2.1-3c-1.27-1-1.28-1.05-.31-1.58.54-.3 1.6-1.2 2.36-2 .75-.8 1.6-2.32 1.88-3.38.34-1.26.36-2.65.04-4.04-.26-1.17-.9-2.69-1.4-3.38a9.57 9.57 0 0 0-2.77-2.2c-1-.52-3.36-1.17-5.23-1.45a38.41 38.41 0 0 0-8.14-.09l-4.75.42-.13 15.9-.13 15.9 3.38-.15 3.38-.15zm.33-12.08c-.18-.19-.33-2.1-.33-4.24 0-3.78.04-3.92 1.28-4.23.7-.18 2.1-.19 3.12-.03 1.1.18 2.3.82 2.97 1.6a4.79 4.79 0 0 1 1.13 2.96c0 1.26-.38 2-1.54 2.98-1.18 1-2.09 1.29-3.92 1.29-1.3 0-2.52-.15-2.7-.33zM293.87 201.02a5.85 5.85 0 0 0 1.39-2.04c.18-.58.2-1.6.03-2.25a5.48 5.48 0 0 0-1.39-2.22 4.35 4.35 0 0 0-2.9-1.01 3.7 3.7 0 0 0-3.01 1.26 4.3 4.3 0 0 0-1.19 2.99 4.3 4.3 0 0 0 1.19 2.99 3.7 3.7 0 0 0 3 1.26c1.12 0 2.23-.38 2.88-.98zM191.25 200.4c1.05-1.24 1.27-1.92 1.04-3.12a5.58 5.58 0 0 0-1.57-2.66 4.73 4.73 0 0 0-2.9-1.12c-.93 0-2.09.42-2.69.98a5.85 5.85 0 0 0-1.39 2.04c-.18.58-.2 1.6-.03 2.25.17.66.8 1.66 1.39 2.22a4.36 4.36 0 0 0 2.95 1.01c1.48 0 2.14-.33 3.2-1.6z" fill="#fff"/><path d="M167 104.67c-1.33-.04-2.6-.02-3.5.07-1.79.17-4.92.77-6.97 1.31a47.13 47.13 0 0 0-7.75 3.08c-3.07 1.58-5.11 3.16-8.55 6.6-16.52 16.54-8.35 31.63-11.13 37.07-.55 1.09.96-.22.96-.22l4.84-.34c41.63-2.87 87.7 28.46 100.27 88.53a179 179 0 0 1 1.9 10.98c.36 2.75.72 4.32.8 3.5.08-.83.5-3.64.92-6.25.42-2.61 1.44-7.44 2.27-10.72 5.16-20.5 15.4-36.59 17.35-39.55 2.16-3.29 5.38-8.11 7.43-10.48 24.87-28.64 47.63-33.34 74.28-33.52 9.93-.07 12.9.08 13.78.22.8.56.57.55.35-.85-.12-.99.12-1.64.54-3.42a37.11 37.11 0 0 0-1.3-21.77c-7.18-19.7-27.2-25.28-37.71-24.16-11.01.57-16.36 6.43-24.91 11.56-.76.4-2.4.91-3.64 1.15-5.24.97-23.12-5.2-50.4-3.5-22.3 1.4-31.11 5.05-35.82 5.03-1.24 0-3.21-.45-4.38-.98-5.1-2.31-10.28-10.9-25.78-13.03a39.1 39.1 0 0 0-3.85-.3z" fill="#a05e1c"/></svg>