<svg width="128" height="128" viewBox="0 0 64 64" xml:space="preserve" xmlns:xlink="http://www.w3.org/1999/xlink" xmlns="http://www.w3.org/2000/svg"><defs><linearGradient id="a"><stop offset="0" stop-color="#12afa4"/><stop offset=".25" stop-color="#12a5a8"/><stop offset=".5" stop-color="#208cb6"/><stop offset="1" stop-color="#3367cc"/></linearGradient><linearGradient xlink:href="#a" id="b" x1="0" y1="0" x2="64" y2="64" gradientUnits="userSpaceOnUse"/></defs><path fill="url(#b)" d="M0 0h64v64H0z"/><path d="M32.81 52.47c.62-.33 3.34-5.44 4.16-7.83 1.15-3.32.81-6.93-1.12-11.93a39.4 39.4 0 0 1-.93-2.55l1.32-.48c4.64-1.64 8.23-4.25 10.23-7.42.67-1.07-.18-2.17-.9-1.17-.43.6-.6.55-1.93-.55a234.3 234.3 0 0 0-4.92-4.13c-4.52-3.73-4.48-3.7-4.48-4.27 0-.83-.72-1-1.32-.3-2.86 3.34-3.24 9.42-1 15.92.46 1.3.5 1.23-1.04 1.68-3.28.95-6.48 2.38-7.93 3.54-2.75 2.21-6.35 8.14-5.7 9.37.38.7.81.93 1.36.7 1-.4 1.12-.37 2.67.55l4 2.37c6.74 3.97 6.34 3.67 6.08 4.79-.22.97-.2 1.05.23 1.49.43.42.74.48 1.22.22zm-2.3-5.98c-.68-.74-1.64-1.78-2.15-2.3-5.45-5.69-5.47-5.62.79-2.5 5.97 2.97 5.76 2.76 4.78 4.7-1.02 2.01-1.67 2.03-3.42.1zm-4.19-1.21c-1.4-.88-2.76-1.7-3-1.84-3.24-1.83-3.5-2.16-2.88-3.56.7-1.55.78-1.57 1.98-.32 8.26 8.56 8.1 8.32 3.9 5.72zm7-3.39-1.4-1.33c-2.73-2.4-5.17-5.01-4.36-4.67a1168.87 1168.87 0 0 1 5.96 2.6c2.25.98 2.42 1.3 1.94 3.59-.27 1.3-.6 1.28-2.14-.19zm-2.05-.02c-.36-.2-1.69-.92-2.96-1.59-6.77-3.55-6.48-3.3-5.23-4.65.86-.92 1.12-.93 2.05-.07 1.2 1.12 2.4 2.18 4.85 4.28a19.4 19.4 0 0 1 2.33 2.2c.02.3-.31.24-1.04-.17zm2.97-4.8a1228.26 1228.26 0 0 1-3.67-3.32c-.64-.56-1.26-1.09-1.39-1.16-.4-.23-.23-.53.41-.75.66-.21 1.45.13 2.5 1.07.17.16.82.67 1.45 1.13l1.15.85.33 1.24c.52 1.93.41 2.06-.78.95zm-4.92-1.37c-4.12-1.98-4.06-1.92-2.6-2.66l.8-.4 2.04 1.63 2.72 2.17c.68.54.86.85.48.83-.11 0-1.66-.71-3.44-1.57zm3.44-3.46c-1.08-1.02-1.1-1.11-.35-1.36.67-.22.7-.2 1.16.91.66 1.57.48 1.67-.81.45zm.85-4.7c-.42-1.13-.37-1.53.18-1.31 2.82 1.1 3.2 1.52 1.72 1.93-1.56.43-1.5.45-1.9-.62zm1.67-1.47c-2.77-1.4-2.59-1.22-2.97-3.1-.5-2.54-.55-2.54 1.9-.37 4.48 3.94 4.68 4.15 4.1 4.41-.6.28-.63.28-3.03-.94zm2.72-.88c-4.61-4.36-4.62-4.33.25-1.96 3.75 1.83 3.7 1.76 2.43 2.57-1.2.78-1.2.79-2.68-.61zm3.92-1.21c-.47-.4-1.8-1.55-3.66-3.2l-1.88-1.63c-.3-.25-.54-.55-.54-.68 0-.26.3-.14 4.72 1.93l2.6 1.2c1.42.66 1.47.9.42 1.97-.83.83-1.07.9-1.66.4Zm-6.25-2.83c-4.03-2.1-3.67-1.84-3.67-2.66 0-2.14-.18-2.18 3.6.96 5.06 4.2 5.07 4.3.07 1.7zm1.4-3.2c-4.86-2.48-4.75-2.38-4.06-3.71.51-.98.7-.97 2.13.2 6.95 5.6 6.78 5.46 6.78 5.63 0 .28-.9-.12-4.85-2.13z" fill="#fff"/></svg>