<svg width="128" height="128" viewBox="0 0 64 64" xml:space="preserve" xmlns="http://www.w3.org/2000/svg"><path d="M14.7 63.7C5.37 63.31 1.98 60.9.96 53.88.19 48.73.2 15.47.95 10.33c.85-5.85 3.6-8.47 9.89-9.42C12.8.61 46.13.44 50.5.71c9.1.54 12.1 3.13 12.94 11.2.28 2.62.28 38.2 0 40.68-.78 7.02-3.28 9.78-9.74 10.77-3 .45-30.54.7-39 .34z" fill="#c06fff"/><path d="M20.53 19.63c-1.57.06-3.1.95-3.82 2.83-.46 1.18-.43 18.77.03 19.75.56 1.2 1.6 2 2.96 2.27 1.26.26 22.17.09 23.2-.19 9.24-2.45 9.69-15.06.65-18.05-1-.33-1.1-.33-9.54-.4l-8.54-.08-.08-1.5c-.15-3-2.55-4.71-4.86-4.63zM39.38 32.9c.21 0 .43.03.66.1 1.65.5 1.98 2.86.53 3.75-.51.31-1.58.37-2.04.11-2.03-1.12-1.14-3.98.85-3.96zm-10.72 0c1.03.02 2.05.76 2.05 2.12 0 1.46-1.46 2.43-2.87 1.91-.8-.29-1.39-1.41-1.22-2.31a1.99 1.99 0 0 1 2.04-1.71z" fill="#fff"/></svg>