<svg width="128" height="128" viewBox="0 0 64 64" xml:space="preserve" xmlns="http://www.w3.org/2000/svg"><defs><linearGradient id="a"><stop offset="0" stop-color="#12afa4"/><stop offset=".25" stop-color="#12a5a8"/><stop offset=".5" stop-color="#208cb6"/><stop offset="1" stop-color="#3367cc"/></linearGradient></defs><path fill="#fff" d="M0 0h64v64H0z"/><path d="M30.9 56.23a9.61 9.61 0 0 1-7.97-7.2c-.87-3.76.8-6.9 6.22-11.68l.2-.17-.3-.24c-6-5.02-7.66-9.21-5.4-13.72 3.68-7.33 14.53-6.82 17.57.82 1.61 4.06-.03 7.86-5.41 12.53-.7.6-.7.49.03 1.1 2.08 1.71 4.24 4.24 5.12 5.98 3.13 6.2-2.8 13.62-10.06 12.58zm2.97-3.84c3.35-1 5.07-4.36 3.67-7.17-.71-1.43-4.25-5.28-5.14-5.59-.57-.2-4.57 4.34-5.51 6.26l-.43.86.02.51c.09 3.52 3.91 6.17 7.4 5.13zm-.69-18.6c4.82-4.28 5.81-6.71 3.9-9.57-3.64-5.49-13-1.02-10.1 4.82.83 1.69 4.83 5.9 5.27 5.57l.93-.82zm-9.92-14.46c-.6-.24-.97-1.15-.91-2.22.12-2.46 2.36-2.4 2.47.07.06 1.47-.69 2.5-1.56 2.15zm17.3-2.24c-2.43-.62-2.44-4.59-.02-7.02 2.75-2.76 5.94-.91 4.97 2.89-.66 2.54-3.11 4.6-4.95 4.13zm-14.64-.9c-1.12-.6-1.37-2.74-.44-3.8 1-1.13 2.42-.12 2.44 1.72.01 1.53-1.03 2.62-2 2.09zm4.13-2.04c-1.38-.63-1.7-3.13-.56-4.32 1.07-1.1 2.63-.3 2.91 1.5.28 1.8-1.06 3.41-2.35 2.82zm4.61-.3c-1.61-.57-1.87-3.6-.44-5.14 1.37-1.5 3.16-.36 3.16 2 0 1.93-1.44 3.6-2.72 3.15z"/></svg>