<?xml version="1.0" encoding="UTF-8"?>
<svg id="Layer_1" data-name="Layer 1" xmlns="http://www.w3.org/2000/svg" xmlns:xlink="http://www.w3.org/1999/xlink" viewBox="0 0 283.46 283.46">
  <defs>
    <style>
      .cls-1 {
        fill: url(#linear-gradient);
      }

      .cls-1, .cls-2, .cls-3, .cls-4 {
        stroke-width: 0px;
      }

      .cls-2 {
        fill: #28abe5;
      }

      .cls-3 {
        fill: #232459;
      }

      .cls-4 {
        fill: #f61690;
      }
    </style>
    <linearGradient id="linear-gradient" x1="102.55" y1="228.92" x2="180.93" y2="228.92" gradientTransform="translate(0 286) scale(1 -1)" gradientUnits="userSpaceOnUse">
      <stop offset=".21" stop-color="#ffab3d"/>
      <stop offset=".68" stop-color="#fbad44"/>
    </linearGradient>
  </defs>
  <circle class="cls-3" cx="141.73" cy="141.73" r="141.73"/>
  <path class="cls-4" d="M193.94,198.08c-14.65,0-30.04-8.68-45.75-25.79-2.33-2.54-4.5-5.08-6.46-7.5-1.96,2.42-4.12,4.95-6.46,7.49-15.71,17.11-31.1,25.79-45.75,25.79s-27.17-4.9-36.2-14.18c-15.26-15.69-15.66-38.19-15.6-42.17-.06-3.98.34-26.48,15.6-42.16,9.02-9.28,21.54-14.18,36.2-14.18s30.04,8.67,45.75,25.78c2.33,2.54,4.5,5.08,6.46,7.49,1.96-2.42,4.12-4.95,6.46-7.49,15.71-17.11,31.1-25.78,45.75-25.78s27.18,4.9,36.21,14.18c15.26,15.69,15.66,38.18,15.6,42.16.06,3.98-.34,26.48-15.6,42.17-9.03,9.28-21.54,14.18-36.2,14.18h0ZM158.07,141.73c9.99,13.68,25.39,29.27,35.87,29.27,7.38,0,12.88-1.96,16.8-5.98,7.97-8.19,7.94-22.77,7.93-22.91v-.71c.05-4.14-1.29-16.19-8.01-23.02-3.91-3.97-9.38-5.9-16.71-5.9-10.48,0-25.88,15.58-35.87,29.26h-.01ZM64.8,142.09c-.04,4.16,1.3,16.19,8.01,23.01,3.91,3.97,9.38,5.9,16.71,5.9,10.48,0,25.88-15.58,35.87-29.27-9.99-13.68-25.39-29.26-35.87-29.26-7.33,0-12.8,1.93-16.71,5.9-6.73,6.83-8.06,18.88-8.01,23.02l.02.51-.02.2h0Z"/>
  <path class="cls-1" d="M180.93,71.04c-13.15,3.18-26.28,11.17-39.19,23.89-12.92-12.72-26.04-20.71-39.19-23.89l39.19-51.82,39.19,51.82Z"/>
  <path class="cls-2" d="M180.92,212.43l-39.19,51.81-39.19-51.81c13.15-3.19,26.27-11.18,39.19-23.89,12.92,12.72,26.03,20.71,39.19,23.89Z"/>
</svg>