<svg xmlns="http://www.w3.org/2000/svg" version="1.1" viewBox="0 0 820 820"><path d="M0 0h820v820H0V0Z" fill="#222"/><path d="M180 193a60454.7 60454.7 0 0 1 159.3-.2c8.4 0 16.5 0 24.7 2.2v2l2.6.3c3.8.8 7 2.2 10.5 3.9l3.6 1.7c3.8 2.4 5.6 4.6 8.3 8.1l2.5 2.5C402 224 402 224 402 230h2l1 5h2l1.4 2.8c4 8.1 4 8.1 8.5 15.9 2.1 3.3 2.1 3.3 2.1 6.3 2.5-.3 2.5-.3 5-1l1-2h2l1-3h2v-2c7-6.2 15.4-12 25-12v-2a80.1 80.1 0 0 1 18.9-1.2 4610.2 4610.2 0 0 1 46.7-.4 29770 29770 0 0 1 103.5-.6h3c7.9 0 15.7.8 22.9 4.2v2l2.4.1c9.4 2.3 15.8 9.6 21.6 16.9l2.3 2c4 4.5 6.8 9.7 9.7 15a1460.5 1460.5 0 0 0 5.1 9c2.9 4.8 2.9 4.8 2.9 7h2c3 5.6 4.9 10.7 6 17h2c3.3 2.7 4.5 4.7 5 9h2a1973.4 1973.4 0 0 1 3.8 7.5c1.2 2.5 1.2 2.5 2.2 5.5h2l1.3 3.7a54 54 0 0 0 4.7 9.3l1.5 3.7c1.2 3.5 1.2 3.5 4.5 5.3v2h2l1 5h2l.5 2c1.4 5.2 2.5 8.3 6.5 12 1.5 2.9 3 5.7 3 9l1.8.7c2.8 1.7 3.8 3.4 5.2 6.3v2h2l1.3 3c1 2.7 2.2 4.9 3.7 7.3 2.5 4.3 3.7 9 5 13.7l.5 2c3 13 .8 30.3-5.5 42l-3 3-2.9 5-1.6 3a347 347 0 0 0-4 8.1 93 93 0 0 1-7.1 11.8 32.8 32.8 0 0 0-3.2 5.8c-1.9 4-4.2 7.5-6.6 11.2-3.2 4.8-6 9.6-8.5 14.8-3 6-6.3 11.8-10 17.4l-4 7-4 6.7a160 160 0 0 0-7 13c-1.1 2.2-1.1 2.2-3.3 5.5a29.5 29.5 0 0 0-3.8 8.7h-2l-.6 1.9-.7 2.5-.8 2.4c-.9 2.2-.9 2.2-3.9 4.2l-2 5c-2 4-4.9 7.7-8 11h-2l-1 3c-2 .7-2 .7-4 1v2c-2 1.5-2 1.5-4.8 3.1l-2.7 1.7C656 620 656 620 653 620v2c-8.7 4.4-18 4.1-27.6 4.2h-3a4872.5 4872.5 0 0 1-50.7.5 13271.5 13271.5 0 0 1-90.9.5H478a92.3 92.3 0 0 1-22.7-2.9A26.4 26.4 0 0 1 440 617l-4-1.8c-4.8-2.3-7.1-5.8-10-10.2a5492 5492 0 0 0-3.6-5c-7.4-10.7-7.4-10.7-7.4-15h-2a417.9 417.9 0 0 1-3.1-6c-.9-2-.9-2-.9-5h-2l-2.4-4.3-1.4-2.3c-1-2.2-1.7-4-2.2-6.4l-7-1-.7 1.7a22.7 22.7 0 0 1-5.7 6.4l-2.3 2c-6 4.9-6 4.9-9.3 4.9v2a79.7 79.7 0 0 1-35.7 6.5 3577.2 3577.2 0 0 0-18.3.2h-11.2a8294 8294 0 0 1-81.7.5 3984.6 3984.6 0 0 0-30.3.1c-8.7.1-16.6 0-24.8-3.3l-3.2-1a109 109 0 0 1-13.8-6v-2l-1.7-.8A24 24 0 0 1 145 561a350 350 0 0 0-3.4-4.3C134 547 134 547 134 542h-2a2953 2953 0 0 1-5.4-9.8l-1.6-2.7-1.5-2.7-1.4-2.5c-1-2.1-1.6-4-2.1-6.3h-2a131103752.2 131103752.2 0 0 1-7-12.8c-4.3-7.7-8.8-15-14-22.2-3-4.2-5-8.3-7-13l-2.2-3.8C86 463 86 463 86 460h-2l-1-5h-2c-3.7-5-6.3-10.4-9-16a83 83 0 0 0-8-13l-3-6-2-1-2-6.3c-1.3-4.6-1.3-4.6-3.1-9A60.3 60.3 0 0 1 57 366c1.4-2.7 3-5.3 4.7-8a27 27 0 0 0 3.3-8h2l1-6h2v-3h2l.7-3.1c1.2-4 3.2-6.9 5.7-10.2A60.2 60.2 0 0 0 87 311l1-2h2l.3-1.6c1.4-5 4.2-9.3 6.7-13.8l1.5-2.6 1.5-2h3l.3-3.1a29 29 0 0 1 3.7-9.9h2l1-5h2c0-.6.2-1.1.3-1.7a28 28 0 0 1 4-7.4c3-4.6 5.4-9.3 7.6-14.4 3.2-7 3.2-7 6.1-8.5 1.2-2 1.2-2 2.3-4.4l1.3-2.8c1-1.8 1.8-3.7 2.7-5.5 4.2-8.7 4.2-8.7 7.7-12.3h2l.7-1.8c2.2-3.8 5.2-5.8 9.3-7.2l1.6-1.8c3.4-3.1 7.2-4.5 11.4-6.2l2.7-1.3a22 22 0 0 1 8.3-.7v-2Z" fill="#8E70F7"/><path d="M180 193a60454.7 60454.7 0 0 1 159.3-.2c8.4 0 16.5 0 24.7 2.2v2l2.6.3c3.8.8 7 2.2 10.5 3.9l3.6 1.7c3.8 2.4 5.6 4.6 8.3 8.1l2.5 2.5C402 224 402 224 402 230h2l1 5h2a615075086.8 615075086.8 0 0 0 3.3 6.7l1 1.9c1.7 3.6 3.6 7 5.7 10.4 2.4 4.9 3.7 8.6 2 14l-3 5-3.8 6.6-1 1.9c-2.2 3.7-4.2 7.4-6.3 11.2a136 136 0 0 1-6.5 10.9c-2.7 4.3-5 8.6-7.3 13.2-1.1 2.2-1.1 2.2-3.1 5-3 4.8-5 10-7 15.2h-2l-.5 1.8a26.3 26.3 0 0 1-6.1 11.5c-5.8 7.1-9.4 16.5-13.4 24.7h-2l-.8 2.2c-1.2 2.8-1.2 2.8-2.6 5.2a72.8 72.8 0 0 0-4.6 9.6l-1 2h-2l-.8 3.1a43.8 43.8 0 0 1-5.7 12.2c-6.2 11.1-5.7 26.4-3.5 38.7l2 6 .4 2.3c.5 2.1.5 2.1 3.6 3.7l2.7 5.4c2 4 4.3 8 6.7 11.9 2.6 4.5 2.6 4.5 2.6 6.7h2c3 5.8 3 5.8 3 8h2l2 9h2c1.5 3.4 2 5.2 2 9h2l1 5 1.8.2c3.2 1.2 3.8 3 5.3 6l1.5 3a68 68 0 0 1 3.4 7.8h2a72 72 0 0 1 5.5 12.6c1 3 2 5.2 3.8 7.7 1.7 2.7 1.7 2.7 1.4 4.6-2.8 8-8.6 13.6-15.7 18.1h-3v2a79.7 79.7 0 0 1-35.7 6.5 3577.2 3577.2 0 0 0-18.3.2h-11.2a8294 8294 0 0 1-81.7.5 3984.6 3984.6 0 0 0-30.3.1c-8.7.1-16.6 0-24.8-3.3l-3.2-1a109 109 0 0 1-13.8-6v-2l-1.7-.8A24 24 0 0 1 145 561a350 350 0 0 0-3.4-4.3C134 547 134 547 134 542h-2a2953 2953 0 0 1-5.4-9.8l-1.6-2.7-1.5-2.7-1.4-2.5c-1-2.1-1.6-4-2.1-6.3h-2a131103752.2 131103752.2 0 0 1-7-12.8c-4.3-7.7-8.8-15-14-22.2-3-4.2-5-8.3-7-13l-2.2-3.8C86 463 86 463 86 460h-2l-1-5h-2c-3.7-5-6.3-10.4-9-16a83 83 0 0 0-8-13l-3-6-2-1-2-6.3c-1.3-4.6-1.3-4.6-3.1-9A60.3 60.3 0 0 1 57 366c1.4-2.7 3-5.3 4.7-8a27 27 0 0 0 3.3-8h2l1-6h2v-3h2l.7-3.1c1.2-4 3.2-6.9 5.7-10.2A60.2 60.2 0 0 0 87 311l1-2h2l.3-1.6c1.4-5 4.2-9.3 6.7-13.8l1.5-2.6 1.5-2h3l.3-3.1a29 29 0 0 1 3.7-9.9h2l1-5h2c0-.6.2-1.1.3-1.7a28 28 0 0 1 4-7.4c3-4.6 5.4-9.3 7.6-14.4 3.2-7 3.2-7 6.1-8.5 1.2-2 1.2-2 2.3-4.4l1.3-2.8c1-1.8 1.8-3.7 2.7-5.5 4.2-8.7 4.2-8.7 7.7-12.3h2l.7-1.8c2.2-3.8 5.2-5.8 9.3-7.2l1.6-1.8c3.4-3.1 7.2-4.5 11.4-6.2l2.7-1.3a22 22 0 0 1 8.3-.7v-2Z" fill="#BE9AF8"/><path d="m421 264 3 1 1 5h2l2.2 4.4a316906127.8 316906127.8 0 0 1 4 8.2 48 48 0 0 0 8.5 12.8c2 2.5 3 5.6 4.3 8.6 1.5 2.3 3 4.6 4.7 6.9a19 19 0 0 1 2.3 6.1l2 1 3 6 1.6 2.5a11 11 0 0 1 1.8 5.7l.6 2.8 1.9.9c2.7 1.4 3.5 3 5 5.7l1.6 2.7 1.5 2.7 1.5 2.5c2.2 3.9 3.8 7 4.5 11.5h2l.8 2.6 1.1 3.3 1.1 3.4c.7 2.6.7 2.6 2 3.7 2 19.4-.5 35.2-12 51l-1 3h-2l-.3 2.8c-.7 3.2-1.4 4.8-3.7 7.2h-2l-.4 1.7c-2 7.3-5.8 14.5-10.6 20.3h-2l-.1 3a26 26 0 0 1-6.9 13h-2l.2 2.4-.2 2.6-3 2c-1.3 2.2-1.3 2.2-2.5 4.7l-1.3 2.7-4.2 9.6-4 9h-2l-.8 2.1c-1.3 3-2.6 6-4.2 8.9l-3 1c-1.1 2.3-1.1 2.3-2 5-2.7 6-5.8 11.3-9.5 16.7-2.5 4-4.5 8-6.5 12.3h-3c-1.4-1.8-1.4-1.8-3-4.3l-1.5-2.7-1.7-2.8-1.7-2.8c-4.1-7-4.1-7-4.1-10.4h-2l-1.9-3.5-2.4-4.4-1.2-2.3-1.2-2.2-1.1-2c-1.2-2-1.2-2-4.2-2.6l-1-5h-2c-1.5-3.4-2-5.2-2-9h-2l-2-9h-2c-2-3-3-4.4-3-8h-2l-.8-1.5-9.7-16.9C342 463 342 463 341 460l-3-2c-.7-2.1-.7-2.1-1.1-4.6-.4-3-.4-3-1.9-5.4a64 64 0 0 1 7-45 141 141 0 0 0 2.3-5l1-2.3.7-1.7h2l.6-1.8A46 46 0 0 1 354 380l1.6-2.8 1.4-2.2h2l.4-1.8c1.7-6.2 5.5-12 8.7-17.5l1-1.9a32 32 0 0 1 5.9-7.8c1.2-2.3 1.2-2.3 2.2-4.7l1-2.4.8-1.9h2l.3-2.7c.7-3.4 1.7-5.7 3.4-8.7l1.7-2.9 5.3-8.6 5.8-10.3 4.5-7.8c3.8-6.2 7.2-12.6 10.6-19 2.5-4.6 4.8-9 8.4-13Z" fill="#232223"/><path d="M180 193a60454.7 60454.7 0 0 1 159.3-.2c8.4 0 16.5 0 24.7 2.2v2l6 1c-3.7 1.2-4.4.5-8-1a81 81 0 0 0-14.2-1.1h-2a2188.6 2188.6 0 0 0-25.1 0h-14a28088.1 28088.1 0 0 0-106 0c-9.9 0-19.8.3-29.7 1.1 3.4-2.3 5-2.2 9-2v-2Z" fill="#957BB9"/><path d="M166 578c5.4.6 10 2 15 4 3.5 1.2 6.3 1.1 10 1.1h2.2a2294.7 2294.7 0 0 0 35.3 0c44.2 0 88.3-.5 132.5-1.1l-1 2c-8.4 2-17.8 1.1-26.5 1.1a10450.7 10450.7 0 0 0-55.8 0 15008.7 15008.7 0 0 0-88.8.1h-3.7c-3.2-.2-5.3-.9-8.2-2.2l-3.6-1a32 32 0 0 1-7.4-3v-1Z" fill="#51456D"/><path d="M451 623c4.4.5 8.8 1.1 13.1 2 5.6 1 11 1.3 16.6 1.2h3.1a2224.3 2224.3 0 0 0 17.2 0 7056.5 7056.5 0 0 0 80.5-.7l20-.1 38.5-.4c-2.8 2.8-4.6 2.3-8.5 2.3h-2a1077.7 1077.7 0 0 1-25.2.3h-8.4a9402.4 9402.4 0 0 1-126.3.5A35 35 0 0 1 451 624v-1Z" fill="#564792"/><path d="M166 578c5.4.6 10 2 15 4 3.1 1 5.4 1.2 8.7 1.2h3.5l3.8.1h3.9l10.2.2 10.4.2 20.5.3v1a7276.5 7276.5 0 0 1-54 .2h-3c-3-.2-5.2-1-7.9-2.2l-3.6-1a32 32 0 0 1-7.4-3v-1Z" fill="#61527E"/><path d="m381 330 2 1-2 6h-2l-.5 1.8a25.7 25.7 0 0 1-6 11.4c-3.2 3.9-5.2 8.5-7.5 12.8l-1-4h2l.3-2.1a36 36 0 0 1 3.7-8.9h2l.6-2.4c1.6-4 3.6-7 6-10.5 1.6-2.2 1.6-2.2 2.4-5.1Z" fill="#9478CE"/><path d="M388 542a35 35 0 0 1 8 11v2h3v5h-5l-2 4c0-3 0-3 2-6-.4-3.4-2-6.1-3.6-9.1-2.4-4.7-2.4-4.7-2.4-6.9Z" fill="#7863B6"/><path d="M481 367c3.8 3.8 4.3 7.8 4.3 13v17.4c-.3 2.6-.3 2.6-2.3 5.6v-18.7l.1-3c.2-2.3.2-2.3-1.1-3.3l-.6-5.6-.2-3-.2-2.4Z" fill="#574A7E"/><path d="m380 574-4 1v2c-12.9 6-12.9 6-19 4l1.8-.5a70.9 70.9 0 0 0 16-6.6c2.2-.9 2.2-.9 5.2.1Z" fill="#876ECF"/><path d="M466 339c2.4 2.2 4 4.4 5.4 7.3 2 3.7 4.2 7.2 6.6 10.7l-1 2a26 26 0 0 1-6-8.2c-1.1-2-1.1-2-3.3-5-1.7-2.8-1.7-2.8-1.7-6.8Z" fill="#4C4167"/><path d="m762 410 2 1c2.9 8.8 2.2 17.9 2 27h-1l-.2-3.5-.2-4.4-.2-2.3c.2-3.7.2-3.7-1.4-6.8l-.6-5.6-.2-3-.2-2.4Z" fill="#53449C"/><path d="M362 497h2v3h2l1 5h2l3 10h-2l-1-5h-2c-1.5-3.4-2-5.2-2-9h-2l-1-4Z" fill="#665591"/><path d="m381 330 2 1-2 6h-2l-.6 1.9-.7 2.4-.8 2.4c-1 2.4-2 3.6-3.9 5.3 1-6.7 2.9-10.7 7-16l1-3Z" fill="#7863A4"/><path d="M409 536c1 2 1 2 .3 4.4-1.3 2.6-1.3 2.6-2.7 4-1.9 2-3 4-4.3 6.3L401 553l-1 1.9-1-2c.8-1.9.8-1.9 2.1-4.1l1.4-2.4c2.1-3.6 4.3-7 6.5-10.5Z" fill="#635292"/><path d="M398.6 559.7c2.4 1.3 2.4 1.3 3.2 3.4l.2 1.9c-2 0-2 0-3.6-1.5L397 562l-5 4-2-1c4.9-6.3 4.9-6.3 8.6-5.3Z" fill="#413957"/><path d="M451 623c6 .5 11.3 2 17 4a19 19 0 0 1-14.4-1.6L451 624v-1Z" fill="#564785"/><path d="m700 559 1 3a79.8 79.8 0 0 1-4 6.7l-1.1 1.8-2.9 4.5-1-2c1.1-2.5 1.1-2.5 2.8-5.4.6-1 1-2 1.7-3 1-1.9 2.3-3.8 3.5-5.6Z" fill="#6751CF"/><path d="M61 420c2.5 2.3 4 4.6 5.7 7.5l1.3 2.3c1 2.2 1 2.2 1 5.2a23.3 23.3 0 0 1-8-15Z" fill="#5B4E68"/><path d="M722 339c2.8 1 3.8 1.7 5.3 4.3l1 2.7 1 2.7c.7 2.3.7 2.3-.3 4.3a31 31 0 0 1-7-14Z" fill="#51438A"/><path d="M166 578c5.5.6 10 2 15 4-5 1.5-8.8 0-13.4-2.1l-1.6-.9v-1Z" fill="#7F69A7"/><path d="m417 256 2 1v3l6-1-2 6h-3l-3-9Z" fill="#8069B1"/><path d="M700 302h2v2h2l2 8-2-1v-2h-2l-2-7Z" fill="#534589"/><path d="m153 206 2 1c-2.7 3.7-4.6 5.6-9 7 1.5-3.8 3.8-5.6 7-8Z" fill="#977DAE"/><path d="m737 365 2 1v2h2v3h2l1 5-.8-1.9c-1-2.3-1-2.3-3.3-3L738 370c-.8-2.6-.8-2.6-1-5Z" fill="#4A3E7E"/><path d="m342 401 1 2c-.8 1.7-.8 1.7-2 3.6l-2 3.4c-1.1-3.8-1.1-3.8 0-6h2l1-3Z" fill="#7964A6"/></svg>