<svg xml:space="preserve" width="128" height="128" version="1.1" viewBox="0 0 1109.3 1109.3" id="svg22" xmlns="http://www.w3.org/2000/svg" clip-rule="evenodd" fill-rule="evenodd" image-rendering="optimizeQuality" shape-rendering="geometricPrecision" text-rendering="geometricPrecision"><defs id="defs12"><mask id="id0"><linearGradient id="id1" gradientUnits="userSpaceOnUse" x1="1440" y1="662.4" x2="1943.8" y2="2111.8"><stop offset="0" id="stop1" stop-opacity="1" stop-color="#fff"/><stop offset="1" id="stop2" stop-opacity="0" stop-color="#fff"/></linearGradient><path id="rect2" fill="url(#id1)" d="M290 777h2598v1365H290z"/></mask><mask id="id2"><linearGradient id="id3" gradientUnits="userSpaceOnUse" x1="1076.4" y1="841.9" x2="1076.4" y2="470.7"><stop offset="0" id="stop3" stop-opacity="1" stop-color="#fff"/><stop offset="1" id="stop4" stop-opacity="0" stop-color="#fff"/></linearGradient><path id="rect4" fill="url(#id3)" d="M805 412h573v748H805z"/></mask><mask id="id4"><linearGradient id="id5" gradientUnits="userSpaceOnUse" x1="1764.7" y1="1496.9" x2="2053.5" y2="2890.5"><stop offset="0" id="stop5" stop-opacity="1" stop-color="#fff"/><stop offset="1" id="stop6" stop-opacity="0" stop-color="#fff"/></linearGradient><path id="rect6" fill="url(#id5)" d="M902 1207h1859v955H902z"/></mask><mask id="id6"><linearGradient id="id7" gradientUnits="userSpaceOnUse" x1="1101.7" y1="625.4" x2="1101.7" y2="933.6"><stop offset="0" id="stop7" stop-opacity="1" stop-color="#fff"/><stop offset="1" id="stop8" stop-opacity="0" stop-color="#fff"/></linearGradient><path id="rect8" fill="url(#id7)" d="M962 411h573v640H962z"/></mask><linearGradient id="id8" gradientUnits="userSpaceOnUse" x1="1689.8" y1="1059.3" x2="1953.8" y2="2718.6" gradientTransform="matrix(.38408 0 0 .38408 0 32)"><stop offset="0" id="stop9" stop-opacity="1" stop-color="#005096"/><stop offset="1" id="stop10" stop-opacity="1" stop-color="#6bd5ff"/></linearGradient><linearGradient id="id9" gradientUnits="userSpaceOnUse" x1="1453.7" y1="1388.8" x2="2564.5" y2="2443.1"><stop offset="0" id="stop11" stop-opacity="1" stop-color="#005096"/><stop offset="1" id="stop12" stop-opacity="1" stop-color="#0781eb"/></linearGradient><style type="text/css" id="style1">.fil5{fill:#bdf5ff;fill-rule:nonzero}</style></defs><g id="Layer_x0020_1"><g id="g22"><path d="M1033 385C841 171 474 138 214 261 70 330-45 494 17 641c118 274 715 267 969 121 149-85 160-250 47-377Z" id="path12" stroke-width=".4" fill="#6bd5ff"/><path d="M1534 778C1001 767 9 1105 365 1818l17 34 2 2 1 3 2 2 2 5 3 5 2 2 1 3 2 2 1 2 2 3 1 2 2 2 1 3 2 2 3 5 1 2 3 5 2 2 2 3 1 2 2 2 3 5 2 2 1 2 2 3 2 2 1 2 2 2 2 3 1 2 2 2 2 2 2 3 1 2 2 2 2 2 2 2 3 5 4 4 2 2 1 3 2 2 2 2 2 2 2 2 2 2 2 2 1 3 4 4 2 2 2 2 2 2 2 2 2 2 2 2 2 2a1378 1378 0 0 0 241 85 1889 1889 0 0 0 267 54 2567 2567 0 0 0 47 6 559 559 0 0 1-143-339c0-328 417-595 932-595 483 0 880 235 927 536l19-24v-1a542 542 0 0 0 108-351c-268-434-825-606-1354-589Z" mask="url(#id0)" id="path13" transform="matrix(.38408 0 0 .38408 0 32)" fill="#1495cc"/><path d="M1378 412v582a57 57 0 1 1-114 0V417c38-3 76-5 114-5zm-459 58c-38 10-76 20-114 32v639c0 6 2 13 4 19 14-15 38-25 65-25 17 0 32 3 45 10v-4z" mask="url(#id2)" id="path14" transform="matrix(.38408 0 0 .38408 0 32)" fill="#3e9bc2"/><path d="M704 495c198 0 358 103 358 229 0 97-95 180-228 213-85 21-91 57-59 118 4 7 5 29-25 21-151-42-404-200-404-352 0-126 161-229 358-229z" id="path15" fill="url(#id8)" stroke-width=".4"/><path d="M1045 2141c543 66 1165-33 1523-239 79-46 143-100 193-159-47-301-444-536-927-536-515 0-932 267-932 595 0 114 55 230 143 339z" mask="url(#id4)" id="path16" transform="matrix(.38408 0 0 .38408 0 32)" fill="url(#id9)"/><path class="fil5" d="M367 455c13 0 24 2 33 6 11 5 17 12 17 20 0 9-6 16-17 20a84 84 0 0 1-67 0c-10-4-16-11-16-20 0-8 6-15 17-20 8-4 20-6 33-6zm27 19c-7-3-16-5-27-5s-21 2-28 5c-5 3-8 5-8 7s3 5 8 7c7 3 17 5 28 5s20-2 27-5c5-2 8-5 8-7s-3-4-8-7z" id="path17" stroke-width=".4"/><path class="fil5" d="M367 455c22 0 41 4 56 10 16 7 26 17 26 29s-10 23-26 30c-15 6-34 10-56 10s-42-4-56-10c-17-7-27-18-27-30s10-22 27-29c14-6 34-10 56-10zm50 23c-13-5-30-9-50-9s-38 4-51 9c-10 5-17 11-17 16 0 6 7 12 17 16 13 6 31 9 51 9s37-3 50-9c11-4 18-10 18-16 0-5-7-11-18-16z" id="path18" stroke-width=".4"/><path class="fil5" d="M543 401c13 0 25 2 33 6 11 5 17 12 17 20 0 9-6 16-17 20-8 4-20 7-33 7s-25-3-33-7c-11-4-17-11-17-20 0-8 6-15 17-20 8-4 20-6 33-6zm27 19c-7-3-16-5-27-5s-21 2-27 5c-5 3-9 5-9 7s4 5 9 7c6 3 16 5 27 5s20-2 27-5c5-2 9-5 9-7s-4-4-9-7z" id="path19" stroke-width=".4"/><path class="fil5" d="M543 401c22 0 42 4 56 10 16 7 26 17 26 29s-10 23-26 30c-14 6-34 10-56 10s-42-4-56-10c-16-7-27-18-27-30s11-22 27-29c14-6 34-10 56-10zm50 23c-12-5-30-9-50-9s-38 4-50 9c-11 5-18 11-18 16 0 6 7 12 18 16 12 6 30 9 50 9s38-3 50-9c11-4 18-10 18-16 0-5-7-11-18-16z" id="path20" stroke-width=".4"/><path d="M1076 439v555a57 57 0 0 1-114 0V460l114-21zm459-24-114-4v583a57 57 0 0 0 114 0z" mask="url(#id6)" id="path21" transform="matrix(.38408 0 0 .38408 0 32)" fill="#fff"/><path d="m389 349 132-23v-39l-132 23zm132 22-132 22v77a22 22 0 1 1-44 0V169a37 37 0 0 0-37-37 37 37 0 0 0-37 37 22 22 0 1 1-44 0 81 81 0 0 1 138-57c15 14 24 35 24 57v13l132-22v-47a37 37 0 0 0-37-37 37 37 0 0 0-37 37 22 22 0 1 1-44 0 81 81 0 0 1 138-58c15 15 24 35 24 58v300a22 22 0 0 1-44 0v-42zm0-167-132 23v39l132-23v-39z" id="path22" stroke-width=".4" fill="#005096" fill-rule="nonzero"/></g></g></svg>