<svg fill="none" height="256" width="256" xmlns="http://www.w3.org/2000/svg"><rect fill="#06f" height="256" rx="128" width="256"/><path clip-rule="evenodd" d="m142.034 194.439-3.079 13.621c-.46 2.034-2.405 3.376-4.466 3.057a404.025 404.025 0 0 1 -14.263-2.481c-2.208-.423-3.616-2.595-3.12-4.787l2.788-12.332a222.96 222.96 0 0 1 -5.892-1.238 225.7 225.7 0 0 1 -5.286-1.272l-2.787 12.328c-.496 2.191-2.699 3.546-4.873 2.981a411.07 411.07 0 0 1 -13.944-3.877c-2-.597-3.183-2.647-2.723-4.684l3.064-13.55c-30.277-12.141-49.392-32.776-41.28-68.016l1.953-8.635c7.851-35.371 33.974-45.737 66.525-43.653l3.062-13.542c.46-2.036 2.41-3.378 4.473-3.056 4.693.733 9.449 1.573 14.255 2.499 2.206.425 3.612 2.596 3.116 4.787l-2.787 12.328c1.764.35 3.538.726 5.32 1.126 1.974.446 3.926.914 5.854 1.405l2.785-12.32c.496-2.193 2.701-3.548 4.876-2.98a404.772 404.772 0 0 1 13.943 3.895c1.998.6 3.177 2.647 2.717 4.681l-3.071 13.584c29.882 12.138 48.559 32.758 40.635 67.805l-1.952 8.634c-7.784 35.072-33.627 45.571-65.843 43.692zm43.932-50.707 1.099-4.859c7.737-32.148-17.988-44.155-49.701-51.789-32.061-6.784-60.449-7.01-67.294 25.338l-1.098 4.86c-7.77 32.294 17.954 44.301 49.816 51.969 31.913 6.751 60.3 6.977 67.178-25.519z" fill="#fff" fill-rule="evenodd"/></svg>