<svg xmlns="http://www.w3.org/2000/svg" viewBox="0 0 141.7 58.8"><path d="M30.4 1.2a13 13 0 0 1 13 11.7 6.4 6.4 0 0 1 1.8 4l-.1 1.6a6.3 6.3 0 0 1 3 1.6 6.2 6.2 0 0 1 4.3-1.7c2.1 0 4 1 5.1 2.7a13 13 0 0 1 7.7-2.7h.9c2.7 0 5.3 1 8 2.9l.2.2 1.7 1.8.7 1.5a10.6 10.6 0 0 1 12.2 2h.1a10.6 10.6 0 0 1 11.6-2.2c1.3-.6 2.7-.9 4.1-.9 3 0 5.6 1.2 7.5 3 1.9-1.7 4.3-2.8 6.9-2.8 2.3 0 4.7.7 6.6 2h.1a8.7 8.7 0 0 1 6-2.3c1.3 0 2.3.2 3.1.3a5.8 5.8 0 0 1 4.1 8.2 7.7 7.7 0 0 1 1.5 4v.4c0 3.4-1.5 5.4-2.8 6.5a9 9 0 0 1-6 2.1c-1.2 0-2.3-.1-3.5-.3a5.7 5.7 0 0 1-1.5-.6c-1 .5-2 .8-3.2.8H119c-2.1 0-4-.6-5.7-1.8l-.4.4a6.7 6.7 0 0 1-8 0l-.2-.2-.2.2a6.7 6.7 0 0 1-8 0l-.2-.2-.2.2a6.8 6.8 0 0 1-7.2.6 6.1 6.1 0 0 1-5.1.5 10.6 10.6 0 0 1-8.6-1.6 6.2 6.2 0 0 1-4.5 2c-.7 0-1.4-.1-2-.3L66 45h-.9c-2.7 0-5.3-1-7.7-2.8a6.2 6.2 0 0 1-5.1 2.8 6.2 6.2 0 0 1-4.3-1.8 6.2 6.2 0 0 1-4.3 1.8 6.3 6.3 0 0 1-5-2.5 10.6 10.6 0 0 1-5.1 2.3 6.3 6.3 0 0 1-12.5-.7v-1a13.3 13.3 0 0 1-6.6 1.9 13.4 13.4 0 1 1 1.3-26.7c-.3-1.9.2-3.8 1.4-5.3.6-6.7 6.3-12 13.1-12m0-1.2C23.2 0 17 5.5 16.2 12.6a7.5 7.5 0 0 0-1.6 4.5A14.6 14.6 0 1 0 20 45.2a7.5 7.5 0 0 0 14.6.8c1.4-.4 2.7-1 3.9-1.8a7.4 7.4 0 0 0 9.4.7 7.4 7.4 0 0 0 9.7-.9c2.3 1.6 4.8 2.3 7.5 2.3h.9c.8 0 1.7 0 2.6-.3a7.4 7.4 0 0 0 6.7-1.3 11.8 11.8 0 0 0 8.4 1.3 7.5 7.5 0 0 0 5.2-.5 8 8 0 0 0 7.4-.6c1.2.8 2.7 1.2 4.1 1.2s3-.4 4.3-1.2a7.9 7.9 0 0 0 8.7-.2 11 11 0 0 0 5.6 1.5h4.4a9 9 0 0 0 3.2-.6l1.2.3c1.4.3 2.5.4 3.7.4 2.8 0 5.1-.8 7-2.4a9.4 9.4 0 0 0 3-7.4v-.4a9 9 0 0 0-1.2-4.2 7 7 0 0 0-5.2-9.1c-1-.2-2-.4-3.5-.4a10 10 0 0 0-6.1 2 15 15 0 0 0-6.5-1.7c-2.5 0-4.9.9-6.9 2.4a11.9 11.9 0 0 0-11.6-1.8 11.6 11.6 0 0 0-11.7 2 11.8 11.8 0 0 0-7.6-2.8c-1.4 0-2.7.2-4 .7l-.3-.6a9.5 9.5 0 0 0-2-2v-.2h-.2A14.5 14.5 0 0 0 66 17h-1c-2.4 0-5 .8-7.4 2.4a7.4 7.4 0 0 0-5.4-2.4c-1.5 0-3 .5-4.3 1.4l-1.6-.9V17a7.7 7.7 0 0 0-1.8-4.5c-.4-3.1-1.8-6-4-8.2A14.3 14.3 0 0 0 30.3 0Z" fill="#fff"/><path d="M140.5 36.2a7 7 0 0 0-1.5-4.1 5.9 5.9 0 0 0-4.1-8.1c-.8-.2-1.8-.4-3.2-.4-2.2 0-4.4.8-5.9 2.2l-.1.1a13 13 0 0 0-6.6-2c-2.6 0-5 1.1-6.9 2.8a10.7 10.7 0 0 0-7.5-3c-1.4 0-2.8.3-4.1 1a10.3 10.3 0 0 0-11.6 2v.2a10.6 10.6 0 0 0-7.6-3.2 12 12 0 0 0-4.7 1l-.7-1.4a9 9 0 0 0-1.7-1.8l-.1-.1H74c-2.7-2-5.3-3-8-3h-.9a13 13 0 0 0-7.7 2.7 6.2 6.2 0 0 0-5.1-2.7 6 6 0 0 0-4.3 1.7 6.3 6.3 0 0 0-3-1.6V17a6.4 6.4 0 0 0-1.6-4 13 13 0 0 0-3.8-8 13 13 0 0 0-9.3-3.8 13 13 0 0 0-13 12 6.4 6.4 0 0 0-1.5 5.3l-1.3-.1a13.4 13.4 0 1 0 6.6 25v.9a6.3 6.3 0 0 0 12.5.7c1.9-.3 3.6-1.2 5-2.4a6.2 6.2 0 0 0 9.4.8 6.2 6.2 0 0 0 4.3 1.7c2.1 0 4-1 5.1-2.7 2.4 1.9 5 2.8 7.7 2.8h.9c.8 0 1.7-.1 2.7-.4a6.2 6.2 0 0 0 6.5-1.6 10.6 10.6 0 0 0 8.6 1.6 6.1 6.1 0 0 0 5-.6 6.8 6.8 0 0 0 7.3-.6h.4c1.2 1 2.6 1.4 4 1.4s3-.5 4-1.3l.3-.2.1.2c1.2.8 2.6 1.3 4 1.3a6.9 6.9 0 0 0 4.5-1.7 9.8 9.8 0 0 0 5.7 1.8h4.4c1.1 0 2.2-.3 3.2-.8l1.5.5c1.2.3 2.3.4 3.4.4a9 9 0 0 0 6.1-2.1 8.1 8.1 0 0 0 2.8-6.5v-.4Z" fill="#222"/><path d="M49.8 49a3.8 3.8 0 1 0 0 7.6 3.8 3.8 0 0 0 0-7.5Zm0 5.6a1.8 1.8 0 1 1 0-3.5 1.8 1.8 0 0 1 0 3.5Zm7-3.4a2.7 2.7 0 0 0-2.7 3v3.7c0 .5.4 1 .9 1s.9-.5.9-1v-1.4a2.7 2.7 0 0 0 3.5-2.6c0-1.5-1.2-2.7-2.6-2.7Zm0 3.7c-.5 0-1-.4-1-1s.5-.8 1-.8.9.4.9.9-.4.9-1 .9Zm5.8-3.6h-.2V50c0-.5-.4-1-.9-1s-.9.5-.9 1v1.2h-.1c-.5 0-1 .5-1 1s.5.9 1 .9h.1v2.6c0 .5.4 1 1 1s.8-.5.8-1v-2.6h.2c.5 0 .9-.4.9-1s-.4-.9-1-.9ZM65 49c-.5 0-1 .4-1 .9s.5.9 1 .9 1-.4 1-1-.5-.8-1-.8Zm0 2a1 1 0 0 0-1 1v3.6c0 .5.5 1 1 1s1-.5 1-1V52c0-.5-.5-1-1-1Zm3.3.3c0-.5.4-.6.9-.6h.5c.6.2 1-.2 1-.7 0-.4-.2-.8-.6-.9a5.6 5.6 0 0 0-1.3-.1c-1.3 0-2.3.8-2.3 2.4.1 2.4 3 1.7 3 2.9 0 .3-.3.5-1 .5a4 4 0 0 1-.9 0 .8.8 0 0 0-1 .7c0 .4.3.8.7.9l1.5.1c1.5 0 2.5-.7 2.5-2.5-.1-2.4-3-1.6-3-2.7Zm10.7.2a1 1 0 0 0-1.2.5l-.7 1.7-.8-1.7a1 1 0 0 0-.8-.6 1 1 0 0 0-.9.6l-.7 1.7L73 52a1 1 0 0 0-1.6.7l1.5 3.6c.2.3.5.5.9.5s.7-.2.8-.5l.8-1.7.7 1.7c.2.3.5.5.9.5s.6-.2.8-.5l1.6-3.6c.2-.5 0-1-.5-1.2Zm3.4-.4a2.7 2.7 0 1 0 1.2 5.2l.6.2c.5 0 .9-.4.9-.9V54c0-1.5-1.2-2.7-2.7-2.7Zm0 3.7c-.5 0-.9-.4-.9-1s.4-.8 1-.8.8.4.8.9-.4.9-.9.9Zm6-3.6a2.7 2.7 0 0 0-2.6 2.9v3.7c0 .5.4 1 .9 1s.9-.5.9-1v-1.4a2.7 2.7 0 0 0 3.5-2.6c0-1.5-1.2-2.7-2.7-2.7Zm0 3.6c-.4 0-.8-.4-.8-1s.4-.8.9-.8.9.4.9.9-.4.9-1 .9Zm7.4-5.8a2.7 2.7 0 0 0-2.6 3v3.6c0 .5.3 1 .8 1s1-.5 1-1v-1.4a2.7 2.7 0 0 0 3.5-2.5c0-1.5-1.2-2.7-2.7-2.7Zm0 3.6c-.4 0-.8-.4-.8-.9s.4-1 .9-1 .9.5.9 1-.4 1-1 1Zm5.6-1.5c-.3 0-.7 0-1.1.3-.4.1-.9.5-1.2 1-.3.5-.3 1.2-.4 1.7v1.5c0 .5.4 1 1 1s.8-.5.8-1v-1.4c0-.6.2-1.2 1-1.2.4 0 .8-.4.8-1s-.4-.8-.9-.8Zm3.8 0a2.7 2.7 0 1 0 0 5.4 2.7 2.7 0 1 0 0-5.4Zm0 3.7c-.5 0-.9-.4-.9-1s.4-.8 1-.8.8.4.8.9-.4.9-.9.9Z" fill="#fff" fill-rule="evenodd"/><path d="M37.8 51a2 2 0 0 0-.7.2v-1a.7.7 0 0 0-1.3 0V53a2 2 0 0 0 4 0c0-1-1-2-2-2Zm0 2.7a.7.7 0 1 1 0-1.4.7.7 0 0 1 0 1.4Zm5.4-2.6c-.3 0-.6.3-.6.5v1.2c0 .4-.3.8-.7.8s-.6-.4-.6-.8v-1.2c0-.2-.2-.5-.6-.5-.4 0-.7.3-.7.5v1.5c0 1.1 1.4 2.1 2.5 1.7 0 .4-.6.3-.9.5-.2.1-.4.5-.3.6.3.8 1.2.6 1.7.3.6-.5.9-1 .9-1.5v-3c0-.3-.4-.6-.7-.6Z" fill="#fd4f4f"/><path d="M14.6 22.4a9.4 9.4 0 1 0 0 18.7 9.4 9.4 0 0 0 0-18.7Zm0 13.7a4.4 4.4 0 1 1 0-8.7 4.4 4.4 0 0 1 0 8.7Zm17.3-8.3c-3.7 0-6.7 3-6.7 6.6v9.9a2.3 2.3 0 0 0 4.5 0v-3.5c.7.2 1.4.3 2.2.3a6.7 6.7 0 0 0 0-13.3Zm0 9a2.3 2.3 0 1 1 0-4.5 2.3 2.3 0 0 1 0 4.5Zm14.5-9H46v-3.2a2.3 2.3 0 0 0-4.5 0v3.2H41a2.3 2.3 0 0 0 0 4.5h.4v6.6a2.3 2.3 0 0 0 4.5 0v-6.6h.4a2.3 2.3 0 0 0 0-4.5Zm6-1a2.3 2.3 0 1 0 0-4.4 2.3 2.3 0 0 0 0 4.5Zm0 .8c-1.3 0-2.3 1-2.3 2.3v9a2.3 2.3 0 0 0 4.5 0v-9c0-1.3-1-2.3-2.2-2.3Z" fill="#39f"/><path d="M70.8 30.7h-4.5a2.3 2.3 0 0 0 0 4.5h2.1c-.8.6-1.7 1-2.5 1h-.4l-1-.1c-1.1-.5-2-1-2.4-1.7a4 4 0 0 1-.9-2.5v-.3c0-.6.2-1.3.5-2 1-1.5 2.2-2.3 3.7-2.3h.5a4 4 0 0 1 2.3.9c.8.7 1.6 1.2 2.4 1.2h.3c.7-.3 1.2-.5 1.6-1 .3-.3.5-.8.5-1.4v-.4a2 2 0 0 0-.3-1l-1-1c-.4-.4 0 0 0 0a9.4 9.4 0 0 0-5.6-2.2h-.9a9.2 9.2 0 0 0-9 9v.8c0 1.8.8 3.7 2.2 5.6a9.4 9.4 0 0 0 6.8 3.3h1c.7 0 1.8-.2 3-.6.5.4 1 .6 1.6.6 1.3 0 2.3-1 2.3-2.2v-6c0-1.2-1-2.2-2.3-2.2Zm10.6-3c-3.7 0-6.7 3-6.7 6.7a6.7 6.7 0 0 0 9.5 6c.4.4 1 .6 1.6.6 1.2 0 2.2-1 2.2-2.2v-4.4c0-3.7-3-6.7-6.6-6.7Zm0 9a2.3 2.3 0 1 1 0-4.5 2.3 2.3 0 0 1 0 4.5Zm23.3-9a7 7 0 0 0-4.2 1.6c-1.3-1.1-2.5-1.6-4.2-1.6s-3.3.8-4.5 2a6.2 6.2 0 0 0-2 4.3v5c0 .7.3 1.2.7 1.5.5.4 1 .5 1.7.5s1.1-.1 1.6-.5c.4-.3.7-.8.7-1.5v-5c0-.6.2-1 .6-1.2a2 2 0 0 1 1.2-.4c.4 0 1 .1 1.3.4.4.3.6.7.6 1.2v4.8c0 .7.3 1.2.8 1.5.4.4 1 .6 1.5.6.6 0 1.2-.2 1.7-.6.4-.3.8-.8.8-1.5V34c0-.5.2-1 .6-1.2a2 2 0 0 1 1.1-.4c.4 0 1 .1 1.3.4.4.3.6.7.6 1.2v4.8c0 .7.3 1.2.8 1.5.4.4 1 .5 1.5.5.6 0 1.2-.1 1.7-.5.4-.3.7-.8.7-1.5V34c0-3.6-3.2-6.3-6.6-6.3Zm18.8 9 .8-.8c.8-.7 1.6-1.5 1.6-2.8 0-2.4-2.8-5.2-6.8-5.2-3.2 0-6.3 3-6.3 6.3 0 3.4 2.6 6.8 6.3 6.8h4.4c1.2 0 2.5-.8 2.5-2 0-1.6-1-2.3-2.5-2.3Zm-5.3-.5a2.2 2.2 0 0 1 1.3-3.9c.7 0 1.3.3 1.7.8l-3 3Zm18.3.3a3.5 3.5 0 0 0-3-3.4c-.2-.2-.5-.2-.7-.3h-.3l-.7-.3a1 1 0 0 1-.5-.3.5.5 0 0 1 0-.3v-.3l.1-.2h1.9a1.8 1.8 0 1 0 .8-3.5c-.8-.2-1.5-.3-2.4-.3-1.2 0-2.4.4-3.2 1.2-.8.7-1.3 1.8-1.3 3.2 0 1.2.4 2 1 2.5.6.6 1.3 1 2 1.2l.7.2h.2l.8.4c.2 0 .3.2.4.3l.2.3c0 .3-.1.4-.2.4l-1 .2-1.6-.1c-1.1-.3-2.3.5-2.3 1.7 0 .9.6 1.6 1.5 1.8l2.8.2c1.3 0 2.5-.3 3.4-1 .9-.8 1.4-2 1.4-3.6Z" fill="#23e843" fill-rule="evenodd"/><path d="M40.4 15.5a2.6 2.6 0 0 0-.9-.5v-.7a9.1 9.1 0 0 0-18.2 0v.8l-.7.4a2.5 2.5 0 0 0-.2 3.5c2.7 3 6.3 4.6 10.1 4.6s7.4-1.7 10-4.6a2.5 2.5 0 0 0-.1-3.5Z" fill="#fff"/><path d="M32.9 14.3c-.7.8-1.6 1.2-2.5 1.2s-1.8-.4-2.5-1.2a1 1 0 1 0-1.4 1.3 5.2 5.2 0 0 0 7.8 0 1 1 0 1 0-1.4-1.2Zm-6.2-2.6h.6v.6a.6.6 0 0 0 1.1 0v-.6h.6a.6.6 0 0 0 0-1.2h-.6V10a.6.6 0 0 0-1.1 0v.6h-.6a.6.6 0 0 0 0 1.2Zm6.6 1a1.5 1.5 0 1 0 0-3.1 1.5 1.5 0 0 0 0 3Z" fill="#222"/></svg>