<svg xmlns="http://www.w3.org/2000/svg" version="1.1" viewBox="0 0 3000 3000"><path d="M0 0h3000v3000H0V0Z" fill="#333332"/><path d="M1904 237h12c23 0 45 2 68 6l3 1c17 3 33 6 50 11l3 1a553 553 0 0 1 25 7 586 586 0 0 1 230 132l8 8a272 272 0 0 1 30 30 337 337 0 0 1 19 22l32 45 1 2a522 522 0 0 1 81 197l1 3 7 41 3 21a559 559 0 0 1 6 88 171 171 0 0 1 0 27c0 24 14 42 30 59a1157 1157 0 0 0 15 15c7 9 15 15 22 22l20 19 18 17 8 8 13 12 9 9 6 5 12 12 2 2a5500 5500 0 0 1 54 55l8 8a255 255 0 0 1 18 22c14 16 26 34 34 53l1 2c3 8 3 15 1 23-2 5-6 9-10 13l-5 6-9 8-7 6-19 16-2 1-52 37-2 1-51 32-2 2-19 10c5 36 19 75 46 101 7 7 12 14 12 24s-4 17-11 24c-9 7-19 12-29 17l-3 2c-20 8-42 12-63 16l-3 1-32 3a9464 9464 0 0 0-73 4h-15a1160 1160 0 0 0 3 6c8 14 32 21 46 25 17 5 35 8 53 11 83 13 83 13 99 33 4 6 6 12 5 19-5 17-17 29-29 41l-10 11-2 2c-20 23-28 52-26 82a271 271 0 0 0 27 85c5 13 7 25 7 38v2c0 13-2 24-7 36l-1 2c-6 15-14 27-25 38l-2 2c-7 7-15 13-23 18l-3 2-22 10-4 2c-39 14-81 8-121 2-33-6-65-7-99-6h-15a586 586 0 0 0-145 14l-19 4c-58 12-116 32-168 62l-2 1c-17 10-34 21-49 33l-3 2a330 330 0 0 0-43 41l-1 2a263 263 0 0 0-52 101h-1v-68a1385 1385 0 0 1 4-91l4-38v-12a317 317 0 0 1 6-51l1-16 5-31a9467 9467 0 0 0 10-57l1-4a732 732 0 0 1 11-48c18-77 49-151 92-217l2-3 6-9 1-2 29-39 2-2a909 909 0 0 1 33-41l16-19a1524 1524 0 0 0 88-112 564 564 0 0 0 76-174 729 729 0 0 0 23-133c2-22 1-45 1-68v-6c0-22-4-44-7-66l-1-9-4-29-1-3c-5-27-12-54-21-80l-1-3c-18-54-43-105-75-151l-1-2a605 605 0 0 0-59-74l-18-19a2753 2753 0 0 1-30-27 378 378 0 0 0-48-38l-6-5a604 604 0 0 0-58-37c-31-19-64-35-98-48l-2-1-53-19-2-1a443 443 0 0 0-71-20l-31-7-3-1-53-9a59 59 0 0 1 13-10l5-4 2-1a989 989 0 0 1 242-112l3-1 42-9h4c17-3 34-3 52-3Zm-817 0h11c23 0 45 1 67 6h4c79 16 154 50 223 90l3 2c21 12 42 26 63 40l-6 3-3 1h-3l-4 1a2617 2617 0 0 1-24 4l-4 1a594 594 0 0 0-65 15c-91 23-180 63-257 117l-2 1a659 659 0 0 0-163 165l-1 2c-14 20-27 41-38 63l-2 3a581 581 0 0 0-56 159l-1 3a543 543 0 0 0-13 132v3a409 409 0 0 0 5 83v2a114027 114027 0 0 1 7 49l3 12a523 523 0 0 0 17 67 630 630 0 0 0 58 130l2 3a483 483 0 0 0 46 66 598 598 0 0 0 50 59 512 512 0 0 0 28 34 559 559 0 0 1 32 40l2 2 31 46 2 3a547 547 0 0 1 27 47 656 656 0 0 1 54 141l1 2a1096 1096 0 0 1 35 197 1091 1091 0 0 1 8 106c2 26 2 53 2 80v48l-4-8-1-3-1-4a239 239 0 0 0-67-106 235 235 0 0 0-24-22c-16-12-33-23-50-33l-2-1a570 570 0 0 0-207-71l-10-1c-20-4-40-6-61-8h-3a442 442 0 0 0-69-2c-37 0-74 2-110 8-50 8-101 9-144-21l-11-9-3-2a110 110 0 0 1-25-134c8-19 14-37 19-56l1-2 1-21v-6c0-29-10-52-29-73a189 189 0 0 1-12-13c-12-11-25-25-26-42 1-8 5-14 11-19 17-14 39-18 60-22h2c14-3 28-6 42-7 27-4 68-11 87-32l4-7 1-3h-4a804 804 0 0 1-97-4c-38-4-93-12-120-41-5-7-10-15-9-25 2-9 9-16 15-22 22-21 34-54 41-82l1-3 1-13c-4-6-13-9-19-13l-29-17-8-5c-32-20-62-41-90-65l-2-2-6-5-3-3c-20-17-20-17-21-29-1-26 19-50 34-69l1-2a321 321 0 0 1 31-35 916 916 0 0 0 38-39l16-16 8-7 13-12 10-10 10-9 9-9 6-6 19-18a59118 59118 0 0 1 62-64c7-10 14-19 14-32v-9a4657 4657 0 0 0 1-23v-8l1-9v-9l1-3a11592 11592 0 0 1 0-12c2-47 2-47 7-70l3-19a288 288 0 0 1 7-38c8-35 19-69 33-101l1-3 10-21 1-3a534 534 0 0 1 90-131l2-3 20-20 2-2a291 291 0 0 1 21-19 482 482 0 0 1 58-45l2-2a598 598 0 0 1 172-79l2-1 42-10 3-1 33-6 3-1a452 452 0 0 1 56-3Z" fill="#FE5F00"/><path d="m1351 958 3 2c32 25 51 60 59 100l1 4 2 9 1 2v12l1 6v70a52934 52934 0 0 1 1 107v3l1 4h15a9008 9008 0 0 1 18 0h13a32109 32109 0 0 0 116 0v-3a68788 68788 0 0 1 0-169c0-15 0-30 4-44v-2c11-46 36-85 76-110a183 183 0 0 1 150-15l2 1c43 15 77 44 97 84 20 41 22 92 7 135-12 33-33 60-61 82l-2 2-17 11-2 2c-17 10-35 19-53 26l-3 1a319 319 0 0 1-49 16c-36 9-71 16-108 18l-1 1003h154v100h-553v-100h155V1311h-19a343 343 0 0 1-41-7c-44-7-86-19-126-38l-2-1c-23-11-45-25-63-43l-2-2c-17-16-30-36-40-58l-2-4c-12-30-13-67-7-99v-3c6-30 22-56 42-79l2-2c11-12 24-21 38-28l2-1c11-6 22-10 33-14l4-1c50-15 113-6 154 27Z" fill="#FD5F00"/><path d="M1418 1317a491 491 0 0 1 61 1h11l44-1h48v998h-164v-998Z" fill="#333332"/><path d="M1224 2484h552v101h-53l-3 13c-7 24-17 46-31 66l-1 2a224 224 0 0 1-29 33c-39 40-96 63-152 64a233 233 0 0 1-185-84l-2-3a238 238 0 0 1-43-91h-53v-101Z" fill="#FE5F00"/><path d="M1333 994a91 91 0 0 1 15 16 149 149 0 0 1 30 102v30a20301 20301 0 0 1 0 131l-10-1h-3a287 287 0 0 1-38-6l-3-1c-50-9-102-22-144-51l-2-1c-30-21-55-50-63-86-4-23-5-50 2-72l1-2c4-15 12-29 22-41l2-3c47-54 136-60 191-15Zm508 0a325 325 0 0 1 10 9 114 114 0 0 1 35 87v8c0 16-1 31-7 46l-1 3c-7 17-18 32-31 45l-1 1c-14 14-30 24-47 33l-2 1c-13 7-26 12-40 17l-3 1a345 345 0 0 1-44 13c-19 5-39 8-59 12h-4a2704 2704 0 0 1-13 2h-2l-3 1h-7a33494 33494 0 0 1 0-149c-1-47 5-90 40-126 47-45 129-45 179-4Z" fill="#333332"/></svg>