<svg xmlns="http://www.w3.org/2000/svg" id="Layer_1" viewBox="0 0 55.8 55.8"><defs id="defs22"><linearGradient id="_무제_그라디언트_4" x1="-783.3" x2="-783.3" y1="565.5" y2="565.1" data-name="무제 그라디언트 4" gradientTransform="matrix(144,0,0,-144,112827,81425)" gradientUnits="userSpaceOnUse"><stop id="stop4" offset="0" stop-color="#7043ef"/><stop id="stop6" offset="1" stop-color="#3e14d8"/></linearGradient><linearGradient id="_무제_그라디언트_2" x1="-789.8" x2="-790.2" y1="589.7" y2="589.7" data-name="무제 그라디언트 2" gradientTransform="matrix(-90.014693,90.014693,28.567114,28.567114,-87924.9,54283.1)" gradientUnits="userSpaceOnUse"><stop id="stop12" offset="0" stop-color="#8e99ff"/><stop id="stop14" offset="1" stop-color="#72e3e3"/></linearGradient><linearGradient id="_무제_그라디언트_3" x1="-789.8" x2="-790.2" y1="589.7" y2="589.7" data-name="무제 그라디언트 3" gradientTransform="matrix(-90.014693,90.014693,28.567114,28.567114,-87924.9,54283.1)" gradientUnits="userSpaceOnUse"><stop id="stop17" offset="0" stop-color="#8e99ff"/><stop id="stop19" offset="1" stop-color="#40efef"/></linearGradient><style id="style2">.st4{fill-rule:evenodd;fill:#fff}</style><mask id="mask" width="55.8" height="55.8" x="0" y=".2" maskUnits="userSpaceOnUse"><g id="mask-3"><path id="path-21" d="M 49.2,6.4 C 44.1,1.2 36.4,0.2 27.8,0.2 19.2,0.2 11.6,1.2 6.4,6.4 2.4,10.5 0,17.2 0,28.1 0,39 2.5,45.7 6.5,49.8 11.6,55 19.3,56 27.9,56 36.5,56 44.1,55 49.3,49.8 53.4,45.7 55.8,39 55.8,28.1 55.8,17.2 53.3,10.5 49.3,6.4 Z" class="st4" data-name="path-2"/></g></mask></defs><g id="Page-1" transform="translate(0,-0.2)"><g id="OneUI7.X"><g id="Group"><g id="container"><path id="path-2" d="M 49.2,6.4 C 44.1,1.2 36.4,0.2 27.8,0.2 19.2,0.2 11.6,1.2 6.4,6.4 2.4,10.5 0,17.2 0,28.1 0,39 2.5,45.7 6.5,49.8 11.6,55 19.3,56 27.9,56 36.5,56 44.1,55 49.3,49.8 53.4,45.7 55.8,39 55.8,28.1 55.8,17.2 53.3,10.5 49.3,6.4 Z" style="fill:url(#_무제_그라디언트_4);fill-rule:evenodd"/></g><g id="g66" style="mask:url(#mask)"><g id="Group-7"><g id="g63"><circle id="Oval" cx="27.8" cy="28.1" r="16.4" style="fill:#fff"/><g id="Combined-Shape"><path id="path-6" d="m 33.3,33.6 c -9.6,9.6 -19.9,15 -23,11.9 -3.1,-3.1 2.3,-13.3 11.9,-23 9.6,-9.7 19.9,-15 23,-11.9 3.1,3.1 -2.3,13.3 -11.9,23 z m -1,-1 c 7.2,-7.2 11.6,-14.4 10,-16.1 -1.6,-1.7 -8.9,2.8 -16.1,10 -7.2,7.2 -11.6,14.4 -10,16.1 1.6,1.7 8.9,-2.8 16.1,-10 z" style="fill-rule:evenodd;fill:url(#_무제_그라디언트_2)"/><path id="path-61" d="m 33.3,33.6 c -9.6,9.6 -19.9,15 -23,11.9 -3.1,-3.1 2.3,-13.3 11.9,-23 9.6,-9.7 19.9,-15 23,-11.9 3.1,3.1 -2.3,13.3 -11.9,23 z m -1,-1 c 7.2,-7.2 11.6,-14.4 10,-16.1 -1.6,-1.7 -8.9,2.8 -16.1,10 -7.2,7.2 -11.6,14.4 -10,16.1 1.6,1.7 8.9,-2.8 16.1,-10 z" data-name="path-6" style="fill-rule:evenodd;fill:url(#_무제_그라디언트_3)"/></g><path id="Oval1" d="m 16.2,39.7 c 6.4,6.4 16.8,6.4 23.3,0 6.4,-6.4 6.4,-16.8 0,-23.3 -5.5,1.4 -21.1,17 -23.3,23.3 z" class="st4" data-name="Oval"/></g></g></g></g></g></g></svg>