<svg width="128" height="128" viewBox="0 0 64 64" xml:space="preserve" xmlns="http://www.w3.org/2000/svg"><path d="M35.73 12.3a2.83 2.83 0 0 0-2.01.74c-.24.21-2.38 2.67-3.32 3.8l-1.75 2.05a1697.45 1697.45 0 0 0-5.8 6.77c-3.28 3.8-3.36 3.92-3.25 5.17.12 1.3-.1 1.06 5.23 5.65a412.53 412.53 0 0 1 2.94 2.53c.7.6 1.12.78 2.02.86.63.05.8.03 1.25-.17.7-.3.76-.37 3.3-3.35a598.44 598.44 0 0 1 4.32-5.05 577.96 577.96 0 0 0 3.59-4.2c.33-.37 2.59-3.01 2.96-3.47 1.46-1.78 1.11-3.14-1.34-5.26a34504.03 34504.03 0 0 1-6.01-5.18 3.44 3.44 0 0 0-2.13-.9zm-.38 5.19a5.74 5.74 0 0 1 5.63 4.93l.08.58.82-.99c1.03-1.24 1.39-1.42 1.82-.92.32.38.27.63-.26 1.27a410.74 410.74 0 0 0-2.96 3.54 111.88 111.88 0 0 0-1.64 1.97l-3.39 4.06-.6.8a5.86 5.86 0 0 1-3.36 2.3c-.47.11-1.64.19-2.02.13a5.71 5.71 0 0 1-4.97-4.91l-.08-.63-.36.44c-.69.85-.84.98-1.18.98-.4 0-.67-.26-.67-.67 0-.3.07-.41 1.25-1.8a79.84 79.84 0 0 0 1.56-1.88l1.93-2.3a190.63 190.63 0 0 0 2.68-3.23c1.93-2.38 2.5-2.87 3.82-3.34a5.57 5.57 0 0 1 1.9-.33zm.1 1.6a4.07 4.07 0 0 0-4.22 4.08c0 .79 0 .78.53.95a5.77 5.77 0 0 1 3.45 2.84l.15.31.35-.04a4.07 4.07 0 0 0 2.5-6.94 4.01 4.01 0 0 0-2.76-1.2zm-5.83 4.39c-.05-.01-.15.08-.36.35-.08.1-.07.1.07.1.34 0 .44-.12.33-.4-.01-.03-.03-.05-.04-.05zm.47 1.88-.31.03c-4.84.52-5.07 7.51-.28 8.27 2.52.4 4.8-1.57 4.8-4.15 0-.8 0-.8-.46-.9a5.88 5.88 0 0 1-3.56-2.86l-.2-.4zm2.25.59c-.06.05.23.34.55.55.33.22.33.22.28.1a3.02 3.02 0 0 0-.83-.65zm3.82 2.8a.5.5 0 0 0-.14.01c-.26.05-.27.06-.22.27l.05.17.19-.18c.18-.17.22-.26.12-.27z" fill="#0a721a"/><path d="M37.6 44.32c-1.36.06-2.66.8-2.66 2.18 0 1.29.58 1.79 2.5 2.18 1.41.28 1.8.65 1.32 1.22-.5.6-2.28.33-2.28-.34 0-.07-.16-.09-.87-.09h-.86l.04.24c.16.93.87 1.62 1.9 1.84 2.22.48 3.98-.48 3.98-2.17 0-1.26-.5-1.7-2.4-2.11-1.38-.3-1.56-.4-1.56-.84 0-.86 1.76-.96 2.11-.12l.1.22h1.67l-.04-.27c-.2-1.37-1.61-2-2.96-1.94zm11.94.04h-.58c-1.22.06-1.65.4-1.72 1.36l-.04.46-.34.02-.33.01v1.28h.7V51.52h1.73V47.49l.46-.02.47-.01.02-.63.01-.62-.5-.02c-.55-.02-.6-.07-.46-.43.09-.21.22-.27.67-.29h.32l.02-.5c.02-.46 0-.6-.43-.61zm-40.84.11v7.06l2.1-.02 2.1-.02.5-.24c1.62-.8 1.43-3.07-.3-3.37l-.26-.04.43-.21c1.32-.65 1.23-2.34-.15-2.98-.27-.13-.41-.14-2.35-.16zm6.28.01v7.04h1.72v-7.04h-.86zm17.53 0v1.28c0 1.39 0 1.4-.29 1-.75-1.04-2.47-.86-3.12.33-.86 1.58-.27 4.04 1.06 4.45.86.26 2.22-.22 2.22-.79 0-.03.03-.06.07-.06.03 0 .06.18.06.41v.42h1.73v-7.04h-.86zm-21.49 1.23c1.4-.05 2.03.98.94 1.54-.27.14-1.45.16-1.5.03a5.83 5.83 0 0 1-.01-.82l.01-.73zm41.52.33c-1.29.06-2.56 1.02-2.56 2.82 0 1.43.72 2.43 1.92 2.7.76.17 1.74.06 2.28-.26a2.2 2.2 0 0 0 .99-1.27l.05-.17h-.78c-.77 0-.79 0-.86.15-.31.69-1.6.46-1.86-.34-.14-.41-.24-.39 1.73-.39h1.8l-.03-.66c-.08-1.8-1.39-2.64-2.68-2.58zm-32.6.03c-.22 0-.44.02-.67.07-2.66.57-2.74 4.77-.1 5.42 1.28.31 2.65-.19 3.13-1.14.28-.56.28-.56-.57-.56h-.74l-.2.22c-.6.68-1.85.25-1.85-.65v-.15l1.78-.02 1.78-.01.02-.4a2.55 2.55 0 0 0-2.59-2.78zm24.04 0c-1.24-.1-2.44.53-2.67 1.6l-.04.2h.8c.78 0 .79 0 .86-.16.27-.58 1.38-.42 1.47.2.04.34.06.33-.93.4-2.55.21-3.5 2.4-1.37 3.18.66.24 1.53.07 2.01-.4l.3-.3v.73h1.73v-1.94c0-2.46-.07-2.7-.94-3.16-.38-.2-.8-.32-1.22-.35zm-17.44 0c-.6-.03-1.2.2-1.56.74l-.21.3v-.9h-1.73V51.52h1.73v-1.67c0-1.3.02-1.7.09-1.84.33-.63 1.11-.7 1.49-.14.14.2.15.25.15 1.93v1.72h1.73l-.02-2.1-.02-2.1-.17-.32c-.3-.57-.89-.89-1.48-.92zm-6.69 1.25c.48-.01 1.01.34 1.01.8 0 .14-1.79.23-1.88.08-.06-.09.24-.6.43-.74.13-.1.28-.14.44-.14zm32.67.02c.47-.07.98.2 1.06.72l.02.16-.91.02c-1.04.02-1.08 0-.87-.42a.9.9 0 0 1 .7-.48zm-21.05.18c1.08 0 1.44 1.92.47 2.57-.7.48-1.44-.14-1.44-1.22 0-.9.32-1.34.97-1.35zm-21.04 1h.75c1.65 0 2.23 1.4.73 1.71-.33.07-1.25.1-1.4.03-.06-.02-.08-.26-.08-.89zm34 .74-.03.33a.84.84 0 0 1-.62.78c-.55.15-1.03-.06-1.03-.47 0-.42.2-.53 1.1-.6z" fill="#131313"/><path d="M36.18 12.35c.58.1 1.16.39 1.68.84a2359.59 2359.59 0 0 1 6.01 5.18c2.45 2.12 2.8 3.48 1.34 5.26a292.79 292.79 0 0 1-3.48 4.08 577.96 577.96 0 0 1-4.35 5.1 706.53 706.53 0 0 1-3.04 3.54c-2.54 2.98-2.6 3.04-3.3 3.35-.42.19-.6.22-1.15.18l.54.08.51.13c.21.05.8-.03 1.22-.16.73-.22 1.12-.57 2.4-2.17a82.77 82.77 0 0 1 1.57-1.89 34 34 0 0 1 .77-.94 103.97 103.97 0 0 1 2.17-2.61A163.9 163.9 0 0 1 45.14 25c1.59-1.89 1.68-2.03 1.87-2.9.19-.83-.15-1.9-.78-2.53-.36-.36-.24-.25-3.16-2.68a176.74 176.74 0 0 1-1.95-1.63 216 216 0 0 1-1.59-1.32c-1.5-1.28-1.8-1.43-3.35-1.6z" fill="#3db650"/></svg>