<svg fill="none" height="112" viewBox="0 0 112 112" width="112" xmlns="http://www.w3.org/2000/svg" xmlns:xlink="http://www.w3.org/1999/xlink"><filter id="a" color-interpolation-filters="sRGB" filterUnits="userSpaceOnUse" height="101.315" width="101.315" x="5.34247" y="5.34247"><feFlood flood-opacity="0" result="BackgroundImageFix"/><feColorMatrix in="SourceAlpha" result="hardAlpha" type="matrix" values="0 0 0 0 0 0 0 0 0 0 0 0 0 0 0 0 0 0 127 0"/><feOffset/><feGaussianBlur stdDeviation=".172516"/><feComposite in2="hardAlpha" operator="out"/><feColorMatrix type="matrix" values="0 0 0 0 0.360784 0 0 0 0 0.756863 0 0 0 0 0.447059 0 0 0 1 0"/><feBlend in2="BackgroundImageFix" mode="normal" result="effect1_dropShadow_1_10071"/><feBlend in="SourceGraphic" in2="effect1_dropShadow_1_10071" mode="normal" result="shape"/></filter><clipPath id="b"><rect height="112" rx="17.5" width="112"/></clipPath><g clip-path="url(#b)"><rect fill="#5cc172" height="112" rx="17.5" width="112"/><g filter="url(#a)"><path d="m106.312 56c0 27.7868-22.5252 50.312-50.312 50.312s-50.3125-22.5252-50.3125-50.312 22.5257-50.3125 50.3125-50.3125 50.312 22.5257 50.312 50.3125z" fill="#101112"/></g><path d="m-10.6408 88.1842h-20.6404v-10.6622h19.1461c2.42824 0 4.60746-.1531 6.53764-.4595 1.99244-.3677 3.70471-.7354 5.136779-1.103 1.432066-.3677 2.832981-1.0723 4.202791-2.114 1.43206-1.103 2.55277-1.9915 3.3622-2.6656.80943-.674 1.80569-1.8996 2.98869-3.6766s2.0547-3.1251 2.6151-4.0442c.5603-.9805 1.4943-2.6962 2.8018-5.1473 1.3698-2.451 2.4283-4.32 3.1754-5.6068 4.1095-7.2919 6.6-11.5506 7.4717-12.7761 4.6698-6.9856 10.3358-11.612 16.9981-13.8792 4.2339-1.4706 9.1216-2.2059 14.6631-2.2059h20.08v10.6621h-18.4923c-4.3585 0-8.032.4289-11.0207 1.2868-2.9887.7966-5.5726 2.2059-7.7518 4.2281-2.1792 2.0221-4.016 4.1668-5.5104 6.434-1.432 2.206-3.2065 5.2392-5.3235 9.0996-.8094 1.5319-1.4321 2.6962-1.8679 3.4928-.6227 1.0417-1.4944 2.6348-2.6151 4.7795-1.1208 2.0834-1.9924 3.6766-2.615 4.7796-.6227 1.103-1.4944 2.5736-2.6152 4.4119-1.1207 1.777-2.1792 3.1864-3.1754 4.2281-.934.9804-2.117 2.1447-3.5491 3.4928-1.3698 1.3481-2.8329 2.3897-4.38952 3.1251-1.5566.7353-3.33112 1.5012-5.32356 2.2978-1.93017.7354-4.109421 1.2562-6.53771 1.5626-2.36602.3064-4.94996.4596-7.75181.4596z" fill="#5cc172"/><path d="m54.9315 88.1842h-20.6405v-10.6622h19.1461c2.4283 0 4.6075-.1531 6.5377-.4595 1.9924-.3677 3.7048-.7354 5.1368-1.103 1.4321-.3677 2.833-1.0723 4.2028-2.114 1.4321-1.103 2.5528-1.9915 3.3622-2.6656.8094-.674 1.8057-1.8996 2.9887-3.6766s2.0547-3.1251 2.615-4.0442c.5604-.9805 1.4944-2.6962 2.8019-5.1473 1.3698-2.451 2.4283-4.32 3.1755-5.6068 4.1094-7.2919 6.5999-11.5506 7.4716-12.7761 4.6698-6.9856 10.3357-11.612 16.9977-13.8792 4.234-1.4706 9.122-2.2059 14.663-2.2059h20.081v10.6621h-18.493c-4.358 0-8.032.4289-11.02 1.2868-2.989.7966-5.573 2.2059-7.752 4.2281-2.18 2.0221-4.016 4.1668-5.511 6.434-1.4318 2.206-3.2063 5.2392-5.3232 9.0996-.8095 1.5319-1.4321 2.6962-1.8679 3.4928-.6227 1.0417-1.4944 2.6348-2.6151 4.7795-1.1208 2.0834-1.9925 3.6766-2.6151 4.7796-.6227 1.103-1.4943 2.5736-2.6151 4.4119-1.1207 1.777-2.1792 3.1864-3.1755 4.2281-.9339.9804-2.1169 2.1447-3.549 3.4928-1.3698 1.3481-2.833 2.3897-4.3895 3.1251-1.5566.7353-3.3311 1.5012-5.3236 2.2978-1.9301.7354-4.1094 1.2562-6.5377 1.5626-2.366.3064-4.9499.4596-7.7518.4596z" fill="#5cc172"/><g stroke="#5cc172" stroke-width="4.15625"><path d="m-10.6408 88.1842h-20.6404v-10.6622h19.1461c2.42824 0 4.60746-.1531 6.53764-.4595 1.99244-.3677 3.70471-.7354 5.136779-1.103 1.432066-.3677 2.832981-1.0723 4.202791-2.114 1.43206-1.103 2.55277-1.9915 3.3622-2.6656.80943-.674 1.80569-1.8996 2.98869-3.6766s2.0547-3.1251 2.6151-4.0442c.5603-.9805 1.4943-2.6962 2.8018-5.1473 1.3698-2.451 2.4283-4.32 3.1754-5.6068 4.1095-7.2919 6.6-11.5506 7.4717-12.7761 4.6698-6.9856 10.3358-11.612 16.9981-13.8792 4.2339-1.4706 9.1216-2.2059 14.6631-2.2059h20.08v10.6621h-18.4923c-4.3585 0-8.032.4289-11.0207 1.2868-2.9887.7966-5.5726 2.2059-7.7518 4.2281-2.1792 2.0221-4.016 4.1668-5.5104 6.434-1.432 2.206-3.2065 5.2392-5.3235 9.0996-.8094 1.5319-1.4321 2.6962-1.8679 3.4928-.6227 1.0417-1.4944 2.6348-2.6151 4.7795-1.1208 2.0834-1.9924 3.6766-2.615 4.7796-.6227 1.103-1.4944 2.5736-2.6152 4.4119-1.1207 1.777-2.1792 3.1864-3.1754 4.2281-.934.9804-2.117 2.1447-3.5491 3.4928-1.3698 1.3481-2.8329 2.3897-4.38952 3.1251-1.5566.7353-3.33112 1.5012-5.32356 2.2978-1.93017.7354-4.109421 1.2562-6.53771 1.5626-2.36602.3064-4.94996.4596-7.75181.4596z"/><path d="m54.9315 88.1842h-20.6405v-10.6622h19.1461c2.4283 0 4.6075-.1531 6.5377-.4595 1.9924-.3677 3.7048-.7354 5.1368-1.103 1.4321-.3677 2.833-1.0723 4.2028-2.114 1.4321-1.103 2.5528-1.9915 3.3622-2.6656.8094-.674 1.8057-1.8996 2.9887-3.6766s2.0547-3.1251 2.615-4.0442c.5604-.9805 1.4944-2.6962 2.8019-5.1473 1.3698-2.451 2.4283-4.32 3.1755-5.6068 4.1094-7.2919 6.5999-11.5506 7.4716-12.7761 4.6698-6.9856 10.3357-11.612 16.9977-13.8792 4.234-1.4706 9.122-2.2059 14.663-2.2059h20.081v10.6621h-18.493c-4.358 0-8.032.4289-11.02 1.2868-2.989.7966-5.573 2.2059-7.752 4.2281-2.18 2.0221-4.016 4.1668-5.511 6.434-1.4318 2.206-3.2063 5.2392-5.3232 9.0996-.8095 1.5319-1.4321 2.6962-1.8679 3.4928-.6227 1.0417-1.4944 2.6348-2.6151 4.7795-1.1208 2.0834-1.9925 3.6766-2.6151 4.7796-.6227 1.103-1.4943 2.5736-2.6151 4.4119-1.1207 1.777-2.1792 3.1864-3.1755 4.2281-.9339.9804-2.1169 2.1447-3.549 3.4928-1.3698 1.3481-2.833 2.3897-4.3895 3.1251-1.5566.7353-3.3311 1.5012-5.3236 2.2978-1.9301.7354-4.1094 1.2562-6.5377 1.5626-2.366.3064-4.9499.4596-7.7518.4596z"/></g></g></svg>