<svg width="128" height="128" viewBox="0 0 64 64" xml:space="preserve" xmlns="http://www.w3.org/2000/svg"><defs><linearGradient id="a"><stop offset="0" stop-color="#12afa4"/><stop offset=".25" stop-color="#12a5a8"/><stop offset=".5" stop-color="#208cb6"/><stop offset="1" stop-color="#3367cc"/></linearGradient></defs><path d="M32-.06A32 32.03 0 0 0 0 31.97 32 32.03 0 0 0 32 64a32 32.03 0 0 0 32-32.03A32 32.03 0 0 0 32-.06zm-.01 13.87c.31 0 .92.26 1.93.82A1220.82 1220.82 0 0 1 42 19.14l4.13 2.3c.92.5 1.82 1.06 2 1.24l.34.33v17.86l-.34.33c-.18.18-1.08.74-2 1.24a2131 2131 0 0 0-7.7 4.27c-4.47 2.5-6.14 3.36-6.46 3.36-.3 0-1.09-.36-2.44-1.1a3030.2 3030.2 0 0 1-11.4-6.35 19.62 19.62 0 0 1-2.43-1.5c-.22-.26-.23-.9-.23-9.19v-8.9l.3-.33a94.3 94.3 0 0 1 5.9-3.44l7.73-4.28c1.5-.82 2.27-1.17 2.59-1.17zm0 6.37c-.37-.03-.71.26-.96.75l-1.57 2.74-1.64 2.87-1.15 2-1.16 2-2.09 3.63-1.94 3.38c-.53.9.27 1.37.52 1.32h20.03c.7 0 .77-.73.52-1.17l-1.47-2.54-1.58-2.75-1.77-3.07-1.77-3.07-1.53-2.66c-.54-.93-1.05-1.87-1.62-2.79-.26-.43-.55-.63-.83-.64z" fill="#020118"/></svg>