<?xml version="1.0" encoding="UTF-8"?>
<svg id="b" data-name="Layer 2" xmlns="http://www.w3.org/2000/svg" width="112" height="112" xmlns:xlink="http://www.w3.org/1999/xlink" viewBox="0 0 112 112">
  <defs>
    <linearGradient id="d" x1="3683.242" y1="4658.974" x2="3795.242" y2="4658.974" gradientTransform="translate(4714.974 3795.242) rotate(-90) scale(1 -1)" gradientUnits="userSpaceOnUse">
      <stop offset="0" stop-color="#004b7f"/>
      <stop offset=".133" stop-color="#06557c"/>
      <stop offset=".36" stop-color="#157074"/>
      <stop offset=".652" stop-color="#2e9c67"/>
      <stop offset=".996" stop-color="#50d855"/>
      <stop offset="1" stop-color="#50d955"/>
    </linearGradient>
  </defs>
  <g id="c" data-name="Layer 1">
    <g>
      <path d="M98.537,0H13.463C6.031,0,0,6.031,0,13.463v85.074c0,7.432,6.031,13.463,13.463,13.463h85.074c7.432,0,13.463-6.031,13.463-13.463V13.463c0-7.432-6.031-13.463-13.463-13.463ZM88.396,48.568h-10.861c-.133-.4-.28-.801-.427-1.188h11.008c.093.4.187.801.28,1.188ZM80.684,63.712v1.188h-4.003c.173-.387.347-.787.494-1.188h3.509ZM87.796,46.233h-11.181c-.187-.4-.387-.801-.587-1.188h11.408c.12.4.24.801.36,1.188ZM66.568,35.732h11.702v1.188h-9.687c-.654-.44-1.321-.827-2.015-1.188ZM74.974,75.374v1.188h-10.621c.881-.347,1.735-.734,2.562-1.188h8.059ZM74.987,38.054v1.188h-3.442c-.44-.414-.894-.814-1.374-1.188h4.817ZM78.256,40.389v1.188h-4.55c-.334-.4-.667-.801-1.027-1.188h5.577ZM72.852,70.717h5.404v1.188h-6.565c.414-.387.801-.787,1.161-1.188ZM73.826,69.57c.307-.387.6-.774.881-1.188h4.296v1.188h-5.177ZM74.587,42.724h5.911v1.188h-5.137c-.24-.414-.507-.801-.774-1.188ZM81.525,34.571h-17.559c-1.548-.574-3.189-.974-4.883-1.188h21.415c.347.4.694.787,1.027,1.188ZM76.775,29.915h-32.743v-1.188h31.169c.494.374,1.054.787,1.574,1.188ZM56.254,22.576c1.254,0,3.869.213,5.004.494h-10.02c1.147-.28,3.763-.494,5.017-.494ZM46.967,24.071h18.573c.947.28,1.895.6,2.802.961l.614.227h-25.338c1.094-.467,2.202-.854,3.349-1.188ZM41.149,26.392h30.195c.721.374,1.414.761,2.095,1.188h-34.385c.68-.414,1.388-.814,2.095-1.188ZM34.371,31.062h43.751c.427.387.854.774,1.268,1.188h-46.273c.4-.414.827-.801,1.254-1.188ZM32.01,33.397h21.415c-1.695.213-3.322.614-4.87,1.188h-17.586c.334-.414.68-.801,1.041-1.188ZM29.661,36.253c.133-.173.254-.347.387-.52h15.878c-.694.36-1.361.761-2.015,1.188h-14.25v-.667ZM37.787,68.382c.28.4.574.801.881,1.188h-6.525v-1.188h5.644ZM34.892,67.235v-1.188h1.494c.213.4.427.801.667,1.188h-2.162ZM32.143,43.911v-1.188h5.777c-.267.387-.534.774-.774,1.188h-5.004ZM34.905,41.576v-1.188h4.897c-.36.387-.694.774-1.027,1.188h-3.869ZM33.237,39.241v-1.188h9.086c-.48.374-.934.774-1.374,1.188h-7.712ZM26.993,45.059h9.487c-.213.387-.4.787-.587,1.188h-8.9v-1.188h0ZM24.391,47.394h11.008c-.16.387-.294.787-.427,1.188h-10.861c.08-.4.173-.801.28-1.188ZM31.983,52.051h2.122c-.067.387-.12.787-.16,1.188h-1.961v-1.188ZM30.568,50.903v-1.188h4.043c-.107.387-.2.787-.294,1.188h-3.749ZM34.078,59.056c.067.4.133.787.213,1.188h-6.845v-1.188h6.631ZM29.915,57.908v-1.188h3.936c.013.4.053.787.08,1.188h-4.016ZM32.236,61.377h2.335c.107.4.227.787.347,1.188h-2.682v-1.188ZM23.363,54.386h10.487c-.027.387-.04.787-.04,1.188h-10.487c.013-.4.027-.801.04-1.188ZM24.337,63.712h10.981c.16.4.32.801.494,1.188h-11.141c-.107-.387-.227-.787-.334-1.188ZM26.993,70.717h12.649c.374.414.761.801,1.161,1.188h-13.169c-.227-.4-.44-.787-.64-1.188ZM28.314,73.039h13.783c.507.414,1.041.814,1.588,1.188h-14.597c-.267-.387-.52-.787-.774-1.188ZM29.915,75.374h15.678c.827.44,1.681.841,2.562,1.188h-17.306c-.32-.387-.627-.787-.934-1.188ZM60.897,88.223h-9.287c-1.801-.254-3.549-.654-5.244-1.188h19.761c-1.681.534-3.442.934-5.23,1.188ZM69.223,85.888h-25.952c-.841-.36-1.668-.761-2.468-1.188h30.889c-.801.44-1.628.827-2.468,1.188ZM73.679,83.553h-34.865c-.6-.374-1.188-.774-1.761-1.188h38.387c-.574.427-1.161.814-1.761,1.188ZM76.948,81.231h-41.403c-.467-.387-.934-.774-1.388-1.188h44.165c-.44.4-.907.801-1.374,1.188ZM79.537,78.896h-46.58c-.387-.387-.761-.774-1.121-1.188h20.401c1.308.24,2.642.36,4.016.36s2.709-.12,4.016-.36h20.401c-.374.4-.747.801-1.134,1.188ZM83.406,74.226h-14.597c.547-.374,1.081-.761,1.588-1.188h13.783c-.254.4-.507.801-.774,1.188ZM86.929,67.235h-11.475c.24-.387.454-.787.667-1.188h11.355c-.173.4-.36.787-.547,1.188ZM88.423,62.565h-10.848c.12-.387.24-.787.347-1.188h10.728c-.067.4-.133.801-.227,1.188Z" fill="url(#d)"/>
      <path d="M68.809,74.226h14.61c.267-.387.52-.787.774-1.188h-13.797c-.52.427-1.041.814-1.588,1.188Z" fill="#fff"/>
      <path d="M42.11,73.039h-13.797c.254.4.507.801.774,1.188h14.61c-.547-.374-1.081-.761-1.588-1.188Z" fill="#fff"/>
      <path d="M38.814,83.553h34.865c.6-.374,1.188-.774,1.761-1.188h-38.387c.574.427,1.161.814,1.761,1.188Z" fill="#fff"/>
      <path d="M53.411,33.397h-21.402c-.36.387-.694.787-1.041,1.188h17.573c1.548-.574,3.189-.974,4.87-1.188Z" fill="#fff"/>
      <path d="M63.966,34.571h17.573c-.334-.4-.68-.801-1.041-1.188h-21.415c1.695.227,3.322.627,4.883,1.188Z" fill="#fff"/>
      <path d="M35.385,47.394h-11.008c-.107.387-.187.787-.28,1.188h10.861c.133-.414.28-.801.427-1.188Z" fill="#fff"/>
      <path d="M77.535,48.568h10.861c-.093-.4-.173-.787-.28-1.188h-11.008c.147.4.294.787.427,1.188Z" fill="#fff"/>
      <path d="M34.611,49.716h-4.043v1.188h3.763c.08-.4.173-.787.28-1.188Z" fill="#fff"/>
      <path d="M68.342,25.031c-.921-.36-1.855-.68-2.802-.961h-18.573c-1.147.334-2.255.734-3.349,1.188h25.338l-.614-.227Z" fill="#fff"/>
      <path d="M71.344,26.392h-30.195c-.721.374-1.414.761-2.095,1.188h34.385c-.68-.414-1.374-.814-2.095-1.188Z" fill="#fff"/>
      <path d="M78.122,31.062h-43.751c-.427.387-.854.774-1.268,1.188h46.273c-.4-.414-.814-.801-1.254-1.188Z" fill="#fff"/>
      <path d="M45.926,35.732h-15.878c-.133.173-.267.347-.387.52v.654h14.25c.654-.427,1.334-.814,2.015-1.174Z" fill="#fff"/>
      <path d="M78.269,35.732h-11.702c.694.36,1.361.761,2.015,1.188h9.687v-1.188h0Z" fill="#fff"/>
      <path d="M42.337,38.054h-9.086v1.188h7.712c.44-.414.894-.801,1.374-1.188Z" fill="#fff"/>
      <path d="M74.987,39.241v-1.188h-4.817c.48.374.934.774,1.374,1.188h3.442Z" fill="#fff"/>
      <path d="M73.719,41.576h4.55v-1.188h-5.577c.347.387.694.774,1.027,1.188Z" fill="#fff"/>
      <path d="M39.815,40.389h-4.897v1.188h3.869c.32-.414.667-.801,1.027-1.188Z" fill="#fff"/>
      <path d="M36.479,45.059h-9.487v1.188h8.9c.173-.414.374-.801.587-1.188Z" fill="#fff"/>
      <path d="M76.615,46.233h11.181c-.12-.4-.24-.787-.36-1.188h-11.408c.2.4.4.787.587,1.188Z" fill="#fff"/>
      <path d="M80.497,42.724h-5.911c.267.387.534.774.774,1.188h5.137v-1.188Z" fill="#fff"/>
      <path d="M32.143,42.724v1.188h5.004c.254-.4.507-.801.774-1.188h-5.777Z" fill="#fff"/>
      <path d="M34.104,52.051h-2.122v1.188h1.975c.04-.4.093-.787.147-1.188Z" fill="#fff"/>
      <path d="M33.864,54.386h-10.487c-.013.387-.027.787-.027,1.188h10.487c-.013-.4,0-.801.027-1.188Z" fill="#fff"/>
      <path d="M29.915,56.721v1.188h4.016c-.04-.387-.067-.787-.08-1.188h-3.936Z" fill="#fff"/>
      <path d="M27.446,60.23h6.845c-.08-.387-.147-.787-.213-1.188h-6.631v1.188Z" fill="#fff"/>
      <path d="M77.589,62.565h10.834c.08-.387.16-.787.227-1.188h-10.728c-.093.4-.213.801-.334,1.188Z" fill="#fff"/>
      <path d="M34.571,61.377h-2.335v1.188h2.682c-.133-.387-.24-.787-.347-1.188Z" fill="#fff"/>
      <path d="M35.319,63.712h-10.981c.107.4.213.787.334,1.188h11.141c-.173-.387-.334-.787-.494-1.188Z" fill="#fff"/>
      <path d="M80.684,64.9v-1.188h-3.509c-.16.4-.32.801-.494,1.188h4.003Z" fill="#fff"/>
      <path d="M75.454,67.235h11.475c.2-.387.374-.787.56-1.188h-11.355c-.227.4-.454.801-.68,1.188Z" fill="#fff"/>
      <path d="M34.892,66.047v1.188h2.162c-.24-.387-.454-.787-.667-1.188h-1.494Z" fill="#fff"/>
      <path d="M79.003,68.382h-4.296c-.28.4-.574.801-.881,1.188h5.177v-1.188Z" fill="#fff"/>
      <path d="M32.143,69.57h6.525c-.307-.387-.6-.774-.881-1.188h-5.657v1.188h.013Z" fill="#fff"/>
      <path d="M39.642,70.717h-12.649c.2.4.427.787.64,1.188h13.169c-.4-.387-.787-.787-1.161-1.188Z" fill="#fff"/>
      <path d="M78.269,70.717h-5.404c-.374.414-.761.801-1.161,1.188h6.565v-1.188Z" fill="#fff"/>
      <path d="M45.593,75.374h-15.678c.307.4.614.801.934,1.188h17.306c-.881-.347-1.735-.734-2.562-1.188Z" fill="#fff"/>
      <path d="M74.974,76.561v-1.188h-8.059c-.827.44-1.681.841-2.562,1.188h10.621Z" fill="#fff"/>
      <path d="M56.254,78.069c-1.374,0-2.709-.12-4.016-.36h-20.401c.36.4.734.801,1.121,1.188h46.58c.387-.387.761-.774,1.121-1.188h-20.401c-1.294.24-2.642.36-4.003.36Z" fill="#fff"/>
      <path d="M35.545,81.231h41.403c.467-.387.934-.774,1.388-1.188h-44.165c.454.4.907.801,1.374,1.188Z" fill="#fff"/>
      <path d="M51.61,88.223h9.287c1.801-.254,3.549-.654,5.244-1.188h-19.774c1.695.534,3.442.934,5.244,1.188Z" fill="#fff"/>
      <path d="M43.271,85.888h25.952c.841-.36,1.668-.761,2.468-1.188h-30.889c.801.44,1.628.827,2.468,1.188Z" fill="#fff"/>
      <path d="M56.254,22.576c-1.254,0-3.869.213-5.004.494h10.02c-1.147-.28-3.763-.494-5.017-.494Z" fill="#fff"/>
      <path d="M44.031,29.915h32.743c-.52-.4-1.081-.814-1.574-1.188h-31.169v1.188Z" fill="#fff"/>
    </g>
  </g>
</svg>