<?xml version="1.0" encoding="UTF-8"?><svg id="Layer_2" xmlns="http://www.w3.org/2000/svg" viewBox="0 0 141.68 58.81"><defs><style>.cls-1,.cls-2{fill:#fff;}.cls-3{fill:#fd4f4f;}.cls-4{fill:#222;}.cls-5{fill:#39f;}.cls-6{fill:#23e843;}.cls-6,.cls-2{fill-rule:evenodd;}</style></defs><g id="art"><path class="cls-1" d="m30.39,1.2c3.51,0,6.81,1.37,9.3,3.85,2.14,2.15,3.45,4.9,3.76,7.87,1.04,1.11,1.64,2.53,1.73,4.06.03.52-.01,1.03-.11,1.53,1.14.25,2.17.81,2.99,1.59,1.12-1.07,2.64-1.74,4.31-1.74,2.14,0,4.03,1.08,5.16,2.73,2.5-1.8,5.08-2.73,7.67-2.73h.9c2.66,0,5.33.99,7.95,2.94l.11.08.09.08c.73.61,1.29,1.22,1.72,1.87.31.47.55.95.72,1.44,1.41-.69,2.99-1.09,4.66-1.09,2.97,0,5.65,1.22,7.59,3.18.03-.03.05-.06.08-.09,2.01-1.95,4.65-3.07,7.24-3.07,1.58,0,3,.29,4.33.89,1.33-.58,2.74-.89,4.15-.89,2.92,0,5.56,1.15,7.48,3.01,1.85-1.71,4.28-2.79,6.86-2.79,2.3,0,4.68.72,6.62,2,.03-.03.06-.07.1-.1,1.54-1.43,3.65-2.22,5.94-2.22,1.36,0,2.36.17,3.16.34,2.69.56,4.63,2.96,4.63,5.69,0,.87-.19,1.69-.52,2.42.85,1.15,1.35,2.55,1.45,4.11v.12s.01.23.01.23c0,3.41-1.49,5.42-2.74,6.51-1.56,1.36-3.65,2.08-6.07,2.08-1.13,0-2.24-.11-3.49-.34-.53-.1-1.03-.29-1.49-.52-.94.51-2.03.8-3.19.8h-4.42c-2.09,0-4.03-.67-5.65-1.81-.14.13-.28.26-.44.37-1.12.85-2.56,1.32-4.04,1.32s-2.86-.47-3.98-1.33c-.06-.05-.12-.09-.18-.14-.07.06-.14.11-.22.17-1.12.84-2.55,1.3-4.02,1.3s-2.86-.47-3.98-1.33c-.06-.05-.13-.1-.19-.15-.06.05-.11.09-.17.14-1.12.87-2.56,1.34-4.05,1.34-1.13,0-2.23-.28-3.19-.79-.93.56-2.02.88-3.18.88-.66,0-1.3-.1-1.91-.3-.82.2-1.66.3-2.51.3-2.24,0-4.32-.7-6.04-1.88-1.14,1.2-2.75,1.96-4.53,1.96-.69,0-1.36-.11-2-.33-.99.24-1.87.36-2.68.36h-.9c-2.75,0-5.31-.93-7.67-2.77-1.13,1.65-3.02,2.73-5.16,2.73-1.67,0-3.19-.66-4.31-1.74-1.12,1.07-2.64,1.74-4.31,1.74-2.04,0-3.85-.99-4.99-2.5-1.42,1.2-3.16,2.03-5.07,2.35-.35,3.12-3,5.55-6.21,5.55-3.45,0-6.25-2.8-6.25-6.25v-.94c-1.96,1.13-4.23,1.79-6.65,1.79-7.38,0-13.38-6-13.38-13.38s6-13.38,13.38-13.38c.45,0,.89.03,1.32.07-.32-1.85.16-3.8,1.42-5.28.59-6.69,6.23-11.96,13.08-11.96m0-1.2c-7.23,0-13.41,5.54-14.24,12.69-.99,1.29-1.53,2.86-1.55,4.48,0,0-.02,0-.03,0C6.54,17.17,0,23.71,0,31.74s6.54,14.57,14.57,14.57c1.89,0,3.76-.37,5.51-1.09.47,3.66,3.6,6.49,7.39,6.49,3.5,0,6.47-2.41,7.25-5.74,1.38-.34,2.69-.93,3.87-1.74,1.38,1.33,3.2,2.08,5.15,2.08,1.56,0,3.06-.49,4.31-1.38,1.26.9,2.75,1.38,4.31,1.38,2.04,0,3.98-.84,5.37-2.3,2.32,1.55,4.82,2.33,7.46,2.33h.9c.82,0,1.68-.1,2.64-.32.66.19,1.35.28,2.04.28,1.72,0,3.35-.58,4.67-1.65,1.79,1.03,3.82,1.58,5.9,1.58.84,0,1.67-.09,2.47-.26.63.17,1.29.26,1.95.26,1.11,0,2.21-.25,3.21-.74.98.42,2.06.64,3.16.64,1.52,0,3-.42,4.23-1.2,1.23.78,2.69,1.2,4.17,1.2s3-.42,4.24-1.19c1.23.77,2.68,1.19,4.16,1.19,1.66,0,3.27-.5,4.56-1.42,1.7,1,3.61,1.53,5.57,1.53h4.42c1.11,0,2.21-.23,3.21-.68.43.17.84.3,1.25.37,1.32.25,2.5.36,3.71.36,2.71,0,5.08-.82,6.86-2.37,1.44-1.25,3.15-3.56,3.15-7.42v-.36s-.02-.1-.02-.1c-.1-1.52-.55-2.94-1.29-4.15.25-.73.37-1.49.37-2.27,0-3.3-2.35-6.18-5.59-6.86-.86-.18-1.94-.36-3.41-.36-2.32,0-4.48.72-6.17,2.04-1.98-1.11-4.25-1.72-6.49-1.72-2.44,0-4.83.85-6.85,2.4-2.11-1.7-4.73-2.63-7.49-2.63-1.4,0-2.8.26-4.14.79-1.34-.53-2.77-.79-4.34-.79-2.58,0-5.2.99-7.32,2.73-2.13-1.78-4.78-2.75-7.59-2.75-1.39,0-2.75.24-4.05.72-.1-.19-.22-.37-.33-.55-.5-.74-1.13-1.43-1.94-2.12l-.09-.08-.03-.02-.03-.02-.11-.08c-2.83-2.11-5.75-3.18-8.67-3.18h-.9c-2.51,0-5.01.78-7.44,2.32-1.4-1.47-3.34-2.32-5.4-2.32-1.56,0-3.06.49-4.31,1.38-.52-.37-1.09-.67-1.68-.9.01-.25.01-.49,0-.73-.09-1.66-.72-3.25-1.78-4.51-.41-3.12-1.81-5.95-4.06-8.21-2.71-2.71-6.31-4.21-10.15-4.21h0Z"/><path class="cls-4" d="m140.46,36.18c-.1-1.56-.6-2.96-1.45-4.11.34-.73.52-1.55.52-2.42,0-2.73-1.95-5.13-4.63-5.69-.8-.17-1.8-.34-3.16-.34-2.29,0-4.4.79-5.94,2.22-.03.03-.06.07-.1.1-1.94-1.28-4.31-2-6.62-2-2.59,0-5.01,1.08-6.86,2.79-1.92-1.86-4.56-3.01-7.48-3.01-1.41,0-2.82.31-4.15.89-1.33-.6-2.75-.89-4.33-.89-2.59,0-5.23,1.12-7.24,3.07-.03.03-.05.06-.08.09-1.94-1.96-4.62-3.18-7.59-3.18-1.67,0-3.25.4-4.66,1.09-.17-.49-.41-.98-.72-1.44-.43-.65-1-1.26-1.72-1.87l-.09-.08-.11-.08c-2.62-1.95-5.29-2.94-7.95-2.94h-.9c-2.59,0-5.17.92-7.67,2.73-1.13-1.65-3.02-2.73-5.16-2.73-1.67,0-3.19.66-4.31,1.74-.82-.78-1.85-1.34-2.99-1.59.09-.5.13-1.01.11-1.53-.08-1.53-.69-2.95-1.73-4.06-.31-2.97-1.62-5.73-3.76-7.87-2.48-2.48-5.78-3.85-9.3-3.85-6.85,0-12.49,5.27-13.08,11.96-1.26,1.48-1.74,3.43-1.42,5.28-.44-.04-.88-.07-1.32-.07-7.38,0-13.38,6-13.38,13.38s6,13.38,13.38,13.38c2.42,0,4.69-.66,6.65-1.79v.94c0,3.45,2.8,6.25,6.25,6.25,3.21,0,5.86-2.43,6.21-5.55,1.91-.32,3.65-1.16,5.07-2.35,1.14,1.52,2.95,2.5,4.99,2.5,1.67,0,3.19-.66,4.31-1.74,1.12,1.07,2.64,1.74,4.31,1.74,2.14,0,4.03-1.08,5.16-2.73,2.36,1.83,4.93,2.77,7.67,2.77h.9c.81,0,1.69-.12,2.68-.36.64.21,1.31.33,2,.33,1.78,0,3.39-.75,4.53-1.96,1.72,1.18,3.8,1.88,6.04,1.88.86,0,1.7-.1,2.51-.3.61.2,1.25.3,1.91.3,1.16,0,2.25-.33,3.18-.88.95.51,2.05.79,3.19.79,1.49,0,2.93-.48,4.05-1.34.06-.05.12-.09.17-.14.06.05.13.1.19.15,1.12.86,2.54,1.33,3.98,1.33s2.9-.46,4.02-1.3c.07-.06.15-.11.22-.17.06.05.12.1.18.14,1.12.86,2.54,1.33,3.98,1.33s2.92-.47,4.04-1.32c.15-.12.3-.24.44-.37,1.62,1.14,3.56,1.81,5.65,1.81h4.42c1.16,0,2.25-.29,3.19-.8.47.23.96.42,1.49.52,1.25.23,2.35.34,3.49.34,2.41,0,4.51-.72,6.07-2.08,1.25-1.09,2.74-3.11,2.74-6.51v-.35Z"/><path class="cls-2" d="m49.77,49.08c-2.09,0-3.78,1.69-3.78,3.78s1.69,3.78,3.78,3.78,3.78-1.69,3.78-3.78-1.69-3.78-3.78-3.78Zm0,5.53c-.97,0-1.76-.79-1.76-1.76s.79-1.76,1.76-1.76,1.76.79,1.76,1.76-.79,1.76-1.76,1.76Z"/><path class="cls-2" d="m56.75,51.25c-1.49,0-2.69,1.2-2.69,2.69,0,.08,0,.17.01.25,0,.05-.01.09-.01.14v3.57c0,.5.41.91.91.91s.91-.41.91-.91v-1.42c.27.09.57.15.88.15,1.49,0,2.69-1.2,2.69-2.69s-1.2-2.69-2.69-2.69Zm.03,3.63c-.5,0-.91-.41-.91-.91s.41-.91.91-.91.91.41.91.91-.41.91-.91.91Z"/><path class="cls-2" d="m62.59,51.25h-.15v-1.27c0-.5-.41-.91-.91-.91s-.91.41-.91.91v1.27h-.15c-.5,0-.91.41-.91.91s.41.91.91.91h.15v2.66c0,.5.41.91.91.91s.91-.41.91-.91v-2.66h.15c.5,0,.91-.41.91-.91s-.41-.91-.91-.91Z"/><path class="cls-2" d="m65,49.08c-.5,0-.91.41-.91.91s.41.91.91.91.91-.41.91-.91-.41-.91-.91-.91Z"/><path class="cls-2" d="m65,51.19c-.5,0-.91.41-.91.91v3.63c0,.5.41.91.91.91s.91-.41.91-.91v-3.63c0-.5-.41-.91-.91-.91Z"/><path class="cls-2" d="m68.33,51.38c0-.52.34-.55.86-.55.22,0,.39.02.55.04.54.1,1.04-.26,1.04-.82,0-.4-.27-.75-.66-.83-.42-.09-.78-.15-1.29-.15-1.35,0-2.35.86-2.35,2.39.12,2.47,2.99,1.74,2.99,2.9,0,.38-.26.57-.89.57-.34,0-.63-.04-.93-.11-.54-.12-1.04.27-1.04.82,0,.4.27.75.66.82.51.1.99.16,1.53.16,1.48,0,2.52-.74,2.52-2.5-.12-2.45-2.99-1.6-2.99-2.75Z"/><path class="cls-2" d="m79.02,51.6c-.46-.2-.99,0-1.2.46l-.76,1.71-.76-1.71c-.15-.34-.48-.54-.83-.54-.35,0-.68.2-.83.54l-.76,1.71-.76-1.71c-.2-.46-.74-.66-1.2-.46-.46.2-.66.74-.46,1.2l1.59,3.56c.15.34.48.54.83.54.35,0,.68-.2.83-.54l.76-1.71.76,1.71c.15.34.48.54.83.54.35,0,.68-.2.83-.54l1.59-3.56c.2-.46,0-.99-.46-1.2Z"/><path class="cls-2" d="m82.4,51.25c-1.49,0-2.69,1.2-2.69,2.69s1.2,2.69,2.69,2.69c.41,0,.8-.09,1.15-.26.16.16.39.26.63.26.5,0,.91-.41.91-.91v-1.75h0s0-.03,0-.03c0-1.49-1.2-2.69-2.69-2.69Zm.03,3.63c-.5,0-.91-.41-.91-.91s.41-.91.91-.91.91.41.91.91-.41.91-.91.91Z"/><path class="cls-2" d="m88.44,51.25c-1.49,0-2.69,1.2-2.69,2.69,0,.08,0,.17.01.25,0,.05-.01.09-.01.14v3.57c0,.5.41.91.91.91s.91-.41.91-.91v-1.42c.27.09.57.15.88.15,1.49,0,2.69-1.2,2.69-2.69s-1.2-2.69-2.69-2.69Zm.03,3.63c-.5,0-.91-.41-.91-.91s.41-.91.91-.91.91.41.91.91-.41.91-.91.91Z"/><path class="cls-2" d="m95.83,49.08c-1.49,0-2.69,1.2-2.69,2.69,0,.08,0,.17.01.25,0,.05-.01.09-.01.14v3.57c0,.5.41.91.91.91s.91-.41.91-.91v-1.42c.27.09.57.15.88.15,1.49,0,2.69-1.2,2.69-2.69s-1.2-2.69-2.69-2.69Zm.03,3.63c-.5,0-.91-.41-.91-.91s.41-.91.91-.91.91.41.91.91-.41.91-.91.91Z"/><path class="cls-2" d="m101.41,51.25c-.3,0-.71.04-1.11.21-.4.18-.88.49-1.19,1.02-.29.49-.35,1.17-.38,1.68-.02.4-.02.84-.01,1.23,0,.13,0,.22,0,.34,0,.5.41.91.91.91s.91-.41.91-.91c0-.15,0-.26,0-.4,0-.37,0-.73.01-1.07.03-.59.16-1.13.87-1.19.5-.05.91-.41.91-.91s-.41-.91-.91-.91Z"/><path class="cls-2" d="m105.18,51.25c-1.49,0-2.69,1.2-2.69,2.69s1.2,2.69,2.69,2.69,2.69-1.2,2.69-2.69-1.2-2.69-2.69-2.69Zm.03,3.63c-.5,0-.91-.41-.91-.91s.41-.91.91-.91.91.41.91.91-.41.91-.91.91Z"/><path class="cls-3" d="m37.79,51.05c-.23,0-.44.04-.65.11v-1.04c0-.37-.3-.67-.67-.67s-.67.3-.67.67v2.62s0,.07,0,.11c0,.06,0,.12,0,.18,0,1.09.89,1.98,1.98,1.98s1.98-.89,1.98-1.98-.89-1.98-1.98-1.98Zm.02,2.62c-.37,0-.67-.3-.67-.67s.3-.67.67-.67.67.3.67.67-.3.67-.67.67Z"/><path class="cls-3" d="m43.19,51.08c-.31,0-.62.32-.62.56v1.13c0,.42-.3.83-.66.83s-.59-.4-.59-.83v-1.13c.01-.24-.26-.56-.65-.56-.35,0-.62.32-.62.56v1.43c0,1.17,1.34,2.15,2.45,1.73h.02c0,.39-.66.35-.89.48-.26.14-.39.48-.32.66.29.74,1.14.53,1.68.22.57-.44.86-.94.86-1.5v-3.02c0-.24-.31-.56-.67-.56Z"/><path class="cls-5" d="m14.57,22.37c-5.18,0-9.38,4.2-9.38,9.38s4.2,9.38,9.38,9.38,9.38-4.2,9.38-9.38-4.2-9.38-9.38-9.38Zm0,13.73c-2.41,0-4.36-1.95-4.36-4.36s1.95-4.36,4.36-4.36,4.36,1.95,4.36,4.36-1.95,4.36-4.36,4.36Z"/><path class="cls-5" d="m31.9,27.77c-3.69,0-6.67,2.99-6.67,6.67,0,.21,0,.41.03.62-.02.12-.03.24-.03.36v8.85c0,1.24,1.01,2.25,2.25,2.25s2.25-1.01,2.25-2.25v-3.51c.68.23,1.41.36,2.17.36,3.69,0,6.67-2.99,6.67-6.68s-2.99-6.67-6.67-6.67Zm.08,9c-1.24,0-2.25-1.01-2.25-2.25s1.01-2.25,2.25-2.25,2.25,1.01,2.25,2.25-1.01,2.25-2.25,2.25Z"/><path class="cls-5" d="m46.37,27.77h-.38v-3.15c0-1.24-1.01-2.25-2.25-2.25s-2.25,1.01-2.25,2.25v3.15h-.38c-1.24,0-2.25,1.01-2.25,2.25s1.01,2.25,2.25,2.25h.38v6.6c0,1.24,1.01,2.25,2.25,2.25s2.25-1.01,2.25-2.25v-6.6h.38c1.24,0,2.25-1.01,2.25-2.25s-1.01-2.25-2.25-2.25Z"/><path class="cls-5" d="m52.37,26.87c1.24,0,2.25-1.01,2.25-2.25s-1.01-2.25-2.25-2.25-2.25,1.01-2.25,2.25,1.01,2.25,2.25,2.25Z"/><path class="cls-5" d="m52.37,27.62c-1.24,0-2.25,1.01-2.25,2.25v9c0,1.24,1.01,2.25,2.25,2.25s2.25-1.01,2.25-2.25v-9c0-1.24-1.01-2.25-2.25-2.25Z"/><path class="cls-6" d="m70.79,30.69h-4.5c-1.24,0-2.25,1.01-2.25,2.25s1.01,2.25,2.25,2.25h2.15c-.87.66-1.73.98-2.57.98h-.42l-.95-.1c-1.11-.43-1.92-.99-2.45-1.68-.54-.69-.81-1.52-.81-2.52v-.22c0-.69.17-1.34.5-1.96.97-1.59,2.2-2.34,3.69-2.34h.44c.8,0,1.59.27,2.37.82.78.76,1.56,1.2,2.32,1.2h.03l.34-.06h.01c.65-.18,1.17-.45,1.53-.84.37-.4.55-.89.55-1.46v-.41c0-.35-.14-.7-.36-1.04-.23-.34-.56-.69-.98-1.04h0s0-.01,0-.01c-1.89-1.41-3.74-2.14-5.55-2.14h-.9c-1.84,0-3.7.73-5.58,2.14h-.01s-.01.02-.01.02c-2.21,2.06-3.35,4.33-3.35,6.79v.87c0,1.86.73,3.72,2.14,5.58h.01s.01.03.01.03c2.08,2.21,4.35,3.35,6.79,3.35h.9c.8,0,1.82-.22,3.06-.65h.02s.02-.02.02-.02c0,0,.01,0,.02,0,.41.39.96.63,1.57.63,1.24,0,2.25-1.01,2.25-2.25v-5.93c0-1.24-1.01-2.25-2.25-2.25Z"/><path class="cls-6" d="m81.36,27.69c-3.69,0-6.67,2.99-6.67,6.68s2.99,6.67,6.67,6.67c1.02,0,1.99-.23,2.85-.64.41.4.96.64,1.57.64,1.24,0,2.25-1.01,2.25-2.25v-4.38s0-.05,0-.05c0-3.69-2.99-6.68-6.67-6.68Zm.08,9c-1.24,0-2.25-1.01-2.25-2.25s1.01-2.25,2.25-2.25,2.25,1.01,2.25,2.25-1.01,2.25-2.25,2.25Z"/><path class="cls-6" d="m104.74,27.71c-1.37,0-2.9.52-4.19,1.54-1.33-1.08-2.57-1.54-4.29-1.54s-3.25.78-4.45,1.94c-1.2,1.16-2.01,2.74-2.01,4.36v4.85c0,.69.3,1.22.75,1.57.44.35,1.03.51,1.61.51s1.16-.16,1.61-.51c.45-.35.75-.88.75-1.57v-4.79c0-.53.22-.93.54-1.19.33-.27.77-.41,1.2-.41.49,0,.99.14,1.36.42.36.27.6.66.6,1.18v4.8s0,0,0,0c0,.7.32,1.23.78,1.57.45.34,1.02.51,1.55.51.57,0,1.17-.16,1.63-.51.47-.35.78-.88.78-1.58v-4.79c0-.52.26-.92.61-1.19.36-.28.82-.42,1.16-.42.41,0,.89.14,1.26.42.37.27.62.67.62,1.18v4.8c0,.7.32,1.23.77,1.57.45.34,1.03.51,1.56.51.58,0,1.17-.16,1.62-.51.46-.35.77-.88.77-1.57v-4.85c0-3.61-3.18-6.31-6.59-6.31Z"/><path class="cls-6" d="m123.5,36.7c.24-.26.51-.51.76-.75.84-.78,1.63-1.51,1.63-2.81,0-2.45-2.77-5.21-6.81-5.21-3.23,0-6.26,3.04-6.26,6.24,0,3.46,2.55,6.88,6.26,6.88h4.42c1.19,0,2.45-.87,2.45-2.08,0-1.55-1.03-2.28-2.45-2.28Zm-5.31-.52c-.51-.39-.84-1.02-.84-1.71,0-1.19.97-2.16,2.16-2.16.68,0,1.29.32,1.68.81l-3,3.06Z"/><path class="cls-6" d="m136.47,36.51c-.05-1.12-.44-1.9-1.02-2.45-.57-.54-1.28-.83-1.95-1.03-.24-.08-.49-.14-.72-.21-.08-.02-.16-.04-.24-.06-.3-.08-.56-.16-.77-.25-.22-.09-.36-.18-.44-.28-.08-.09-.12-.19-.12-.34,0-.18.03-.28.06-.33.03-.05.07-.09.14-.12.18-.08.47-.11.94-.11.37,0,.65.03.91.07,1.13.19,2.27-.53,2.27-1.75,0-.85-.6-1.6-1.46-1.78-.75-.16-1.43-.25-2.34-.25-1.27,0-2.4.39-3.22,1.15-.82.77-1.3,1.88-1.3,3.25h0v.02c.05,1.13.44,1.92,1.02,2.5.56.56,1.28.88,1.94,1.12.24.09.49.16.71.24.08.03.16.05.24.08.3.1.56.19.77.29.22.1.36.2.45.31.08.1.13.2.13.36,0,.22-.07.33-.19.41-.16.1-.47.18-1,.18s-1.06-.07-1.55-.17c-1.14-.23-2.29.55-2.29,1.75,0,.85.61,1.59,1.47,1.76.9.17,1.78.27,2.75.27,1.36,0,2.56-.33,3.44-1.09.88-.77,1.37-1.94,1.37-3.5h0s0-.02,0-.02Z"/><path class="cls-1" d="m40.38,15.51c-.26-.23-.56-.4-.88-.51.02-.22.03-.44.03-.67,0-5.04-4.09-9.13-9.13-9.13s-9.13,4.09-9.13,9.13c0,.25.02.49.04.74-.25.1-.49.24-.7.43-1.01.91-1.08,2.45-.18,3.46,2.67,2.97,6.25,4.61,10.07,4.61s7.4-1.64,10.07-4.61c.91-1.01.82-2.55-.18-3.46Z"/><path class="cls-4" d="m32.9,14.35c-.68.75-1.57,1.16-2.5,1.16s-1.83-.41-2.5-1.16c-.35-.39-.95-.42-1.34-.07-.39.35-.42.95-.07,1.34,1.04,1.16,2.43,1.79,3.92,1.79s2.88-.64,3.92-1.79c.35-.39.32-.99-.07-1.34-.39-.35-.99-.32-1.34.07Z"/><path class="cls-4" d="m26.7,11.68h.58v.58c0,.32.26.58.58.58s.58-.26.58-.58v-.58h.58c.32,0,.58-.26.58-.58s-.26-.58-.58-.58h-.58v-.58c0-.32-.26-.58-.58-.58s-.58.26-.58.58v.58h-.58c-.32,0-.58.26-.58.58s.26.58.58.58Z"/><path class="cls-4" d="m33.34,12.64c.84,0,1.53-.68,1.53-1.53s-.68-1.53-1.53-1.53-1.53.68-1.53,1.53.68,1.53,1.53,1.53Z"/></g></svg>