<?xml version="1.0" encoding="UTF-8"?>
<svg id="_레이어_2" data-name="레이어 2" xmlns="http://www.w3.org/2000/svg" viewBox="0 0 137.73 151.48">
  <defs>
    <style>
      .cls-1 {
        fill: #04c7fe;
      }

      .cls-1, .cls-2 {
        stroke-width: 0px;
      }

      .cls-2 {
        fill: #f6b915;
      }
    </style>
  </defs>
  <g id="_레이어_1-2" data-name="레이어 1">
    <g>
      <polygon class="cls-2" points="72.33 69.37 119.4 0 76.59 0 35.38 87.63 62.7 87.63 18.32 151.48 106.67 71.54 72.33 69.37"/>
      <path class="cls-1" d="M27.87,131.08h0s0,0,0,0l6.46-8.86,18.91-25.94-25.73,19.97c-10.23-10.44-16.54-24.74-16.54-40.51,0-27.7,19.45-50.84,45.44-56.54l-24.86,67.06L64.38,18.03l5.36-11.14,3.32-6.89-7.43,6.96C29.1,8.65,0,38.8,0,75.74c0,22.67,10.96,42.79,27.87,55.33Z"/>
      <path class="cls-1" d="M116.96,26.46c-1.87-1.82-3.84-3.54-5.9-5.14l-6.4,8.93-25.34,35.37,32.27-28.95c9.43,10.3,15.18,24.01,15.18,39.08,0,31.98-25.92,57.9-57.9,57.9-7.38,0-14.44-1.39-20.93-3.91l-8.94,7.87s0,0,0,0l-15.47,13.72,20.61-11.31c7.68,2.96,16.02,4.58,24.74,4.58,38.03,0,68.86-30.83,68.86-68.86,0-19.32-7.96-36.78-20.77-49.28Z"/>
    </g>
  </g>
</svg>