<svg width="112" height="112" viewBox="0 0 112 112" fill="none" xmlns="http://www.w3.org/2000/svg">
<path d="M73.9594 76.8784C78.419 79.0525 83.0738 80.7666 87.8887 81.7073C93.2124 82.7386 99.2607 82.8222 103.741 79.2964C107.79 76.105 109.406 70.3911 108.145 65.4646C106.138 57.6394 98.0483 54.1066 90.5924 53.793C80.9554 53.3889 72.6912 57.3259 64.5176 61.8273C60.4204 64.0849 58.3299 65.3671 58.3299 65.3671C54.8389 62.6913 50.1633 58.824 50.1633 58.824C50.1633 58.824 52.839 56.9774 53.0969 56.7893C54.5184 55.7371 56.0583 54.5386 57.438 53.4307C60.1904 51.2078 62.8383 48.8874 65.3886 46.4416C67.5836 44.3373 69.7995 42.0447 71.1583 39.2854C72.9421 35.6689 72.2523 30.1083 67.3746 29.6972C64.0995 29.4185 60.6852 31.4462 58.3439 33.5645C57.0617 34.7212 55.8771 36.1288 55.0131 37.6339C54.4208 35.1742 52.0238 32.6656 49.3898 32.3869C48.038 32.2406 46.6095 32.5542 45.5574 33.4112C43.8432 34.8118 43.4808 37.2994 43.7387 39.4944C44.2682 44.0098 46.6722 48.9014 50.8392 51.1033C51.6614 51.5353 52.7485 51.8559 53.7937 51.6399C53.5568 51.6259 53.3129 51.5423 53.0899 51.4238C48.5745 49.0617 45.5295 44.602 45.3483 39.4596C45.2856 37.5782 45.7455 35.4181 47.9892 34.9373C48.4422 34.8397 48.923 34.8467 49.3829 34.9163C52.1213 35.3553 54.3581 37.3552 54.6786 40.0797C56.5809 37.5224 58.5738 35.3484 61.3611 33.8084C62.7826 33.021 64.427 32.4984 66.0436 32.6308C67.0192 32.7144 67.9878 33.0768 68.6706 33.7736C69.5486 34.6794 69.7786 36.0661 69.5347 37.3064C69.2908 38.5467 68.6358 39.6616 67.9529 40.7138C64.7964 45.5637 60.4273 49.4379 56.0444 53.0056C54.1351 54.5595 51.9402 55.981 49.9194 57.3886C49.8358 57.4443 49.2156 57.8415 49.125 57.9042C47.8429 56.9008 46.6235 55.8556 45.2298 55.0055C41.272 52.5875 36.7845 51.2775 32.1646 52.0719C30.4435 52.3645 28.8338 53.2913 28.0116 54.88C26.5971 57.5976 28.0116 60.5382 30.4017 62.0851C32.9102 63.7017 35.6974 63.7505 38.5962 63.4439C41.6413 63.1233 44.2613 62.3359 47.1391 60.7124C47.8638 60.3012 48.6721 59.8065 48.6721 59.8065C51.097 61.6461 54.5811 64.2313 57.0966 66.1196C55.2221 67.2763 53.3826 68.4191 51.4663 69.5201C43.2857 74.2236 35.3212 78.9619 25.6006 79.2058C19.0924 79.366 12.9117 78.3835 8.36148 73.039C5.72753 69.9521 5.9087 65.2347 8.49387 62.1269C9.05132 61.458 9.68542 60.8517 10.6749 59.7995C4.36874 61.9597 1.12856 68.9417 5.32338 74.7183C6.82152 76.7739 9.1001 78.7041 11.4484 79.6239C20.4024 83.1358 29.6421 82.3972 38.3662 79.1222C44.756 76.7251 53.1456 71.3248 58.9989 67.7153C63.6745 71.06 68.6776 74.2932 73.9594 76.8715V76.8784ZM34.1087 61.8412C31.5793 61.451 30.3808 59.2212 30.6734 57.4095C31.0427 55.1518 32.8196 54.4201 34.7498 54.2738C38.1293 54.016 43.453 55.6605 47.4387 58.9006C47.4387 58.9006 41.265 62.9422 34.1087 61.8412ZM60.281 66.8792C63.0055 65.158 67.7299 62.6356 71.1861 61.0399C78.8859 57.4861 88.5019 54.1554 96.8497 57.6673C101.916 59.7995 105.274 64.9908 103.699 70.5235C101.783 77.2756 94.39 79.2894 88.1466 78.6274C82.0564 77.9794 75.8478 75.7844 70.4196 73.025C66.9216 71.2482 63.34 69.3598 60.281 66.8792Z" fill="black"/>
</svg>
