<svg width="1622" height="595" viewBox="0 0 1622 595" fill="none" xmlns="http://www.w3.org/2000/svg">
<g clip-path="url(#clip0_8279_42686)">
<path d="M2193 0H0V595.3H2193V0Z" fill="white"/>
<path d="M930.4 322.3L739.8 92.6001H607.1V479.4H720.5V226.2L930.5 479.2V479.6H1043.9V92.8001H930.4V322.3Z" fill="black"/>
<path d="M180.8 92.6001H53L252.1 479.4L252.2 479.6H379.8L379.9 479.4L180.8 92.6001Z" fill="black"/>
<path d="M351.6 286.1L415.5 410.3L578.9 92.6001H451.1L351.6 286.1Z" fill="black"/>
<path d="M1545.8 92.6001H1397.8L1345.9 155.2L1417.7 241.8L1545.8 92.6001Z" fill="#CEC5A3"/>
<path d="M1076.8 92.6001L1242.9 286L1076.8 479.6H1224.8L1311.3 375.3L1397.7 479.6H1545.6L1224.4 92.6001H1076.8V92.6001Z" fill="black"/>
</g>
<defs>
<clipPath id="clip0_8279_42686">
<rect width="1622" height="595" fill="white"/>
</clipPath>
</defs>
</svg>
