<svg width="128" height="128" viewBox="0 0 64 64" xml:space="preserve" xmlns="http://www.w3.org/2000/svg"><defs><linearGradient id="a"><stop offset="0" stop-color="#12afa4"/><stop offset=".25" stop-color="#12a5a8"/><stop offset=".5" stop-color="#208cb6"/><stop offset="1" stop-color="#3367cc"/></linearGradient></defs><path fill="#fff" d="M0 0h64v64H0z"/><path d="m21.62 34.08 1.61-3.07a376.47 376.47 0 0 0 2.6-4.9 33.52 33.52 0 0 0 .77-1.46c.58-1.14.49-1.04.8-.85a372.37 372.37 0 0 0 2.8 1.79l-.5.94-.37.7a1495.76 1495.76 0 0 1-3.38 6.4l-.23.45-2.05.01h-2.05zm7.03 0a57.65 57.65 0 0 1 1.18-2.23 211.95 211.95 0 0 1 1.72-3.24A175.87 175.87 0 0 0 32.4 27a18.92 18.92 0 0 1 1.5.93 1823.13 1823.13 0 0 1 6.24 3.92 1611.53 1611.53 0 0 0 3.52 2.21 1060.9 1060.9 0 0 1-15.01.03zm7.1-8.11-1.36-.87c-.6-.37-.68-.44-.6-.53l.42-.78a84.34 84.34 0 0 1 .82-1.57 1571.21 1571.21 0 0 1 3.1-5.86l.08-.12 2.24-.03c1.24 0 2.27 0 2.3.02.02.01 0 .03-.03.03-.3 0-1.17.84-1.5 1.46a413.5 413.5 0 0 0-2.86 5.4 204.94 204.94 0 0 1-1.8 3.34c-.02 0-.38-.22-.8-.5zm-4.52-2.85c-.13-.1-.3-.2-.37-.24a196.74 196.74 0 0 0-4.1-2.57l-1.15-.72a605.85 605.85 0 0 1-5.13-3.24l-.21-.13h7.5c4.12 0 7.49.01 7.49.03l-.04.07-.35.65a100.74 100.74 0 0 1-1.37 2.59 186.22 186.22 0 0 1-2 3.73c-.02 0-.14-.08-.27-.17z" fill="#004fe5"/><path d="M28.21 47.94c-.76-.27-.73-1.61.05-1.83.55-.15 1.03.2 1.04.76v.19h-.67c-.72 0-.7-.01-.62.26.1.37.5.52.9.33.2-.09.22-.09.29-.02.22.22-.55.46-.99.3zm.79-1.21c0-.17-.26-.4-.45-.4-.28 0-.43.11-.54.4l-.04.11H29zm1.04 1.23c-.2-.08-.23-.2-.23-.9v-.65h-.15c-.13 0-.15-.01-.15-.1 0-.09.02-.11.1-.11.17 0 .28-.27.29-.66 0-.01.05-.03.1-.03.11 0 .11 0 .11.32v.33h.56v.25h-.56v.57c0 .74.07.86.43.7.05-.02.09 0 .12.08.08.17-.35.3-.62.2zm4.3-.02c-.77-.28-.72-1.62.07-1.83.61-.16 1.15.26 1.15.9 0 .74-.56 1.16-1.22.93zm.64-.29c.46-.36.25-1.32-.29-1.32-.36 0-.56.25-.56.7 0 .59.46.92.85.62zm-9.89-1v-1.31h.13c.11 0 .2.1.91 1.02l.79 1.02v-1.02l.02-1.02h.3v2.62l-.14-.01c-.13-.01-.21-.1-.91-1.02l-.77-1-.02 1.01v1.02h-.31zm6.04.41c-.34-1.05-.33-.96-.13-.94l.16.01.22.72.21.72.24-.72.24-.72H32.36l.24.72.23.72.1-.33.22-.72.12-.39h.16c.09-.02.16-.02.16 0l-.3.9-.3.9h-.32l-.23-.7-.24-.7-.23.67c-.27.8-.24.76-.42.76h-.13zm4.82-.03v-.92l.14.01c.12.01.14.03.15.18l.01.16.15-.17c.24-.27.64-.3.59-.03-.02.1-.05.11-.2.11-.4 0-.5.19-.5.98v.6h-.34zm1.33-.42v-1.36h.34v.8c0 .96 0 .97.5.43.32-.36.33-.37.52-.37h.2l-.4.4-.4.41.19.23.41.52.23.29h-.19c-.18 0-.18 0-.53-.45-.48-.61-.53-.61-.53 0v.45h-.34zm-8.86-3.09c-3.33-.78-2.71-5.9.71-5.9.72 0 1.97.5 1.97.78 0 .42-.6.75-.97.53-1.57-.92-3.17.6-2.55 2.42a1.71 1.71 0 0 0 2.63.9c.35-.24 1.11.14.93.47-.31.6-1.78 1.02-2.72.8zm7.55 0c-1.3-.32-1.9-1.91-1.22-3.2.78-1.47 3.28-1.24 3.77.34.56 1.79-.77 3.28-2.55 2.85zm.99-.88c.93-.42.63-2.44-.37-2.45-.65 0-.96.4-.96 1.27 0 1 .58 1.52 1.33 1.18zm3.19.91a2.9 2.9 0 0 1-1-.42c-.08-.06-.08-.07.06-.29.24-.39.35-.41.78-.2.59.3 1.19.17 1.19-.27 0-.21-.15-.32-.7-.5-1.14-.38-1.56-1.03-1.16-1.79.44-.83 2.16-1 2.82-.28.24.26-.32.66-.7.5-.6-.26-1.14-.15-1.14.24 0 .24.12.32.68.5 1 .33 1.25.57 1.24 1.2 0 .91-.93 1.5-2.07 1.31zm3.56 0a2.9 2.9 0 0 1-1-.42c-.08-.06-.08-.07.06-.29.24-.39.35-.41.78-.2.59.3 1.19.17 1.19-.27 0-.21-.15-.32-.7-.5-1.14-.38-1.56-1.03-1.16-1.79.45-.83 2.16-1 2.82-.28.24.26-.32.66-.7.5-.6-.26-1.14-.15-1.14.24 0 .24.12.32.68.5 1 .33 1.25.57 1.24 1.2 0 .91-.93 1.5-2.07 1.31zm-25.52-.32c0-.39-.05-.3 1.08-1.78.49-.64.9-1.18.9-1.2l-.95-.01h-.95v-.86H21.5l-.02.32c-.03.4.04.28-1.06 1.72l-.95 1.24.97.01.96.01v.86H18.2zm3.99-2.72V37.5h1.11V40.92h.13c.21 0 .25-.04.78-.73.64-.86.57-.82 1.28-.8h.56l-.6.78c-.34.43-.67.83-.74.9l-.12.11.1.15c.07.08.42.6.78 1.17l.65 1.02-.54.01c-.74.02-.68.06-1.25-.88-.6-.99-.6-1-.84-1h-.19v1.89h-1.11zm9.56.95v-2.08h.4c.47 0 .53.03.57.29.06.37.07.37.23.15.31-.41.96-.62 1.3-.42.29.18-.06 1.05-.42 1.05-.87 0-.96.17-.96 1.84v1.25h-1.12z"/></svg>