<svg width="128" height="128" viewBox="0 0 64 64" xml:space="preserve" xmlns="http://www.w3.org/2000/svg"><defs><linearGradient id="a"><stop offset="0" stop-color="#12afa4"/><stop offset=".25" stop-color="#12a5a8"/><stop offset=".5" stop-color="#208cb6"/><stop offset="1" stop-color="#3367cc"/></linearGradient></defs><path fill="#2d3ed4" d="M0 0h64v64H0z"/><path d="m39.94 15.35-.63.04-.63.03-7.58 7.54c-7.42 7.37-7.58 7.55-7.65 8.1l-.06.56h1.31l7.62-7.57 7.62-7.57v-1.13zm-16.52.01v1.4h4.28l-2.14 2.16-2.14 2.15v.99c0 1.28-.35 1.52 4.04-2.86l3.83-3.84h-7.87zm10.43 0-5.21 5.22-5.22 5.22v1.05c0 1.37-.65 1.9 6.47-5.22l6.27-6.27H33.85zm6.02 3.74-6.33 6.25-6.34 6.25h2.3l5.23-5.15 5.22-5.15-.04-1.1-.04-1.1zm.07 4.77-3.87 3.84c-2.13 2.11-3.9 3.86-3.93 3.87-.03.02 1.71.04 3.87.04h3.93V30.2h-2.15l-2.14-.01 2.14-2.08 2.15-2.07v-2.18zM38.9 36.74v1.92c0 1.05-.01 1.92-.03 1.92l-.74-.27c-3.72-1.43-6.75 2.05-5.41 6.2.55 1.71 2.8 2.59 4.99 1.94.35-.1.8-.3.97-.45.42-.33.45-.32.5.1.04.34.06.35.87.35h.84l.03-5.86.03-5.85h-2.05zm7.97 3.18c-.65.02-1.4.14-2.27.33l-.96.22v.77c0 .68.02.76.22.69 2.25-.87 4.77-.32 4.77 1.04v.58l-.8-.06c-3.36-.26-5.01.51-5.17 2.42-.2 2.31 2.77 3.57 5.33 2.25l.74-.38.08.36c.07.36.09.37.9.37h.84v-2.97c0-4.18-.88-5.74-3.68-5.62zm-30.43 0c-2.57-.06-4.23 1.59-4.23 4.43 0 3.58 3.1 5.42 6.57 3.9 3.1-1.34 2.8-7.05-.43-8-.68-.2-1.32-.31-1.91-.33zm11.53.07c-.94-.02-2.03.3-3.3.94-.06.03-.1-.13-.1-.34v-.4h-1.8v8.32h1.92v-6.14l.52-.32c1-.63 2.56-.74 3.2-.22.41.34.5 1.03.5 3.97v2.72l.94-.03.92-.04.04-2.88c.06-3.84-.13-4.6-1.28-5.2-.47-.24-.99-.37-1.56-.38zm-23.88.2v1.54h2.1c1.17 0 2.12.04 2.12.08 0 .05-1 1.34-2.24 2.87-2.25 2.8-2.56 3.34-2.15 3.75.05.05 1.64.07 3.55.05l3.46-.03.04-.74.04-.73-2.3-.03-2.3-.04 2.19-2.73c2.05-2.56 2.18-2.76 2.24-3.36l.06-.63H4.1zm48.75 0c-.56 0-1.01.03-1.01.07 0 .04.62.88 1.38 1.88l1.47 1.98c.07.11-.42.86-1.44 2.2a38.93 38.93 0 0 0-1.54 2.12c0 .04.42.07.94.07.55 0 1.01-.06 1.13-.16.11-.09.63-.73 1.14-1.42l.94-1.26.26.3 1.13 1.43.86 1.11h.96c.53 0 .96-.05.96-.11 0-.07-.66-1-1.47-2.07-.81-1.07-1.47-2-1.47-2.06 0-.07.66-1.01 1.47-2.1l1.47-1.98H57.9l-1 1.35a5.04 5.04 0 0 1-1.1 1.25 68.6 68.6 0 0 1-1.02-1.35l-.93-1.25h-1.01zm-16 1.26c.49-.01 1.03.13 1.58.44l.48.27v2.07c0 1.8-.03 2.1-.22 2.26-.61.54-1.72.8-2.63.62-1.09-.21-1.49-.74-1.6-2.11-.17-2.1.9-3.5 2.38-3.55zm-20.3.23c.87.04 1.75.4 2.05.99 1.34 2.58-.92 5.33-3.36 4.08-1.48-.75-1.55-3.89-.1-4.77.38-.23.9-.32 1.42-.3zm30.49 3.12h1.61l-.04.8-.03.8-.62.37c-.82.5-2.36.62-2.98.23-1.55-.98-.4-2.2 2.06-2.2z" fill="#fff"/></svg>