<svg width="128" height="128" viewBox="0 0 64 64" xml:space="preserve" xmlns="http://www.w3.org/2000/svg"><path d="M0 0h64v64H0z"/><path d="M27.17 57.15c.18-1.45 1.06-5.3 2.23-9.6 1.43-5.3 2.6-10.05 2.6-10.58 0-1.23-.7-1.22-8.24.16-2.28.42-4.4.68-5.6.83-1.59.2-1.77-1-1.22-2.16C19.36 30.7 32.93 7.38 35.46 4c.56-.75 1.6-.97 1.7.53.07 1.31-.41 3.98-1.47 8.8-2.45 11.21-2.46 11.48-.4 11.08 8.22-1.58 11.81-2.1 13.2-1.87.33.06 1.65.71.96 2.07-2.17 4.3-17.67 29.23-20.55 33.06-.76 1.02-1.86.57-1.73-.52z" fill="#fff"/></svg>