<svg xmlns="http://www.w3.org/2000/svg" width="128" height="128" fill="none"><path d="M0 0h128v128H0z" style="fill:#ddf831;stroke-width:1.1;stroke-linecap:round;fill-opacity:1"/><g fill="#1d1d1f"><path d="M14 66.25c0-3.8 3.1-6.45 7.4-6.45 3.7 0 6.1 2 6.75 4.1l-3.25 1.35a3.55 3.55 0 0 0-3.5-2.35c-2.15 0-3.75 1.25-3.75 3.35s1.6 3.35 3.75 3.35c1.8 0 3.1-1.1 3.5-2.4l3.25 1.45c-.7 2-3.05 4-6.75 4-4.3 0-7.4-2.6-7.4-6.4m20.4 6.4c-3 0-5.2-1.35-5.2-3.8 0-2.4 2.1-3.6 5-3.9l4.95-.45c0-.95-.8-1.7-2.8-1.7-1.7 0-3 .7-3.35 1.65l-3.35-.95c.75-2.2 3.5-3.7 6.85-3.7 3.95 0 6.25 1.6 6.25 4.65v7.95H39.5v-1.35c-1.15 1-2.9 1.6-5.1 1.6m4.75-5V67l-4.4.5c-1.3.1-1.95.4-1.95 1.2s.85 1.2 2.3 1.2c1.9 0 4-.8 4-2.25zm5.6-7.75c0-3.1 2.15-4.55 5.75-4.55 1.15 0 2.35.15 3.1.45l-.5 2.9a9 9 0 0 0-2.35-.3c-1.6 0-2.35.45-2.35 1.55v.1h4.5v3.1h-4.5v9.25h-3.7V59.9z"/><path d="M54.55 59.9c0-3.1 2.15-4.55 5.8-4.55 1.15 0 2.35.15 3.1.45l-.5 2.9a9 9 0 0 0-2.35-.3c-1.6 0-2.35.45-2.35 1.55v.1h4.5v3.1h-4.5v9.25h-3.7v-9.25h-2.8v-3.1h2.8zm15.75 9.8c1.65 0 3-.75 3.5-2l3.3 1.25c-.9 2.15-3.5 3.7-6.75 3.7-4.4 0-7.5-2.6-7.5-6.45 0-3.65 3.1-6.4 7.5-6.4s6.95 2.85 6.95 6.4v1H66.55c.4 1.55 1.85 2.5 3.75 2.5m-.1-7c-1.65 0-3.05.75-3.55 2.2h6.85c-.2-1-1.4-2.2-3.35-2.2zm8.7-3.9v-3.2h3.85v3.2zm3.8 1.25V72.4h-3.75V60.05Zm2.1 12.35V60.05h3.7v1.5c1-1 2.5-1.75 4.5-1.75 3.2 0 5.4 2.15 5.4 5.6v7h-3.75v-5.9c0-2.1-1-3.35-2.9-3.35-2.05 0-3.25 1.2-3.25 3.35v5.9Zm22.2-2.7c1.65 0 2.95-.75 3.5-2l3.3 1.25c-.9 2.15-3.5 3.7-6.75 3.7-4.4 0-7.5-2.6-7.5-6.45 0-3.65 3.1-6.4 7.5-6.4s6.95 2.85 6.95 6.4v1h-10.75c.4 1.55 1.85 2.5 3.75 2.5m-.1-7c-1.65 0-3.05.75-3.55 2.2h6.9c-.2-1-1.4-2.2-3.35-2.2"/></g></svg>