<svg xmlns="http://www.w3.org/2000/svg" fill="none" viewBox="0 0 200 36">
    <style>path { fill: #1d1d1f; } @media (prefers-color-scheme: dark) { path { fill: #ffffff; } }</style>
    <path fill="#1D1D1F"
          d="M0 22.5C0 14.9 6.2 9.6 14.8 9.6c7.4 0 12.2 4 13.5 8.2l-6.5 2.7a7.1 7.1 0 0 0-7-4.7c-4.3 0-7.5 2.5-7.5 6.7s3.2 6.7 7.5 6.7c3.6 0 6.2-2.2 7-4.8l6.5 2.9c-1.4 4-6.1 8-13.5 8C6.2 35.3 0 30.1 0 22.5Zm40.8 12.8c-6 0-10.4-2.7-10.4-7.6 0-4.8 4.2-7.2 10-7.8l9.9-.9c0-1.9-1.6-3.4-5.6-3.4-3.4 0-6 1.4-6.7 3.3L31.3 17c1.5-4.4 7-7.4 13.7-7.4 7.9 0 12.5 3.2 12.5 9.3v15.9H51v-2.7c-2.3 2-5.8 3.2-10.2 3.2Zm9.5-10V24l-8.8 1c-2.6.2-3.9.8-3.9 2.4 0 1.6 1.7 2.4 4.6 2.4 3.8 0 8-1.6 8-4.5ZM61.5 9.8C61.5 3.6 65.8.7 73 .7c2.3 0 4.7.3 6.2.9l-1 5.8c-1.5-.4-3-.6-4.7-.6-3.2 0-4.7.9-4.7 3.1v.2h9v6.2h-9v18.5h-7.4v-25Z"/>
    <path fill="#1D1D1F"
          d="M81.1 9.8c0-6.2 4.3-9.1 11.6-9.1 2.3 0 4.7.3 6.2.9l-1 5.8c-1.5-.4-3-.6-4.7-.6-3.2 0-4.7.9-4.7 3.1v.2h9v6.2h-9v18.5h-7.4V16.3h-5.6v-6.2h5.6v-.3Zm31.5 19.6c3.3 0 6-1.5 7-4l6.6 2.5c-1.8 4.3-7 7.4-13.5 7.4-8.8 0-15-5.2-15-12.9 0-7.3 6.2-12.8 15-12.8s13.9 5.7 13.9 12.8v2h-21.5c.8 3.1 3.7 5 7.5 5Zm-.2-14c-3.3 0-6.1 1.5-7.1 4.4H119c-.4-2-2.8-4.4-6.7-4.4Zm17.4-7.8V1.2h7.7v6.4h-7.7Zm7.6 2.5v24.7h-7.5V10.1h7.5Zm4.2 24.7V10.1h7.4v3c2-2 5-3.5 9-3.5 6.4 0 10.8 4.3 10.8 11.2v14h-7.5V23c0-4.2-2-6.7-5.8-6.7-4.1 0-6.5 2.4-6.5 6.7v11.8h-7.4Zm44.4-5.4c3.3 0 5.9-1.5 7-4l6.6 2.5c-1.8 4.3-7 7.4-13.5 7.4-8.8 0-15-5.2-15-12.9 0-7.3 6.2-12.8 15-12.8S200 15.3 200 22.4v2h-21.5c.8 3.1 3.7 5 7.5 5Zm-.2-14c-3.3 0-6.1 1.5-7.1 4.4h13.8c-.4-2-2.8-4.4-6.7-4.4Z"/>
</svg>