<svg width="974" height="1407" viewBox="0 0 974 1407" fill="none" xmlns="http://www.w3.org/2000/svg">
<g clip-path="url(#clip0_9070_7)">
<path d="M0 0H974V1407H0V0Z" fill="#FEFEFE"/>
<path d="M469.26 4.51431C497.337 2.0175 559.8 6.55955 587.063 12.0617C584.671 38.8015 579.203 72.152 575.409 99.133C568.788 145.368 562.615 191.666 556.892 238.021C554.15 260 551.168 282.002 549.567 304.097C549.326 307.418 547.825 315.875 552.432 316.464C555.301 313.738 558.241 299.026 559.433 294.501C569.905 254.754 580.233 215.55 584.719 174.64C587.223 175.289 589.721 175.963 592.212 176.661C675.935 200.129 748.606 242.875 807.733 306.982C874.292 379.586 915.175 472.038 924.105 570.135C927.271 604.146 926.454 647.364 927.285 682.149L932.162 896.736C933.797 949.553 937.657 1000.62 954.966 1051.04C960.269 1066.51 962.467 1073.81 970.538 1088.18C968.986 1090.1 967.097 1091.9 965.441 1093.76C922.367 1142.3 874.079 1188.61 825.722 1231.86C790.595 1262.73 754.912 1292.96 718.685 1322.53C697.344 1340.35 675.604 1357.7 653.489 1374.55C641.87 1383.4 626.521 1394.98 614.039 1402.48C612.589 1265.2 620.418 1127.3 623.517 990.059C623.926 971.146 623.731 952.26 624.418 933.347C673.32 919.964 727.965 907.845 769.061 876.599C774.872 872.175 796.386 848.308 800.5 841.885C811.188 825.197 819.486 795.23 821.375 775.464C730.452 799.57 639.144 821.609 547.829 844.179C547.829 844.179 551.486 869.771 553.168 881.168C560.76 931.321 567.743 981.633 576.964 1031.52C576.964 1031.52 519.911 1080.19 488.94 1100.54L398.435 1031.88L426.96 844.31C335.213 821.051 241.991 801.403 151.686 772.778C154.197 794.089 160.663 820.086 171.496 838.656C175.917 846.24 197.813 871.584 204.69 876.634C245.973 906.931 301.824 920.506 350.802 933.395C353.934 984.635 352.705 1036.5 353.762 1087.83L361.4 1402.53C345.269 1392.44 327.879 1378.87 312.949 1367.3C289.937 1349.7 267.32 1331.59 245.115 1312.98C198.063 1274.85 152.381 1235.08 108.156 1193.7C102.525 1188.52 94.684 1184.28 89.7212 1179.38C59.605 1149.62 31.6449 1120.07 4.09863 1088.01C10.5448 1077.79 13.419 1068.19 17.5581 1057.08C43.2723 988.156 41.9212 915.629 44.1263 843.245C45.7165 781.483 46.951 719.714 47.8297 657.938C48.614 611.923 47.7369 576.329 56.001 530.334C65.8465 477.158 84.9295 426.12 112.385 379.531C172.522 276.252 276.346 204.913 390.745 174.772C390.923 181.109 391.455 187.432 392.339 193.71C394.225 207.649 415.963 306.576 422.115 311.253L423.183 310.61C426.141 302.298 422.668 281.734 421.571 271.846C419.602 253.082 417.375 234.347 414.89 215.645L399.314 99.9396C395.317 71.6306 390.516 40.9658 387.489 12.668C414.534 8.13125 441.852 5.40727 469.26 4.51431Z" fill="black"/>
<path d="M662.5 415.24C701.699 411.75 748.682 426.737 779.681 450.945C815 478.749 837.695 519.571 842.661 564.255C854.043 658.17 790.54 737.225 697.09 748.486C677.565 750.746 657.804 749.825 638.576 745.758C577.635 733.261 548.866 698.519 510.895 653.115C490.421 628.498 470.233 603.646 450.334 578.562C411.307 529.236 357.364 467.49 287.197 476.231C257.307 479.919 230.108 495.337 211.587 519.091C193.89 541.945 187.899 569.544 190.993 598.127C197.841 661.388 256.023 698.938 317.275 690.825C369.948 683.856 403.829 646.548 434.574 606.264C449.027 619.02 461.107 633.467 472.916 648.628C470.895 651.319 467.655 655.131 465.375 657.771C425.641 703.796 381.359 740.441 318.883 745.951C226.987 752.896 142.206 696.987 131.841 601.811C127.501 558.396 140.344 515.009 167.615 480.954C235.602 396.907 361.417 397.274 435.707 472.161C453.533 490.13 468.982 509.9 484.665 529.716C502.586 552.249 520.351 574.906 537.961 597.683C554.066 618.945 577.594 649.939 598.098 666.482C623.401 686.782 655.759 696.142 687.989 692.48C749.581 685.63 790.581 634.523 783.438 572.776C780.017 543.486 764.961 516.804 741.662 498.736C717.27 479.624 686.263 471.022 655.511 474.834C603.755 481.067 569.959 515.332 539.48 554.304C526.599 541.352 513.656 525.143 502.813 510.371C505.681 506.51 508.692 502.758 511.84 499.123C553.438 450.732 598.077 420.095 662.5 415.24Z" fill="#FEFEFE"/>
</g>
<defs>
<clipPath id="clip0_9070_7">
<rect width="974" height="1407" fill="white"/>
</clipPath>
</defs>
</svg>
