<svg width="128" height="128" viewBox="0 0 64 64" xml:space="preserve" xmlns="http://www.w3.org/2000/svg"><path fill="#171717" d="M0 0h64v64H0z"/><path d="M26.09 43.47a11.1 11.1 0 0 0 1.46-2.15l.04-.12a10.25 10.25 0 0 1 .97-10.65l.06-.08v-5.48c0-5.96.01-5.65-.16-6.07a1.3 1.3 0 0 0-.11-.23c-.28-.47-.7-.76-1.19-.96-.05-.01-.1-.03-.12-.05a3.5 3.5 0 0 0-1.1.02c-.65.22-1.01.6-1.37 1.2-.17.39-.16.1-.18 5.02 0 2.5-.01 4.53-.02 4.53l-.2-.14a10.56 10.56 0 0 0-3.75-1.58 10.93 10.93 0 0 0-4.4.1c-5.92 1.66-7.21 6.46-7.3 6.78a10.27 10.27 0 0 0 1.88 9.67 10.56 10.56 0 0 0 7.11 3.63 10.3 10.3 0 0 0 8.38-3.44zm-8.37-.8a4.14 4.14 0 0 1-1.03-.22 6.02 6.02 0 0 1-3.87-7.48 6 6 0 0 1 4.14-3.95 6.02 6.02 0 0 1 4.12.4c4.5 2.04 4.17 8.59.4 10.5-.2.1-.31.17-.32.2l-.05.01a6.19 6.19 0 0 1-3.39.54zm30.36 4.21c.6-.15 1.2-.54 1.53-1.42l.06-.16.01-8.8v-8.8h1.26c1.77 0 2.06-.1 2.73-.9a2.33 2.33 0 0 0 .3-1.78 4 4 0 0 0-.31-.64 2.28 2.28 0 0 0-1.14-.84l-.21-.08-1.3-.01-1.3-.01V19.8a2.04 2.04 0 0 0-.81-1.7 2.37 2.37 0 0 0-.78-.41c-1.36-.3-2.17.42-2.62 1.52-.02.05-.04.66-.04 2.15l-.01 2.08h-1.2l-1.19.02-.27.1c-1.9.64-1.98 3.27-.13 4 .32.13.5.15 1.7.15h1.1v2.23c0 2.16 0 2.24.05 2.34.98 1.83 1.08 4.4.9 5.69a10.64 10.64 0 0 1-.9 2.97c-.04.08-.04.25-.04 2.2v2.13l.06.18c.4 1.1 1.46 1.7 2.55 1.43zm-6.12-7.77c.41-.88.6-2.27.42-3.22-.8-4.4-4.57-4.83-4.57-4.92 0-.01-.05-.03-.12-.04l-.48-.06c-.74-.1-1.82 0-2.58.25a6.1 6.1 0 0 0-3.74 3.7 6.03 6.03 0 0 0 .54 5.06A6.1 6.1 0 0 0 36 42.7c.72.07 4.2.19 5.95-3.59z" fill="#b94b43"/></svg>