<svg id="Layer_2" version="1.1" width="128" height="128" xml:space="preserve" xmlns="http://www.w3.org/2000/svg"><defs id="defs1"><style id="style1">.cls-1,.cls-2{fill:#fff}.cls-3{fill:#fd4f4f}.cls-4{fill:#222}.cls-5{fill:#39f}.cls-6{fill:#23e843}.cls-2,.cls-6{fill-rule:evenodd}</style></defs><path id="rect8" fill="#201f33" fill-opacity="1" d="M0 0h128v128H0z"/><path d="M58.13 73.91c7.43-.82 6.72-12.33-.76-12.32-7.41.02-8.13 11.54-.77 12.33l.66.07c.06 0 .45-.03.87-.08zM57 71.86c-4.43-.56-4.25-7.99.2-8.17 2.63-.1 4.34 2.38 3.64 5.31-.44 1.89-2.06 3.1-3.84 2.86Zm27.72 1.93a5.35 5.35 0 0 0 3.64-3.1c.17-.46.21-.42-.74-.75-1.17-.42-1.09-.42-1.3.08-1.27 3.14-6.13 2.2-6.5-1.27l-.04-.34H88.38c.25-.01.26-1.34.02-2.49-1.3-6.34-10.24-5.53-10.96 1-.5 4.57 2.96 7.84 7.28 6.87zm-4.85-7.37.1-.42c.63-3.28 5.68-3.1 6.16.22l.05.34h-3.17c-3 0-3.18 0-3.14-.14zm17.25 7.37c1.56-.35 4.35-2.96 3.75-3.5-.02-.03-1.46-.65-1.88-.82-.06-.03-.17.12-.27.34-1.32 2.99-5.6 2.56-6.43-.65-.81-3.16 1.06-5.77 3.87-5.39 1.15.16 2.48 1.34 2.48 2.2 0 .24.12.22 1.08-.2l.7-.3c.46-.18.46-.22 0-1.15-1.8-3.7-7.76-3.63-9.85.1-2.73 4.89 1.23 10.56 6.55 9.37zm10.94-.2.34-.1v-1.93l-.71.03c-1.74.07-1.77.01-1.77-4.29V64h2.48v-2.08h-2.48v-3.68H103.77l-.03 1.3c-.04 1.93-.4 2.38-1.88 2.38h-.5V64h.38l1.1.03.72.01.04 3.72.04 3.72.25.52c.68 1.4 2.43 2.07 4.17 1.6zm-64.75-.48c.03-.27.05-1.07.05-1.78v-1.29l.74-.74c.9-.91.67-1 1.95.72A169.58 169.58 0 0 0 48 72.66l.68.94h1.42c.78 0 1.42-.03 1.42-.06s-1.12-1.55-2.5-3.38l-2.48-3.31 2.45-2.42a90.79 90.79 0 0 0 2.45-2.46c0-.03-.7-.05-1.54-.05h-1.55l-1.4 1.42-2.5 2.54L43.37 67V56.08h-2.32V73.6h2.22zm24.53-3.43c.05-4.33.03-4.22.64-5.02 1.22-1.62 4.11-1.14 4.55.76.15.64.16.83.16 4.56l.01 3.62 1.14-.02 1.14-.02V69.4c0-5-.04-5.22-1.07-6.5-1.48-1.8-5-1.73-6.3.14-.3.46-.35.4-.35-.4v-.72h-2.24V73.6l1.14-.02 1.14-.02zm-39.47 2.36c1.76-.33 3.47-1.97 3.75-3.58.02-.16.08-.3.12-.3.3 0 .4-.35.4-1.28 0-1.06-.12-1.36-.55-1.36-.18 0-.25-.06-.4-.37a4.87 4.87 0 0 0-3.25-2.47c-.87-.18-11.4-.18-12.22.01a4.92 4.92 0 0 0-3.16 2.33c-.2.38-.31.5-.45.5-.46 0-.53.16-.53 1.29v1.04l.23.21c.15.14.26.37.32.62a4.87 4.87 0 0 0 3.66 3.36c.84.16 11.2.17 12.08 0zm-10.6-2.92a1.96 1.96 0 0 1 .25-3.56c.25-.1.9-.12 4.4-.12h4.1l.4.19c1.28.6 1.57 2.18.57 3.18-.56.56-.42.55-5.09.55h-4.2zm.3-8.27c.26-1.06.4-1.09 4.27-1.09 3.9 0 4.07.05 4.3 1.15l.05.25.78.02.79.03-.03-.47c-.09-1.16-1.02-2.19-2.3-2.54a62.2 62.2 0 0 0-7.5.1c-.92.35-1.56 1-1.86 1.92-.32.94-.29.98.67.98h.74zm94.82-.46c.1-.06.29-.2.41-.3l.22-.2v.51h.88v-1.39c0-1.6-.08-2.13-.37-2.51-.8-1.05-2.97-.64-3.27.62-.04.18.7.55.78.39.01-.02.1-.17.18-.35.38-.76 1.72-.61 1.72.2 0 .3 0 .3-.96.44-1.25.19-1.74.53-1.82 1.27-.12 1.07 1.24 1.87 2.23 1.32zm-1.03-.68c-.68-.28-.29-1.02.64-1.2.87-.17.94-.16.94.13 0 .8-.85 1.36-1.58 1.07z" id="path8" fill="#fbfbfc" fill-opacity="1"/></svg>