<?xml version="1.0" encoding="UTF-8" standalone="no"?><svg xmlns="http://www.w3.org/2000/svg" xml:space="preserve" viewBox="0 0 128 128"><defs><linearGradient id="a" x1="-27.7" x2="512.6" y1="2.4" y2="291.1" gradientTransform="matrix(.24 0 0 .24 8.4 30)" gradientUnits="userSpaceOnUse"><stop stop-color="#EAC0FB"/><stop offset="1" stop-color="#5F47F8"/></linearGradient></defs><path fill="#222" d="M0 0h128v128H0z"/><path fill="url(#a)" fill-rule="evenodd" d="M53.6 72.4a9.6 9.6 0 0 1-.1-9.6l11.9-21 .5-.7 8.5 14.5c1.8 3 1.8 6.7.1 9.6l-11.9 21-.5.7zM65.9 41l-3.6-6.2c-1.8-3-5-4.8-8.4-4.8l-24 .2a9.6 9.6 0 0 0-8.3 4.8l-12 21a9.7 9.7 0 0 0 .1 9.6L22 86.4c1.7 3 5 4.8 8.4 4.8l24-.2c3.1 0 6-1.6 7.8-4l3.6 6.1c1.8 3 5 4.8 8.4 4.8l24-.2c3.5 0 6.6-1.9 8.3-4.8l12-21a10 10 0 0 0-.1-9.6L106 41.6c-1.7-3-5-4.8-8.4-4.8l-24 .2c-3.1 0-6 1.5-7.8 4z" clip-rule="evenodd"/></svg>