<svg width="64" height="64" viewBox="0 0 64 64" fill="none" xmlns="http://www.w3.org/2000/svg">
<rect width="64" height="64" fill="#161B23"/>
<path d="M29.7433 27.2183H28.5933V50.9183H29.7433V27.2183Z" fill="#62BBEB"/>
<path d="M23.5533 24.2983H22.4033V41.1783H23.5533V24.2983Z" fill="#62BBEB"/>
<path d="M27.5334 35.0983H30.8034C31.2534 35.0983 31.6234 35.4683 31.6234 35.9183V47.2083C31.6234 47.6583 31.2534 48.0283 30.8034 48.0283H27.5334C27.0834 48.0283 26.7134 47.6583 26.7134 47.2083V35.9183C26.7134 35.4683 27.0834 35.0983 27.5334 35.0983Z" fill="#62BBEB"/>
<path d="M24.6134 27.2983H21.3434C20.8906 27.2983 20.5234 27.6655 20.5234 28.1183V36.7183C20.5234 37.1712 20.8906 37.5383 21.3434 37.5383H24.6134C25.0663 37.5383 25.4334 37.1712 25.4334 36.7183V28.1183C25.4334 27.6655 25.0663 27.2983 24.6134 27.2983Z" fill="#62BBEB"/>
<path d="M42.1334 24.2983H40.9834V41.1783H42.1334V24.2983Z" fill="#62BBEB"/>
<path d="M35.9435 27.2183H34.7935V50.9183H35.9435V27.2183Z" fill="#62BBEB"/>
<path d="M33.7336 35.0983H37.0036C37.4536 35.0983 37.8236 35.4683 37.8236 35.9183V47.2083C37.8236 47.6583 37.4536 48.0283 37.0036 48.0283H33.7336C33.2836 48.0283 32.9136 47.6583 32.9136 47.2083V35.9183C32.9136 35.4683 33.2836 35.0983 33.7336 35.0983Z" fill="#62BBEB"/>
<path d="M43.1935 27.2983H39.9235C39.4706 27.2983 39.1035 27.6655 39.1035 28.1183V36.7183C39.1035 37.1712 39.4706 37.5383 39.9235 37.5383H43.1935C43.6464 37.5383 44.0135 37.1712 44.0135 36.7183V28.1183C44.0135 27.6655 43.6464 27.2983 43.1935 27.2983Z" fill="#62BBEB"/>
<path d="M17.3634 24.5183H16.2134V32.4483H17.3634V24.5183Z" fill="#62BBEB"/>
<path d="M18.4732 26.2183H15.0832C14.6635 26.2183 14.3232 26.5585 14.3232 26.9783V30.4683C14.3232 30.888 14.6635 31.2283 15.0832 31.2283H18.4732C18.893 31.2283 19.2332 30.888 19.2332 30.4683V26.9783C19.2332 26.5585 18.893 26.2183 18.4732 26.2183Z" fill="#62BBEB"/>
<path fill-rule="evenodd" clip-rule="evenodd" d="M14.9135 26.2183C7.21347 26.2183 6.57347 17.9283 15.0035 13.7883C15.7735 13.4083 15.4735 12.8483 14.8635 13.0383C1.13347 17.1783 2.39347 30.7583 14.5835 30.7583H16.2035L15.6335 26.2183H14.9035H14.9135Z" fill="#62BBEB"/>
<path d="M48.3336 24.5183H47.1836V32.4483H48.3336V24.5183Z" fill="#62BBEB"/>
<path d="M49.4435 26.2183H46.0535C45.6337 26.2183 45.2935 26.5585 45.2935 26.9783V30.4683C45.2935 30.888 45.6337 31.2283 46.0535 31.2283H49.4435C49.8632 31.2283 50.2035 30.888 50.2035 30.4683V26.9783C50.2035 26.5585 49.8632 26.2183 49.4435 26.2183Z" fill="#62BBEB"/>
<path fill-rule="evenodd" clip-rule="evenodd" d="M49.6235 26.2183C57.3235 26.2183 57.9635 17.9283 49.5335 13.7883C48.7635 13.4083 49.0635 12.8483 49.6735 13.0383C63.4035 17.1783 62.1435 30.7583 49.9535 30.7583H48.3335L48.9035 26.2183H49.6335H49.6235Z" fill="#62BBEB"/>
</svg>
