<svg xmlns="http://www.w3.org/2000/svg" xml:space="preserve" width="128" height="128"><defs><linearGradient id="a" x1="40" x2="76.99" y1="1.12" y2="39.14" gradientTransform="matrix(3 0 0 3 -121.97 .43)" gradientUnits="userSpaceOnUse"><stop stop-color="#008A7A"/><stop offset="1" stop-color="#00655A"/></linearGradient></defs><path fill="url(#a)" d="M33.73 9.92a2.97 2.97 0 1 0-.63-5.9l-6.08.64c-3.12.34-5.61.6-7.64.97-2.1.38-3.88.9-5.55 1.82a17.07 17.07 0 0 0-6.47 6.4 17.22 17.22 0 0 0-1.88 5.5c-.39 2.02-.67 4.5-1.03 7.6l-.02.14-.6 5.92a2.97 2.97 0 0 0 5.93.6l.6-5.88c.36-3.23.63-5.5.97-7.26.33-1.75.7-2.82 1.2-3.67 1-1.75 2.45-3.19 4.21-4.17.87-.49 1.95-.85 3.7-1.16 1.79-.33 4.07-.57 7.32-.92zm57.9-3.27c-.18 1.63 1 3.1 2.64 3.27l5.97.63c3.25.35 5.53.6 7.32.92 1.75.31 2.83.67 3.7 1.16 1.76.98 3.22 2.42 4.22 4.17.5.85.86 1.92 1.2 3.67.33 1.77.6 4.03.97 7.26l.6 5.87a2.97 2.97 0 0 0 5.91-.6l-.6-5.91v-.13c-.37-3.1-.65-5.59-1.04-7.6-.4-2.08-.93-3.86-1.88-5.51a17.07 17.07 0 0 0-6.47-6.4 17.38 17.38 0 0 0-5.55-1.82c-2.03-.37-4.52-.63-7.64-.97l-6.08-.64c-1.63-.18-3.1 1-3.27 2.63zm0 114.7c-.18-1.63 1-3.1 2.64-3.27l5.97-.63c3.25-.35 5.53-.6 7.32-.92 1.75-.31 2.83-.67 3.7-1.16a11.13 11.13 0 0 0 4.22-4.17c.5-.85.86-1.92 1.2-3.67.33-1.77.6-4.03.97-7.26l.6-5.87a2.97 2.97 0 0 1 5.91.6l-.6 5.91v.13c-.37 3.1-.65 5.59-1.04 7.6-.4 2.08-.93 3.86-1.88 5.51a17.07 17.07 0 0 1-6.47 6.4 17.38 17.38 0 0 1-5.55 1.82c-2.03.37-4.52.63-7.64.97l-6.08.64c-1.63.18-3.1-1-3.27-2.63zm-55.26 0a2.97 2.97 0 0 0-2.64-3.27l-5.97-.63c-3.25-.35-5.53-.6-7.32-.92a11.58 11.58 0 0 1-3.7-1.16 11.12 11.12 0 0 1-4.22-4.17c-.5-.85-.86-1.92-1.2-3.67-.33-1.77-.6-4.03-.97-7.26l-.6-5.87a2.97 2.97 0 0 0-5.91.6l.6 5.91v.13c.37 3.1.65 5.59 1.04 7.6.4 2.08.93 3.86 1.88 5.51a17.06 17.06 0 0 0 6.47 6.4c1.67.93 3.46 1.44 5.55 1.82 2.03.37 4.52.63 7.64.97l6.08.64c1.63.18 3.1-1 3.27-2.63zm-1.62-80.23a2.56 2.56 0 0 0-2.56 2.56v41.5a2.56 2.56 0 0 0 2.56 2.57h8.1a2.56 2.56 0 0 0 2.57-2.56V43.68a2.56 2.56 0 0 0-2.57-2.56zm21.92 0a2.56 2.56 0 0 0-2.56 2.56v41.5a2.56 2.56 0 0 0 2.56 2.57h19.55c5.13 0 9.67-.96 13.64-2.87a21.62 21.62 0 0 0 9.22-8.12c2.18-3.51 3.27-7.62 3.27-12.33 0-4.7-1.1-8.81-3.27-12.32a21.62 21.62 0 0 0-9.22-8.13c-3.97-1.9-8.51-2.86-13.64-2.86zm28.64 32.7c-2.4 2.27-5.61 3.4-9.62 3.4h-7.58a.77.77 0 0 1-.77-.77V52.41c0-.42.34-.77.77-.77h7.58c4 0 7.22 1.13 9.62 3.4 2.45 2.26 3.68 5.4 3.68 9.4 0 3.99-1.23 7.12-3.68 9.39z"/></svg>