<svg width="256" height="256" viewBox="0 0 256 256" fill="none" xmlns="http://www.w3.org/2000/svg">
<style>
  .bg { fill: #FAF9F6; }
  .grid { stroke: #F3F2EF; }
  @media (prefers-color-scheme: dark) {
    .bg { fill: #13110D; }
    .grid { stroke: #1E1C18; }
  }
</style>
<g clip-path="url(#clip0_nns)">
<rect class="bg" width="256" height="256"/>
<line class="grid" x1="20.5" y1="2.18557e-08" x2="20.5" y2="256"/>
<line class="grid" x1="44.5" y1="2.18557e-08" x2="44.5" y2="256"/>
<line class="grid" x1="68.5" y1="2.18557e-08" x2="68.5" y2="256"/>
<line class="grid" x1="92.5" y1="2.18557e-08" x2="92.5" y2="256"/>
<line class="grid" x1="116.5" y1="2.18557e-08" x2="116.5" y2="256"/>
<line class="grid" x1="140.5" y1="2.18557e-08" x2="140.5" y2="256"/>
<line class="grid" x1="164.5" y1="2.18557e-08" x2="164.5" y2="256"/>
<line class="grid" x1="188.5" y1="2.18557e-08" x2="188.5" y2="256"/>
<line class="grid" x1="212.5" y1="2.18557e-08" x2="212.5" y2="256"/>
<line class="grid" x1="236.5" y1="2.18557e-08" x2="236.5" y2="256"/>
<line class="grid" x1="256" y1="20.5" x2="-4.37114e-08" y2="20.5"/>
<line class="grid" x1="256" y1="44.5" x2="-4.37114e-08" y2="44.5"/>
<line class="grid" x1="256" y1="68.5" x2="-4.37114e-08" y2="68.5"/>
<line class="grid" x1="256" y1="92.5" x2="-4.37114e-08" y2="92.5"/>
<line class="grid" x1="256" y1="116.5" x2="-4.37114e-08" y2="116.5"/>
<line class="grid" x1="256" y1="140.5" x2="-4.37114e-08" y2="140.5"/>
<line class="grid" x1="256" y1="164.5" x2="-4.37114e-08" y2="164.5"/>
<line class="grid" x1="256" y1="188.5" x2="-4.37114e-08" y2="188.5"/>
<line class="grid" x1="256" y1="212.5" x2="-4.37114e-08" y2="212.5"/>
<line class="grid" x1="256" y1="236.5" x2="-4.37114e-08" y2="236.5"/>
<g clip-path="url(#clip1_nns)">
<path d="M190.985 158.441C177.686 158.441 163.642 149.749 156.749 143.437C149.213 136.534 128.503 114.075 128.412 113.973C114.832 98.8171 96.5703 82 78.3529 82C56.4116 82 37.2777 97.1935 32.2988 117.325C32.681 115.999 39.6521 97.5588 65.8382 97.5588C79.1377 97.5588 93.1812 106.251 100.074 112.563C107.61 119.466 128.32 141.925 128.412 142.027C141.992 157.18 160.253 173.997 178.471 173.997C200.412 173.997 219.546 158.803 224.525 138.671C224.142 139.997 217.171 158.438 190.985 158.438V158.441Z" fill="#29ABE2"/>
<path d="M128.412 142.03C128.364 141.976 122.401 135.509 115.714 128.453C112.102 132.742 106.893 138.587 100.907 143.833C89.7515 153.611 82.4997 155.661 78.353 155.661C62.7062 155.661 49.9446 143.251 49.9446 128C49.9446 112.749 62.6927 100.434 78.353 100.339C78.9212 100.339 79.6078 100.397 80.4433 100.545C75.7384 98.7393 70.7393 97.5588 65.8383 97.5588C39.6622 97.5588 32.6844 115.989 32.3022 117.322C31.4533 120.752 31.0034 124.327 31.0034 127.997C31.0034 153.361 51.9267 173.997 78.0181 173.997C88.8958 173.997 101.079 168.419 113.628 157.423C119.56 152.224 124.705 146.664 128.567 142.192C128.517 142.138 128.466 142.081 128.419 142.027L128.412 142.03Z" fill="url(#paint0_linear_nns)"/>
<path d="M128.412 113.97C128.459 114.024 134.422 120.491 141.109 127.547C144.722 123.258 149.931 117.413 155.917 112.167C167.072 102.389 174.324 100.339 178.471 100.339C194.118 100.339 206.879 112.749 206.879 128C206.879 143.166 194.131 155.566 178.471 155.661C177.903 155.661 177.216 155.603 176.381 155.455C181.085 157.261 186.084 158.441 190.986 158.441C217.162 158.441 224.139 140.011 224.522 138.678C225.371 135.248 225.82 131.673 225.82 128.003C225.824 102.636 204.562 82 178.471 82C167.593 82 155.748 87.5775 143.2 98.5735C137.267 103.772 132.122 109.333 128.26 113.804C128.311 113.858 128.361 113.916 128.409 113.97H128.412Z" fill="url(#paint1_linear_nns)"/>
</g>
</g>
<defs>
<linearGradient id="paint0_linear_nns" x1="102.902" y1="167.983" x2="38.8234" y2="101.628" gradientUnits="userSpaceOnUse">
<stop offset="0.22" stop-color="#ED1E79"/>
<stop offset="0.89" stop-color="#522785"/>
</linearGradient>
<linearGradient id="paint1_linear_nns" x1="153.881" y1="88.0544" x2="217.96" y2="154.409" gradientUnits="userSpaceOnUse">
<stop offset="0.21" stop-color="#F15A24"/>
<stop offset="0.68" stop-color="#FBB03B"/>
</linearGradient>
<clipPath id="clip0_nns">
<rect width="256" height="256" fill="white"/>
</clipPath>
<clipPath id="clip1_nns">
<rect width="194.824" height="92" fill="white" transform="translate(31 82)"/>
</clipPath>
</defs>
</svg>
