<svg version="1.1" id="Layer_1" xmlns="http://www.w3.org/2000/svg" xmlns:xlink="http://www.w3.org/1999/xlink" x="0px" y="0px"
	 width="100%" viewBox="0 0 512 512" enable-background="new 0 0 512 512" xml:space="preserve">
<path fill="#010101" opacity="1.000000" stroke="none" 
	d="
M298.000000,513.000000 
	C198.690781,513.000000 99.881554,513.000000 1.036167,513.000000 
	C1.036167,342.399078 1.036167,171.798172 1.036167,1.098622 
	C171.559235,1.098622 342.118561,1.098622 512.838928,1.098622 
	C512.838928,171.666550 512.838928,342.333252 512.838928,513.000000 
	C441.464813,513.000000 369.982391,513.000000 298.000000,513.000000 
M327.135590,345.622955 
	C328.042725,346.434387 328.949860,347.245789 330.174225,348.656067 
	C338.323547,357.106842 344.052124,358.059235 351.802612,351.891876 
	C357.622192,346.650146 358.050171,339.227509 352.481781,333.534088 
	C340.498260,321.281494 328.371979,309.168030 316.254578,297.047119 
	C310.744141,291.535065 308.960114,285.140625 312.066376,277.942200 
	C315.128754,270.845459 321.074158,268.274658 328.592377,268.322021 
	C346.402405,268.434143 364.213593,268.361389 382.024323,268.356232 
	C391.161530,268.353577 396.021729,263.829346 396.010223,255.358536 
	C395.998718,246.890015 390.990631,242.067520 382.184937,242.064697 
	C363.708405,242.058777 345.231415,242.134613 326.755493,242.026672 
	C317.868439,241.974762 311.175934,235.011765 310.881287,226.138657 
	C310.665680,219.645966 314.375732,215.308395 318.552094,211.100723 
	C329.923340,199.644394 341.320740,188.212677 352.572327,176.639511 
	C358.853943,170.178391 357.107758,160.754990 348.665344,156.398987 
	C346.774689,155.912674 344.909454,155.187195 342.988800,154.982681 
	C335.801666,154.217422 332.081696,159.471924 327.317719,164.201736 
	C324.550262,167.134689 321.782806,170.067642 318.368225,173.203125 
	C316.137329,175.801025 313.906433,178.398926 311.126709,181.279556 
	C309.665619,182.819550 308.204559,184.359558 306.177704,186.173935 
	C305.066437,187.440948 303.955200,188.707947 302.252197,190.255295 
	C300.604858,192.079086 298.957489,193.902863 296.743774,196.035400 
	C293.333893,199.825851 289.036285,201.394760 283.294708,200.978195 
	C273.542480,196.944046 270.877258,192.973068 270.874878,182.422836 
	C270.871277,166.606430 271.062531,150.786133 270.727966,134.976868 
	C270.660095,131.768555 269.436340,127.853653 267.329407,125.572243 
	C262.986725,120.869965 257.079193,120.534004 251.189072,122.798012 
	C245.487518,124.989532 243.289398,129.413208 243.323624,135.366455 
	C243.413605,151.015854 243.367203,166.666107 243.360474,182.316010 
	C243.355682,193.504944 240.183411,197.793335 228.728500,201.020172 
	C223.593948,201.588486 219.690414,199.091614 215.800079,195.321884 
	C213.916626,193.484970 212.033173,191.648071 209.879211,189.222061 
	C208.350510,187.812714 206.821793,186.403366 204.990906,184.379852 
	C202.805267,182.208481 200.619629,180.037109 198.067078,177.275131 
	C195.768280,175.042831 193.469482,172.810532 190.854645,170.029404 
	C188.935165,168.238266 187.015671,166.447128 184.819168,164.069870 
	C182.554337,161.901215 180.461212,159.508194 177.986099,157.614349 
	C173.848816,154.448654 169.390900,153.545670 164.186951,157.187561 
	C156.490494,161.704788 155.548737,170.641037 162.093506,177.283707 
	C173.773361,189.138290 185.470612,200.975723 197.155304,212.825546 
	C203.149017,218.903931 204.902420,225.691132 201.881577,232.291016 
	C198.604095,239.451538 192.802521,242.256027 185.004898,242.168091 
	C167.026871,241.965347 149.044708,242.156555 131.065262,242.033600 
	C126.523682,242.002548 122.813316,243.330170 120.422859,247.212769 
	C117.411957,252.103134 117.184174,257.283081 119.846924,262.421936 
	C122.288155,267.133270 126.418587,268.445526 131.511154,268.407379 
	C149.823334,268.270264 168.137192,268.375732 186.450287,268.332642 
	C193.418182,268.316254 198.694016,271.155151 201.861389,277.396179 
	C205.242371,284.058075 203.430786,291.575043 197.245834,297.781921 
	C185.382431,309.687347 173.482437,321.557159 161.706970,333.549072 
	C155.901047,339.461761 156.519836,347.409912 163.233017,352.611725 
	C170.308563,357.489716 174.837585,356.621948 181.883789,348.858093 
	C182.979446,347.709106 184.075104,346.560150 185.771606,345.087891 
	C187.675674,343.129486 189.579727,341.171082 192.038513,338.906372 
	C193.987259,336.924530 195.936005,334.942719 198.486633,332.690369 
	C199.971634,331.064636 201.456635,329.438904 203.523010,327.519989 
	C206.304291,324.687073 209.085571,321.854156 212.462540,318.712769 
	C214.045303,317.172180 215.628067,315.631592 217.919632,313.940948 
	C221.615189,312.963531 225.310745,311.986145 229.719315,311.130829 
	C240.940628,315.518524 243.359955,319.000488 243.363403,330.793427 
	C243.368073,346.764465 243.324677,362.735657 243.386871,378.706482 
	C243.419098,386.984375 248.868195,392.031250 257.476562,391.974701 
	C265.689392,391.920746 270.854462,386.816315 270.868439,378.616821 
	C270.895386,362.812225 270.865448,347.007507 270.862518,331.202850 
	C270.860229,318.843292 273.403412,315.260406 285.908386,311.251282 
	C289.434387,312.253845 292.960388,313.256409 296.876923,314.816895 
	C299.150879,316.915497 301.424835,319.014099 304.001953,321.706848 
	C305.850006,323.520782 307.698029,325.334717 309.857422,327.750153 
	C311.277130,329.158966 312.696869,330.567810 314.406525,332.564484 
	C317.590820,335.708435 320.775146,338.852356 324.179169,342.577545 
	C325.085358,343.403351 325.991547,344.229156 327.135590,345.622955 
M466.232544,257.150574 
	C466.213654,255.654556 466.264313,254.153915 466.165314,252.663223 
	C465.007935,235.238220 450.808990,222.035568 433.874695,222.614304 
	C416.887451,223.194870 403.562836,237.586182 403.594299,255.318787 
	C403.626068,273.224274 417.283722,287.772064 434.368103,288.098297 
	C450.951996,288.414948 464.061005,276.005066 466.232544,257.150574 
M289.300812,78.818962 
	C289.239502,78.156578 289.195984,77.491989 289.114288,76.832130 
	C286.948853,59.336205 272.764252,47.185329 255.544464,48.071308 
	C238.585861,48.943848 225.180603,63.384422 225.059814,80.910393 
	C224.941910,98.014984 238.104385,112.488670 254.967499,113.797440 
	C274.255219,115.294365 289.123932,100.528069 289.300812,78.818962 
M253.101318,465.433441 
	C255.413391,465.532043 257.764038,465.951599 260.031494,465.679047 
	C279.978912,463.280914 292.195160,446.794159 289.009216,426.730255 
	C285.564117,405.034271 259.877991,392.809174 241.354965,404.049622 
	C229.720490,411.109863 223.364822,424.322388 225.473083,437.065857 
	C228.073502,452.784210 236.751968,461.947449 253.101318,465.433441 
M100.210617,279.717346 
	C101.216583,278.610596 102.316177,277.574524 103.213875,276.386017 
	C111.336067,265.632660 112.824898,253.796646 107.623260,241.571198 
	C102.915527,230.506561 94.154709,223.992462 82.015060,222.771255 
	C68.191994,221.380722 55.153721,229.684204 50.151554,242.731918 
	C44.643829,257.098358 49.153542,273.275360 61.118267,282.070892 
	C72.917099,290.744537 87.133545,290.045410 100.210617,279.717346 
M401.950439,357.532471 
	C395.197510,351.422241 387.230499,348.236481 378.192413,349.237061 
	C359.526672,351.303558 346.988495,368.358856 349.971558,387.034973 
	C352.248108,401.287567 361.858307,411.453735 375.600739,414.146851 
	C387.867584,416.550781 400.620270,410.662506 407.489563,399.422882 
	C415.431396,386.428345 413.454285,370.109070 401.950439,357.532471 
M103.055153,375.610779 
	C103.416153,381.344910 102.863190,387.323029 104.316177,392.765656 
	C108.088593,406.896393 123.694481,416.363098 137.276199,414.548309 
	C158.257889,411.744751 170.743408,389.551331 162.576172,368.831787 
	C156.762436,354.082855 140.756638,346.046387 125.576286,350.385101 
	C113.224968,353.915283 106.185089,362.562012 103.055153,375.610779 
M409.753113,147.168381 
	C410.309357,145.783676 410.938324,144.423309 411.410950,143.010635 
	C418.634003,121.420937 404.210938,99.283707 382.669678,98.872711 
	C367.122345,98.576080 354.234009,109.672836 351.145752,126.014603 
	C348.323914,140.946533 356.971069,156.976547 370.642883,162.158264 
	C385.923065,167.949570 400.325012,162.599319 409.753113,147.168381 
M125.078514,163.422226 
	C142.866440,167.200592 158.463943,156.949692 162.621597,138.748398 
	C166.641953,121.148155 156.113205,103.952316 138.744781,99.752144 
	C122.760391,95.886673 106.085846,106.197266 102.060234,122.435822 
	C97.407646,141.203415 106.874886,158.544022 125.078514,163.422226 
M290.148529,189.227966 
	C284.755280,191.646057 282.052612,190.571762 280.578949,185.067581 
	C279.987671,182.859039 279.919769,180.465805 279.905701,178.154861 
	C279.839905,167.326401 279.951904,156.496048 279.770477,145.670227 
	C279.749908,144.441406 278.283997,143.236786 277.488281,142.020950 
	C276.796326,143.168762 275.511932,144.312241 275.503479,145.465057 
	C275.413239,157.789917 275.358856,170.120346 275.660248,182.440292 
	C275.786652,187.606812 277.513000,192.626556 282.842743,194.613556 
	C288.416077,196.691391 292.763672,193.526535 296.638031,189.831955 
	C297.480011,189.029053 298.229950,188.129074 299.015015,187.267227 
	C305.296844,180.371033 311.577240,173.473541 317.857208,166.575638 
	C318.753693,165.590958 319.940002,164.732132 320.450958,163.575882 
	C320.900116,162.559464 320.590790,161.207870 320.616455,160.004303 
	C319.445740,160.260513 318.137970,160.275909 317.143463,160.841797 
	C316.181274,161.389282 315.555237,162.516281 314.758057,163.366699 
	C306.791321,171.865555 298.819702,180.359863 290.148529,189.227966 
M236.604660,326.209900 
	C234.031967,323.823639 231.829041,320.292480 228.801468,319.314728 
	C224.048203,317.779572 219.761185,320.725677 216.407883,324.149292 
	C208.721817,331.996521 201.154312,339.962555 193.686569,348.017456 
	C192.790497,348.983978 192.809326,350.798706 192.404099,352.220306 
	C193.889191,351.753418 195.815536,351.725800 196.788162,350.748718 
	C203.362762,344.144165 209.700607,337.304871 216.188019,330.612213 
	C219.598099,327.094208 222.983871,321.918976 228.460251,323.920563 
	C234.620087,326.171967 233.371780,332.670288 233.434128,337.871338 
	C233.555817,348.024078 233.358887,358.181030 233.530670,368.332214 
	C233.551895,369.586517 235.016785,370.816376 235.812698,372.057556 
	C236.542633,370.797638 237.856857,369.558838 237.903183,368.274261 
	C238.125046,362.122986 238.144028,355.955383 237.968307,349.801147 
	C237.750717,342.180573 237.270462,334.567444 236.604660,326.209900 
M237.823715,186.996597 
	C238.182129,173.713211 238.632629,160.430847 238.782425,147.145111 
	C238.801147,145.484558 237.230042,143.806076 236.395615,142.135895 
	C235.651672,143.772995 234.293564,145.398987 234.263763,147.048965 
	C234.074448,157.533203 234.199356,168.022781 234.175934,178.510498 
	C234.165817,183.031281 234.516541,188.270996 229.582504,190.248062 
	C224.652557,192.223511 221.348831,188.079285 218.249146,184.885498 
	C211.177490,177.599167 204.241257,170.180786 197.116913,162.947113 
	C196.323975,162.142014 194.670883,162.184097 193.416672,161.833282 
	C193.483978,163.002106 193.075287,164.619934 193.690384,165.272003 
	C202.137222,174.226410 210.335892,183.473587 219.404938,191.763321 
	C226.326981,198.090546 233.307541,196.048401 237.823715,186.996597 
M329.043823,302.456268 
	C334.554077,308.014038 339.975586,313.665344 345.650391,319.049683 
	C346.768250,320.110352 348.862885,320.141541 350.507050,320.647491 
	C349.920807,319.114349 349.730286,317.202576 348.684326,316.109344 
	C341.778351,308.891327 334.656189,301.880890 327.672577,294.736237 
	C324.336700,291.323456 319.856537,287.827850 321.868042,282.501862 
	C323.973297,276.927612 329.687256,277.912170 334.435699,277.906708 
	C344.426666,277.895203 354.418518,278.055389 364.407928,277.950775 
	C365.561798,277.938721 366.702759,276.695801 367.849701,276.023560 
	C366.978943,275.243164 366.115936,273.793335 365.236237,273.783112 
	C352.760529,273.637848 340.229523,272.978821 327.821350,273.906891 
	C317.231018,274.699036 313.741394,283.538788 319.849396,292.362427 
	C322.284637,295.880402 325.620575,298.774933 329.043823,302.456268 
M335.293915,201.793182 
	C331.191345,205.934341 326.910614,209.918030 323.056091,214.278458 
	C320.905426,216.711411 318.994476,219.584671 317.803070,222.587814 
	C315.583771,228.182053 317.582184,232.984787 323.051514,235.323212 
	C325.714264,236.461700 328.815033,237.011948 331.727875,237.050903 
	C342.217560,237.191254 352.714081,237.095291 363.201569,236.832901 
	C364.773010,236.793579 366.310303,235.388535 367.863373,234.615265 
	C366.218384,233.927048 364.579895,232.663620 362.927338,232.644913 
	C352.936829,232.531738 342.943115,232.757278 332.950500,232.754211 
	C328.630371,232.752884 323.732269,232.968140 321.832703,228.107239 
	C320.082642,223.628845 323.319458,220.272110 326.215118,217.270813 
	C331.187164,212.117416 336.278381,207.078995 341.320190,201.992950 
	C344.016937,199.272568 346.866119,196.680786 349.325745,193.760803 
	C350.121643,192.815933 349.897217,191.011612 350.139496,189.600464 
	C348.877075,189.951416 347.266571,189.926849 346.412567,190.718414 
	C342.751404,194.112137 339.312988,197.746170 335.293915,201.793182 
M176.079193,232.741486 
	C167.261002,232.670532 158.441986,232.523636 149.625626,232.620071 
	C148.459946,232.632812 147.307846,233.885681 146.149460,234.564209 
	C147.180573,235.352692 148.200897,236.810562 149.244431,236.827362 
	C161.220413,237.020126 173.218033,237.415543 185.173172,236.902100 
	C196.144699,236.430923 200.267227,227.391907 194.223801,218.183167 
	C193.228317,216.666306 192.014587,215.261612 190.739700,213.964294 
	C183.392502,206.487915 176.058090,198.996277 168.552002,191.681549 
	C167.403946,190.562759 165.386551,190.336075 163.771225,189.696793 
	C164.312927,191.340759 164.391891,193.426239 165.471100,194.557343 
	C172.705917,202.139969 180.216553,209.458832 187.487564,217.007858 
	C189.290314,218.879517 190.845001,221.136230 191.976044,223.475891 
	C193.878006,227.410217 192.337585,230.589447 188.310593,231.623123 
	C184.679916,232.555084 180.773315,232.412109 176.079193,232.741486 
M169.007874,312.512604 
	C167.602493,313.932800 165.999252,315.213562 164.863922,316.824097 
	C164.152054,317.833954 164.143433,319.339539 163.819290,320.622711 
	C165.211884,320.359955 167.082458,320.584198 167.923096,319.759094 
	C176.239929,311.596161 184.490295,303.358734 192.535248,294.928436 
	C196.368301,290.911774 198.755249,285.957581 196.495972,280.368591 
	C194.253906,274.822266 188.950638,273.853088 183.674362,273.315399 
	C182.850113,273.231384 182.010696,273.282471 181.178528,273.291870 
	C171.189316,273.404938 161.197189,273.426056 151.213943,273.734406 
	C149.592865,273.784515 148.011230,275.112122 146.411362,275.849243 
	C148.003159,276.580109 149.587097,277.922546 151.188004,277.943146 
	C162.008026,278.082245 172.845093,277.628174 183.645508,278.091675 
	C186.694733,278.222534 190.982986,280.069092 192.222504,282.430664 
	C193.278107,284.441833 190.920044,288.382660 189.761719,291.348511 
	C189.312958,292.497559 188.030060,293.332458 187.094147,294.277740 
	C181.236725,300.193695 175.369965,306.100342 169.007874,312.512604 
M276.875397,365.371033 
	C276.875366,365.870239 276.736359,366.421204 276.899658,366.859558 
	C277.558075,368.627045 278.309784,370.359741 279.027008,372.105286 
	C279.712006,370.323456 280.958282,368.551453 280.989777,366.758118 
	C281.176941,356.111542 281.012573,345.459381 281.118286,334.810577 
	C281.159698,330.640442 281.218506,325.857178 285.711304,324.048950 
	C290.336731,322.187256 293.389099,325.973907 296.195770,329.003754 
	C303.545074,336.937347 310.746490,345.008240 318.131958,352.907471 
	C318.929077,353.760040 320.546478,353.845673 321.783386,354.287018 
	C321.643860,352.887329 322.038971,351.012817 321.282501,350.161041 
	C313.328857,341.205353 305.315308,332.294525 297.042999,323.634277 
	C293.760773,320.198151 289.489227,317.669708 284.494446,319.479553 
	C279.129974,321.423370 277.627441,326.300293 277.012756,331.454865 
	C276.836243,332.934937 276.882294,334.445343 276.880676,335.941895 
	C276.870453,345.426910 276.875458,354.911896 276.875397,365.371033 
z"/>
<path fill="#FCFCFC" opacity="1.000000" stroke="none" 
	d="
M229.451813,201.184357 
	C240.183411,197.793335 243.355682,193.504944 243.360474,182.316010 
	C243.367203,166.666107 243.413605,151.015854 243.323624,135.366455 
	C243.289398,129.413208 245.487518,124.989532 251.189072,122.798012 
	C257.079193,120.534004 262.986725,120.869965 267.329407,125.572243 
	C269.436340,127.853653 270.660095,131.768555 270.727966,134.976868 
	C271.062531,150.786133 270.871277,166.606430 270.874878,182.422836 
	C270.877258,192.973068 273.542480,196.944046 283.892365,201.309814 
	C294.020966,205.009979 299.770905,203.681168 304.523193,197.059906 
	C307.349884,194.734711 309.835236,192.440292 312.605225,190.009750 
	C313.996643,188.606369 315.103363,187.339111 316.483398,185.936569 
	C317.502777,184.845108 318.248871,183.888931 319.291687,182.789764 
	C321.799438,180.110397 324.010468,177.573990 326.513062,174.893570 
	C329.810883,171.481400 332.817139,168.213242 336.107788,164.759216 
	C340.650787,162.053802 344.909424,159.534256 349.168030,157.014694 
	C357.107758,160.754990 358.853943,170.178391 352.572327,176.639511 
	C341.320740,188.212677 329.923340,199.644394 318.552094,211.100723 
	C314.375732,215.308395 310.665680,219.645966 310.881287,226.138657 
	C311.175934,235.011765 317.868439,241.974762 326.755493,242.026672 
	C345.231415,242.134613 363.708405,242.058777 382.184937,242.064697 
	C390.990631,242.067520 395.998718,246.890015 396.010223,255.358536 
	C396.021729,263.829346 391.161530,268.353577 382.024323,268.356232 
	C364.213593,268.361389 346.402405,268.434143 328.592377,268.322021 
	C321.074158,268.274658 315.128754,270.845459 312.066376,277.942200 
	C308.960114,285.140625 310.744141,291.535065 316.254578,297.047119 
	C328.371979,309.168030 340.498260,321.281494 352.481781,333.534088 
	C358.050171,339.227509 357.622192,346.650146 351.052277,351.942108 
	C346.498138,350.671295 342.694305,349.350250 338.753204,347.741302 
	C337.067261,346.004578 335.518585,344.555756 333.854858,342.814484 
	C332.827850,341.676361 331.915894,340.830750 330.872253,339.679138 
	C327.901489,336.596313 325.062317,333.819489 322.086273,330.734741 
	C320.439423,328.906250 318.929443,327.385712 317.284485,325.559875 
	C315.606873,323.771606 314.064301,322.288635 312.298950,320.536804 
	C308.744873,317.454651 305.413574,314.641357 301.876465,311.528748 
	C296.206482,307.471069 290.691925,308.277557 285.155762,311.047394 
	C273.403412,315.260406 270.860229,318.843292 270.862518,331.202850 
	C270.865448,347.007507 270.895386,362.812225 270.868439,378.616821 
	C270.854462,386.816315 265.689392,391.920746 257.476562,391.974701 
	C248.868195,392.031250 243.419098,386.984375 243.386871,378.706482 
	C243.324677,362.735657 243.368073,346.764465 243.363403,330.793427 
	C243.359955,319.000488 240.940628,315.518524 229.088776,310.827087 
	C221.764832,307.632843 215.363266,307.026215 209.479492,313.006927 
	C207.056900,315.058502 204.945724,317.011810 202.534348,319.093048 
	C200.150620,321.473206 198.067108,323.725433 195.693420,326.126160 
	C193.953690,327.900787 192.504135,329.526917 190.761932,331.298401 
	C188.152130,333.914215 185.835007,336.384735 183.253967,339.005920 
	C181.899948,340.404938 180.809860,341.653290 179.433975,343.040710 
	C177.669739,344.749023 176.191299,346.318237 174.395569,348.022156 
	C170.345779,349.431580 166.613266,350.706268 162.880753,351.980957 
	C156.519836,347.409912 155.901047,339.461761 161.706970,333.549072 
	C173.482437,321.557159 185.382431,309.687347 197.245834,297.781921 
	C203.430786,291.575043 205.242371,284.058075 201.861389,277.396179 
	C198.694016,271.155151 193.418182,268.316254 186.450287,268.332642 
	C168.137192,268.375732 149.823334,268.270264 131.511154,268.407379 
	C126.418587,268.445526 122.288155,267.133270 119.846924,262.421936 
	C117.184174,257.283081 117.411957,252.103134 120.422859,247.212769 
	C122.813316,243.330170 126.523682,242.002548 131.065262,242.033600 
	C149.044708,242.156555 167.026871,241.965347 185.004898,242.168091 
	C192.802521,242.256027 198.604095,239.451538 201.881577,232.291016 
	C204.902420,225.691132 203.149017,218.903931 197.155304,212.825546 
	C185.470612,200.975723 173.773361,189.138290 162.093506,177.283707 
	C155.548737,170.641037 156.490494,161.704788 164.805817,157.351379 
	C169.851471,160.357300 174.278259,163.199402 178.858856,166.350449 
	C180.770355,168.435593 182.528000,170.211792 184.421951,172.274200 
	C186.649643,174.711456 188.741043,176.862473 190.970657,179.323227 
	C193.112122,181.742477 195.115387,183.851990 197.241882,186.258347 
	C198.911270,188.048950 200.457428,189.542709 202.145081,191.334869 
	C204.763672,193.815369 207.240799,195.997452 209.891541,198.479797 
	C215.944733,204.279663 222.409393,205.061401 229.451813,201.184357 
M222.577286,246.532410 
	C220.619171,254.347824 221.273956,261.992004 224.107117,269.485199 
	C230.810059,287.213287 250.436295,296.759094 267.887848,290.787933 
	C285.647186,284.711487 296.515167,264.042755 290.956757,245.974976 
	C287.332184,229.804077 273.398590,218.280426 257.281158,218.123917 
	C240.939056,217.965195 226.882843,229.330902 222.577286,246.532410 
z"/>
<path fill="#ECECEC" opacity="1.000000" stroke="none" 
	d="
M466.207336,257.565796 
	C464.061005,276.005066 450.951996,288.414948 434.368103,288.098297 
	C417.283722,287.772064 403.626068,273.224274 403.594299,255.318787 
	C403.562836,237.586182 416.887451,223.194870 433.874695,222.614304 
	C450.808990,222.035568 465.007935,235.238220 466.165314,252.663223 
	C466.264313,254.153915 466.213654,255.654556 466.207336,257.565796 
M438.048584,283.931305 
	C452.545380,281.196320 461.542206,271.197754 462.583374,256.664856 
	C463.453674,244.516220 455.438385,232.127258 444.088470,228.077972 
	C433.846008,224.423798 422.204651,227.360275 414.901093,235.440353 
	C407.054169,244.121552 405.147003,257.288269 410.176666,268.056946 
	C415.108734,278.616730 425.057556,284.494354 438.048584,283.931305 
z"/>
<path fill="#ECECEC" opacity="1.000000" stroke="none" 
	d="
M289.317932,79.242798 
	C289.123932,100.528069 274.255219,115.294365 254.967499,113.797440 
	C238.104385,112.488670 224.941910,98.014984 225.059814,80.910393 
	C225.180603,63.384422 238.585861,48.943848 255.544464,48.071308 
	C272.764252,47.185329 286.948853,59.336205 289.114288,76.832130 
	C289.195984,77.491989 289.239502,78.156578 289.317932,79.242798 
M248.380920,108.393669 
	C263.190369,112.309906 276.332489,106.880142 282.581299,94.263504 
	C288.686432,81.937012 285.525299,66.324059 274.933350,58.135258 
	C265.494629,50.838028 255.003738,49.813049 244.449829,55.155579 
	C233.599411,60.648212 228.593811,70.283455 229.118668,82.183487 
	C229.662796,94.520210 235.804611,103.520569 248.380920,108.393669 
z"/>
<path fill="#ECECEC" opacity="1.000000" stroke="none" 
	d="
M252.673431,465.383606 
	C236.751968,461.947449 228.073502,452.784210 225.473083,437.065857 
	C223.364822,424.322388 229.720490,411.109863 241.354965,404.049622 
	C259.877991,392.809174 285.564117,405.034271 289.009216,426.730255 
	C292.195160,446.794159 279.978912,463.280914 260.031494,465.679047 
	C257.764038,465.951599 255.413391,465.532043 252.673431,465.383606 
M237.110931,453.385498 
	C237.478531,453.722504 237.842545,454.063538 238.214325,454.395874 
	C248.627121,463.704987 264.323486,464.401184 274.862213,456.022308 
	C285.504547,447.561066 288.895386,431.740082 282.696960,419.466980 
	C276.489502,407.175964 262.226379,401.130371 248.975677,405.018982 
	C229.680252,410.681488 221.771835,436.356934 237.110931,453.385498 
z"/>
<path fill="#ECECEC" opacity="1.000000" stroke="none" 
	d="
M99.936493,279.946411 
	C87.133545,290.045410 72.917099,290.744537 61.118267,282.070892 
	C49.153542,273.275360 44.643829,257.098358 50.151554,242.731918 
	C55.153721,229.684204 68.191994,221.380722 82.015060,222.771255 
	C94.154709,223.992462 102.915527,230.506561 107.623260,241.571198 
	C112.824898,253.796646 111.336067,265.632660 103.213875,276.386017 
	C102.316177,277.574524 101.216583,278.610596 99.936493,279.946411 
M105.955101,262.198975 
	C106.189468,260.889099 106.477379,259.586212 106.650185,258.268280 
	C109.231194,238.582794 90.523979,222.146408 71.741745,227.586304 
	C58.841133,231.322693 50.668079,243.755997 51.803806,257.917084 
	C52.893513,271.504425 62.877583,282.286530 75.873817,283.911041 
	C89.492142,285.613312 101.041374,277.539124 105.955101,262.198975 
z"/>
<path fill="#ECECEC" opacity="1.000000" stroke="none" 
	d="
M402.212158,357.777588 
	C413.454285,370.109070 415.431396,386.428345 407.489563,399.422882 
	C400.620270,410.662506 387.867584,416.550781 375.600739,414.146851 
	C361.858307,411.453735 352.248108,401.287567 349.971558,387.034973 
	C346.988495,368.358856 359.526672,351.303558 378.192413,349.237061 
	C387.230499,348.236481 395.197510,351.422241 402.212158,357.777588 
M360.779205,401.688416 
	C369.137817,410.218719 379.023438,413.203217 390.337982,408.909027 
	C401.565552,404.647827 407.277161,395.857483 408.390717,384.125000 
	C409.544891,371.964752 402.477234,360.026428 391.711609,355.333984 
	C381.128418,350.721039 369.015839,353.299194 361.077576,361.854340 
	C350.968475,372.748993 350.659790,388.161407 360.779205,401.688416 
z"/>
<path fill="#ECECEC" opacity="1.000000" stroke="none" 
	d="
M103.110855,375.197693 
	C106.185089,362.562012 113.224968,353.915283 125.576286,350.385101 
	C140.756638,346.046387 156.762436,354.082855 162.576172,368.831787 
	C170.743408,389.551331 158.257889,411.744751 137.276199,414.548309 
	C123.694481,416.363098 108.088593,406.896393 104.316177,392.765656 
	C102.863190,387.323029 103.416153,381.344910 103.110855,375.197693 
M108.883118,369.555267 
	C108.356895,370.952423 107.731407,372.321014 107.319489,373.751099 
	C102.091850,391.900452 115.097038,412.220703 136.030029,410.683685 
	C149.707916,409.679413 159.926697,398.600861 161.130356,385.087860 
	C162.401337,370.819336 154.450058,358.187012 141.743988,354.288391 
	C128.820740,350.323090 116.550034,355.800476 108.883118,369.555267 
z"/>
<path fill="#EEEEEE" opacity="1.000000" stroke="none" 
	d="
M409.544373,147.476227 
	C400.325012,162.599319 385.923065,167.949570 370.642883,162.158264 
	C356.971069,156.976547 348.323914,140.946533 351.145752,126.014603 
	C354.234009,109.672836 367.122345,98.576080 382.669678,98.872711 
	C404.210938,99.283707 418.634003,121.420937 411.410950,143.010635 
	C410.938324,144.423309 410.309357,145.783676 409.544373,147.476227 
M392.544342,158.291946 
	C398.780396,155.650177 403.455017,151.272186 406.350067,145.198196 
	C411.597382,134.189117 410.893738,123.420731 403.534302,113.678711 
	C396.855560,104.837730 387.558990,101.165558 376.638763,103.465736 
	C360.506226,106.863838 351.251343,123.240372 355.507629,139.563171 
	C359.352722,154.308823 375.296844,164.889526 392.544342,158.291946 
z"/>
<path fill="#EEEEEE" opacity="1.000000" stroke="none" 
	d="
M124.692902,163.303391 
	C106.874886,158.544022 97.407646,141.203415 102.060234,122.435822 
	C106.085846,106.197266 122.760391,95.886673 138.744781,99.752144 
	C156.113205,103.952316 166.641953,121.148155 162.621597,138.748398 
	C158.463943,156.949692 142.866440,167.200592 124.692902,163.303391 
M120.801453,157.950424 
	C121.891243,158.349289 122.965927,158.796997 124.073158,159.139465 
	C135.392410,162.640488 147.210297,158.655060 154.117828,149.024918 
	C161.606323,138.584824 161.544052,124.375381 153.964401,114.022697 
	C147.009750,104.523674 134.961823,100.372246 123.828850,104.173233 
	C112.502243,108.040337 106.141541,116.379494 104.851860,128.156693 
	C103.425636,141.180817 108.589592,151.137741 120.801453,157.950424 
z"/>
<path fill="#E5E5E5" opacity="1.000000" stroke="none" 
	d="
M290.499023,189.041702 
	C298.819702,180.359863 306.791321,171.865555 314.758057,163.366699 
	C315.555237,162.516281 316.181274,161.389282 317.143463,160.841797 
	C318.137970,160.275909 319.445740,160.260513 320.616455,160.004303 
	C320.590790,161.207870 320.900116,162.559464 320.450958,163.575882 
	C319.940002,164.732132 318.753693,165.590958 317.857208,166.575638 
	C311.577240,173.473541 305.296844,180.371033 299.015015,187.267227 
	C298.229950,188.129074 297.480011,189.029053 296.638031,189.831955 
	C292.763672,193.526535 288.416077,196.691391 282.842743,194.613556 
	C277.513000,192.626556 275.786652,187.606812 275.660248,182.440292 
	C275.358856,170.120346 275.413239,157.789917 275.503479,145.465057 
	C275.511932,144.312241 276.796326,143.168762 277.488281,142.020950 
	C278.283997,143.236786 279.749908,144.441406 279.770477,145.670227 
	C279.951904,156.496048 279.839905,167.326401 279.905701,178.154861 
	C279.919769,180.465805 279.987671,182.859039 280.578949,185.067581 
	C282.052612,190.571762 284.755280,191.646057 290.499023,189.041702 
z"/>
<path fill="#ECECEC" opacity="1.000000" stroke="none" 
	d="
M236.754181,326.580505 
	C237.270462,334.567444 237.750717,342.180573 237.968307,349.801147 
	C238.144028,355.955383 238.125046,362.122986 237.903183,368.274261 
	C237.856857,369.558838 236.542633,370.797638 235.812683,372.057556 
	C235.016785,370.816376 233.551895,369.586517 233.530670,368.332214 
	C233.358887,358.181030 233.555817,348.024078 233.434128,337.871338 
	C233.371780,332.670288 234.620087,326.171967 228.460251,323.920563 
	C222.983871,321.918976 219.598099,327.094208 216.188019,330.612213 
	C209.700607,337.304871 203.362762,344.144165 196.788162,350.748718 
	C195.815536,351.725800 193.889191,351.753418 192.404114,352.220306 
	C192.809326,350.798706 192.790497,348.983978 193.686569,348.017456 
	C201.154312,339.962555 208.721817,331.996521 216.407883,324.149292 
	C219.761185,320.725677 224.048203,317.779572 228.801468,319.314728 
	C231.829041,320.292480 234.031967,323.823639 236.754181,326.580505 
z"/>
<path fill="#E9E9E9" opacity="1.000000" stroke="none" 
	d="
M237.662460,187.359238 
	C233.307541,196.048401 226.326981,198.090546 219.404938,191.763321 
	C210.335892,183.473587 202.137222,174.226410 193.690384,165.272003 
	C193.075287,164.619934 193.483978,163.002106 193.416687,161.833282 
	C194.670883,162.184097 196.323975,162.142014 197.116913,162.947113 
	C204.241257,170.180786 211.177490,177.599167 218.249146,184.885498 
	C221.348831,188.079285 224.652557,192.223511 229.582504,190.248062 
	C234.516541,188.270996 234.165817,183.031281 234.175934,178.510498 
	C234.199356,168.022781 234.074448,157.533203 234.263763,147.048965 
	C234.293564,145.398987 235.651672,143.772995 236.395599,142.135895 
	C237.230042,143.806076 238.801147,145.484558 238.782425,147.145111 
	C238.632629,160.430847 238.182129,173.713211 237.662460,187.359238 
z"/>
<path fill="#EEEEEE" opacity="1.000000" stroke="none" 
	d="
M328.795166,302.204773 
	C325.620575,298.774933 322.284637,295.880402 319.849396,292.362427 
	C313.741394,283.538788 317.231018,274.699036 327.821350,273.906891 
	C340.229523,272.978821 352.760529,273.637848 365.236237,273.783112 
	C366.115936,273.793335 366.978943,275.243164 367.849701,276.023560 
	C366.702759,276.695801 365.561798,277.938721 364.407928,277.950775 
	C354.418518,278.055389 344.426666,277.895203 334.435699,277.906708 
	C329.687256,277.912170 323.973297,276.927612 321.868042,282.501862 
	C319.856537,287.827850 324.336700,291.323456 327.672577,294.736237 
	C334.656189,301.880890 341.778351,308.891327 348.684326,316.109344 
	C349.730286,317.202576 349.920807,319.114349 350.507050,320.647491 
	C348.862885,320.141541 346.768250,320.110352 345.650391,319.049683 
	C339.975586,313.665344 334.554077,308.014038 328.795166,302.204773 
z"/>
<path fill="#F3F3F3" opacity="1.000000" stroke="none" 
	d="
M335.543640,201.542908 
	C339.312988,197.746170 342.751404,194.112137 346.412567,190.718414 
	C347.266571,189.926849 348.877075,189.951416 350.139496,189.600464 
	C349.897217,191.011612 350.121643,192.815933 349.325745,193.760803 
	C346.866119,196.680786 344.016937,199.272568 341.320190,201.992950 
	C336.278381,207.078995 331.187164,212.117416 326.215118,217.270813 
	C323.319458,220.272110 320.082642,223.628845 321.832703,228.107239 
	C323.732269,232.968140 328.630371,232.752884 332.950500,232.754211 
	C342.943115,232.757278 352.936829,232.531738 362.927338,232.644913 
	C364.579895,232.663620 366.218384,233.927048 367.863373,234.615265 
	C366.310303,235.388535 364.773010,236.793579 363.201569,236.832901 
	C352.714081,237.095291 342.217560,237.191254 331.727875,237.050903 
	C328.815033,237.011948 325.714264,236.461700 323.051514,235.323212 
	C317.582184,232.984787 315.583771,228.182053 317.803070,222.587814 
	C318.994476,219.584671 320.905426,216.711411 323.056091,214.278458 
	C326.910614,209.918030 331.191345,205.934341 335.543640,201.542908 
z"/>
<path fill="#F3F3F3" opacity="1.000000" stroke="none" 
	d="
M176.533798,232.742340 
	C180.773315,232.412109 184.679916,232.555084 188.310593,231.623123 
	C192.337585,230.589447 193.878006,227.410217 191.976044,223.475891 
	C190.845001,221.136230 189.290314,218.879517 187.487564,217.007858 
	C180.216553,209.458832 172.705917,202.139969 165.471100,194.557343 
	C164.391891,193.426239 164.312927,191.340759 163.771225,189.696793 
	C165.386551,190.336075 167.403946,190.562759 168.552002,191.681549 
	C176.058090,198.996277 183.392502,206.487915 190.739700,213.964294 
	C192.014587,215.261612 193.228317,216.666306 194.223801,218.183167 
	C200.267227,227.391907 196.144699,236.430923 185.173172,236.902100 
	C173.218033,237.415543 161.220413,237.020126 149.244431,236.827362 
	C148.200897,236.810562 147.180573,235.352692 146.149460,234.564209 
	C147.307846,233.885681 148.459946,232.632812 149.625626,232.620071 
	C158.441986,232.523636 167.261002,232.670532 176.533798,232.742340 
z"/>
<path fill="#EEEEEE" opacity="1.000000" stroke="none" 
	d="
M169.257080,312.261353 
	C175.369965,306.100342 181.236725,300.193695 187.094147,294.277740 
	C188.030060,293.332458 189.312958,292.497559 189.761719,291.348511 
	C190.920044,288.382660 193.278107,284.441833 192.222504,282.430664 
	C190.982986,280.069092 186.694733,278.222534 183.645508,278.091675 
	C172.845093,277.628174 162.008026,278.082245 151.188004,277.943146 
	C149.587097,277.922546 148.003159,276.580109 146.411362,275.849243 
	C148.011230,275.112122 149.592865,273.784515 151.213943,273.734406 
	C161.197189,273.426056 171.189316,273.404938 181.178528,273.291870 
	C182.010696,273.282471 182.850113,273.231384 183.674362,273.315399 
	C188.950638,273.853088 194.253906,274.822266 196.495972,280.368591 
	C198.755249,285.957581 196.368301,290.911774 192.535248,294.928436 
	C184.490295,303.358734 176.239929,311.596161 167.923096,319.759094 
	C167.082458,320.584198 165.211884,320.359955 163.819290,320.622711 
	C164.143433,319.339539 164.152054,317.833954 164.863922,316.824097 
	C165.999252,315.213562 167.602493,313.932800 169.257080,312.261353 
z"/>
<path fill="#F3F3F3" opacity="1.000000" stroke="none" 
	d="
M276.875427,364.883972 
	C276.875458,354.911896 276.870453,345.426910 276.880676,335.941895 
	C276.882294,334.445343 276.836243,332.934937 277.012756,331.454865 
	C277.627441,326.300293 279.129974,321.423370 284.494446,319.479553 
	C289.489227,317.669708 293.760773,320.198151 297.042999,323.634277 
	C305.315308,332.294525 313.328857,341.205353 321.282501,350.161041 
	C322.038971,351.012817 321.643860,352.887329 321.783386,354.287018 
	C320.546478,353.845673 318.929077,353.760040 318.131958,352.907471 
	C310.746490,345.008240 303.545074,336.937347 296.195770,329.003754 
	C293.389099,325.973907 290.336731,322.187256 285.711304,324.048950 
	C281.218506,325.857178 281.159698,330.640442 281.118286,334.810577 
	C281.012573,345.459381 281.176941,356.111542 280.989777,366.758118 
	C280.958282,368.551453 279.712006,370.323456 279.027008,372.105286 
	C278.309784,370.359741 277.558075,368.627045 276.899658,366.859558 
	C276.736359,366.421204 276.875366,365.870239 276.875427,364.883972 
z"/>
<path fill="#753794" opacity="1.000000" stroke="none" 
	d="
M348.916687,156.706848 
	C344.909424,159.534256 340.650787,162.053802 335.708954,164.768555 
	C332.658875,164.615311 330.292053,164.266876 327.925201,163.918442 
	C332.081696,159.471924 335.801666,154.217422 342.988800,154.982681 
	C344.909454,155.187195 346.774689,155.912674 348.916687,156.706848 
z"/>
<path fill="#753794" opacity="1.000000" stroke="none" 
	d="
M178.705032,166.041504 
	C174.278259,163.199402 169.851471,160.357300 165.140747,157.279968 
	C169.390900,153.545670 173.848816,154.448654 177.986099,157.614349 
	C180.461212,159.508194 182.554337,161.901215 184.708649,164.699371 
	C182.633774,165.566422 180.669403,165.803955 178.705032,166.041504 
z"/>
<path fill="#B61F87" opacity="1.000000" stroke="none" 
	d="
M327.621460,164.060089 
	C330.292053,164.266876 332.658875,164.615311 335.424561,164.954407 
	C332.817139,168.213242 329.810883,171.481400 326.130005,174.844543 
	C323.308685,174.293213 321.161987,173.646912 319.015320,173.000610 
	C321.782806,170.067642 324.550262,167.134689 327.621460,164.060089 
z"/>
<path fill="#753794" opacity="1.000000" stroke="none" 
	d="
M338.890503,348.029236 
	C342.694305,349.350250 346.498138,350.671295 350.722412,352.067261 
	C344.052124,358.059235 338.323547,357.106842 330.472656,348.339478 
	C333.477570,348.025024 336.184021,348.027130 338.890503,348.029236 
z"/>
<path fill="#DB227A" opacity="1.000000" stroke="none" 
	d="
M322.223175,331.042664 
	C325.062317,333.819489 327.901489,336.596313 330.620972,339.952759 
	C328.320679,341.020386 326.140045,341.508362 323.959442,341.996307 
	C320.775146,338.852356 317.590820,335.708435 314.670654,332.277893 
	C317.364227,331.675079 319.793701,331.358887 322.223175,331.042664 
z"/>
<path fill="#753794" opacity="1.000000" stroke="none" 
	d="
M163.056885,352.296326 
	C166.613266,350.706268 170.345779,349.431580 174.824677,348.052490 
	C177.501740,348.344788 179.432404,348.741394 181.363083,349.138031 
	C174.837585,356.621948 170.308563,357.489716 163.056885,352.296326 
z"/>
<path fill="#F13C4A" opacity="1.000000" stroke="none" 
	d="
M195.983582,325.977661 
	C198.067108,323.725433 200.150620,321.473206 202.992584,319.109528 
	C206.456314,319.005798 209.161575,319.013519 211.866852,319.021240 
	C209.085571,321.854156 206.304291,324.687073 202.952393,327.422668 
	C200.249039,326.876099 198.116302,326.426880 195.983582,325.977661 
z"/>
<path fill="#ED6E2D" opacity="1.000000" stroke="none" 
	d="
M304.181824,197.090683 
	C299.770905,203.681168 294.020966,205.009979 284.247192,201.383698 
	C289.036285,201.394760 293.333893,199.825851 297.472595,195.961548 
	C300.194885,196.288696 302.188354,196.689697 304.181824,197.090683 
z"/>
<path fill="#ED6E2D" opacity="1.000000" stroke="none" 
	d="
M229.090149,201.102264 
	C222.409393,205.061401 215.944733,204.279663 210.248901,198.315338 
	C212.306351,197.210388 214.180099,196.570175 216.053848,195.929947 
	C219.690414,199.091614 223.593948,201.588486 229.090149,201.102264 
z"/>
<path fill="#EF1C79" opacity="1.000000" stroke="none" 
	d="
M318.691772,173.101868 
	C321.161987,173.646912 323.308685,174.293213 325.838440,174.988556 
	C324.010468,177.573990 321.799438,180.110397 319.034912,182.523834 
	C316.212799,181.932846 313.944153,181.464844 311.675537,180.996841 
	C313.906433,178.398926 316.137329,175.801025 318.691772,173.101868 
z"/>
<path fill="#EA5723" opacity="1.000000" stroke="none" 
	d="
M302.082275,311.828094 
	C305.413574,314.641357 308.744873,317.454651 311.806152,320.590271 
	C308.923676,320.979309 306.311218,321.046021 303.698792,321.112701 
	C301.424835,319.014099 299.150879,316.915497 297.075012,314.449829 
	C298.876160,313.331207 300.479218,312.579651 302.082275,311.828094 
z"/>
<path fill="#DB227A" opacity="1.000000" stroke="none" 
	d="
M183.517883,338.855255 
	C185.835007,336.384735 188.152130,333.914215 191.014008,331.543518 
	C193.667404,332.082550 195.776077,332.521729 197.884735,332.960907 
	C195.936005,334.942719 193.987259,336.924530 191.263763,339.005402 
	C188.165298,339.021362 185.841599,338.938324 183.517883,338.855255 
z"/>
<path fill="#EA5723" opacity="1.000000" stroke="none" 
	d="
M304.523193,197.059906 
	C302.188354,196.689697 300.194885,196.288696 297.755768,195.807190 
	C298.957489,193.902863 300.604858,192.079086 303.020325,190.130066 
	C306.632507,190.051849 309.476562,190.098862 312.320587,190.145874 
	C309.835236,192.440292 307.349884,194.734711 304.523193,197.059906 
z"/>
<path fill="#EA5723" opacity="1.000000" stroke="none" 
	d="
M215.926971,195.625916 
	C214.180099,196.570175 212.306351,197.210388 210.075256,198.015076 
	C207.240799,195.997452 204.763672,193.815369 202.580688,191.330658 
	C205.299789,190.622406 207.724762,190.216797 210.149719,189.811172 
	C212.033173,191.648071 213.916626,193.484970 215.926971,195.625916 
z"/>
<path fill="#ED6E2D" opacity="1.000000" stroke="none" 
	d="
M209.790894,312.908691 
	C215.363266,307.026215 221.764832,307.632843 228.732269,310.766052 
	C225.310745,311.986145 221.615189,312.963531 217.143402,313.988617 
	C214.175095,313.660431 211.982986,313.284576 209.790894,312.908691 
z"/>
<path fill="#ED2861" opacity="1.000000" stroke="none" 
	d="
M197.118652,185.961502 
	C195.115387,183.851990 193.112122,181.742477 191.398743,179.319519 
	C193.937073,178.625961 196.185547,178.245850 198.434006,177.865723 
	C200.619629,180.037109 202.805267,182.208481 204.710724,184.691910 
	C201.993240,185.323135 199.555939,185.642319 197.118652,185.961502 
z"/>
<path fill="#DB227A" opacity="1.000000" stroke="none" 
	d="
M198.250549,177.570435 
	C196.185547,178.245850 193.937073,178.625961 191.260529,179.009796 
	C188.741043,176.862473 186.649643,174.711456 184.835938,172.277435 
	C187.132660,171.522369 189.151672,171.050293 191.170685,170.578217 
	C193.469482,172.810532 195.768280,175.042831 198.250549,177.570435 
z"/>
<path fill="#EA5723" opacity="1.000000" stroke="none" 
	d="
M209.479492,313.006927 
	C211.982986,313.284576 214.175095,313.660431 216.789001,314.063660 
	C215.628067,315.631592 214.045303,317.172180 212.164703,318.867004 
	C209.161575,319.013519 206.456314,319.005798 203.292801,318.981598 
	C204.945724,317.011810 207.056900,315.058502 209.479492,313.006927 
z"/>
<path fill="#F13C4A" opacity="1.000000" stroke="none" 
	d="
M303.850372,321.409790 
	C306.311218,321.046021 308.923676,320.979309 312.028900,320.859131 
	C314.064301,322.288635 315.606873,323.771606 316.848358,325.633057 
	C314.213531,326.390594 311.879791,326.769623 309.546082,327.148651 
	C307.698029,325.334717 305.850006,323.520782 303.850372,321.409790 
z"/>
<path fill="#F13C4A" opacity="1.000000" stroke="none" 
	d="
M197.241882,186.258347 
	C199.555939,185.642319 201.993240,185.323135 204.861801,184.998993 
	C206.821793,186.403366 208.350510,187.812714 210.014465,189.516617 
	C207.724762,190.216797 205.299789,190.622406 202.439209,191.032242 
	C200.457428,189.542709 198.911270,188.048950 197.241882,186.258347 
z"/>
<path fill="#ED6E2D" opacity="1.000000" stroke="none" 
	d="
M301.876465,311.528748 
	C300.479218,312.579651 298.876160,313.331207 296.879761,314.170898 
	C292.960388,313.256409 289.434387,312.253845 285.532074,311.149353 
	C290.691925,308.277557 296.206482,307.471069 301.876465,311.528748 
z"/>
<path fill="#ED2861" opacity="1.000000" stroke="none" 
	d="
M198.185699,332.825623 
	C195.776077,332.521729 193.667404,332.082550 191.306656,331.398224 
	C192.504135,329.526917 193.953690,327.900787 195.693420,326.126160 
	C198.116302,326.426880 200.249039,326.876099 202.661697,327.569244 
	C201.456635,329.438904 199.971634,331.064636 198.185699,332.825623 
z"/>
<path fill="#B61F87" opacity="1.000000" stroke="none" 
	d="
M191.012665,170.303802 
	C189.151672,171.050293 187.132660,171.522369 184.699646,171.991211 
	C182.528000,170.211792 180.770355,168.435593 178.858856,166.350449 
	C180.669403,165.803955 182.633774,165.566422 184.847168,164.992432 
	C187.015671,166.447128 188.935165,168.238266 191.012665,170.303802 
z"/>
<path fill="#ED2861" opacity="1.000000" stroke="none" 
	d="
M309.701752,327.449402 
	C311.879791,326.769623 314.213531,326.390594 316.983368,325.938354 
	C318.929443,327.385712 320.439423,328.906250 322.086273,330.734741 
	C319.793701,331.358887 317.364227,331.675079 314.525665,331.983948 
	C312.696869,330.567810 311.277130,329.158966 309.701752,327.449402 
z"/>
<path fill="#B61F87" opacity="1.000000" stroke="none" 
	d="
M183.253967,339.005920 
	C185.841599,338.938324 188.165298,339.021362 190.986404,339.158569 
	C189.579727,341.171082 187.675674,343.129486 185.271545,344.917786 
	C183.087570,344.132294 181.403656,343.516968 179.719757,342.901611 
	C180.809860,341.653290 181.899948,340.404938 183.253967,339.005920 
z"/>
<path fill="#ED2861" opacity="1.000000" stroke="none" 
	d="
M311.401123,181.138199 
	C313.944153,181.464844 316.212799,181.932846 318.738190,182.666794 
	C318.248871,183.888931 317.502777,184.845108 316.010742,185.914062 
	C312.424347,185.984421 309.583893,185.941986 306.743469,185.899567 
	C308.204559,184.359558 309.665619,182.819550 311.401123,181.138199 
z"/>
<path fill="#F13C4A" opacity="1.000000" stroke="none" 
	d="
M306.460571,186.036743 
	C309.583893,185.941986 312.424347,185.984421 315.737427,186.049347 
	C315.103363,187.339111 313.996643,188.606369 312.605225,190.009766 
	C309.476562,190.098862 306.632507,190.051849 303.316223,189.989899 
	C303.955200,188.707947 305.066437,187.440948 306.460571,186.036743 
z"/>
<path fill="#A6217B" opacity="1.000000" stroke="none" 
	d="
M338.753204,347.741302 
	C336.184021,348.027130 333.477570,348.025024 330.314026,348.040070 
	C328.949860,347.245789 328.042725,346.434387 327.368286,345.184753 
	C329.723999,344.200012 331.846954,343.653503 333.969940,343.106964 
	C335.518585,344.555756 337.067261,346.004578 338.753204,347.741302 
z"/>
<path fill="#A6217B" opacity="1.000000" stroke="none" 
	d="
M179.433960,343.040710 
	C181.403656,343.516968 183.087570,344.132294 184.971115,345.079407 
	C184.075104,346.560150 182.979446,347.709106 181.623444,348.998047 
	C179.432404,348.741394 177.501740,348.344788 175.141968,347.917786 
	C176.191299,346.318237 177.669739,344.749023 179.433960,343.040710 
z"/>
<path fill="#B61F87" opacity="1.000000" stroke="none" 
	d="
M333.854858,342.814484 
	C331.846954,343.653503 329.723999,344.200012 327.249390,344.900757 
	C325.991547,344.229156 325.085358,343.403351 324.069305,342.286926 
	C326.140045,341.508362 328.320679,341.020386 330.752594,340.258789 
	C331.915894,340.830750 332.827850,341.676361 333.854858,342.814484 
z"/>
<path fill="#010202" opacity="1.000000" stroke="none" 
	d="
M223.002472,245.841309 
	C226.882843,229.330902 240.939056,217.965195 257.281158,218.123917 
	C273.398590,218.280426 287.332184,229.804077 290.896667,246.806046 
	C290.829895,248.966156 290.867767,250.297134 290.809631,251.623917 
	C290.137543,266.959717 278.710358,280.843292 264.258789,283.902130 
	C249.109894,287.108551 233.809586,280.241302 227.359421,265.998047 
	C224.587372,259.876770 224.376801,252.595535 223.002472,245.841309 
z"/>
<path fill="#2EAADF" opacity="1.000000" stroke="none" 
	d="
M222.789886,246.186859 
	C224.376801,252.595535 224.587372,259.876770 227.359421,265.998047 
	C233.809586,280.241302 249.109894,287.108551 264.258789,283.902130 
	C278.710358,280.843292 290.137543,266.959717 290.809631,251.623917 
	C290.867767,250.297134 290.829895,248.966156 290.948822,247.177170 
	C296.515167,264.042755 285.647186,284.711487 267.887848,290.787933 
	C250.436295,296.759094 230.810059,287.213287 224.107117,269.485199 
	C221.273956,261.992004 220.619171,254.347824 222.789886,246.186859 
z"/>
<path fill="#0E0C10" opacity="1.000000" stroke="none" 
	d="
M437.608765,283.967529 
	C425.057556,284.494354 415.108734,278.616730 410.176666,268.056946 
	C405.147003,257.288269 407.054169,244.121552 414.901093,235.440353 
	C422.204651,227.360275 433.846008,224.423798 444.088470,228.077972 
	C455.438385,232.127258 463.453674,244.516220 462.583374,256.664856 
	C461.542206,271.197754 452.545380,281.196320 437.608765,283.967529 
M425.909729,232.120331 
	C424.187683,233.121292 422.357605,233.975082 420.761230,235.147202 
	C410.818665,242.447250 408.108154,257.120209 414.555298,268.355774 
	C420.598907,278.888092 433.450531,283.178314 444.361115,278.305695 
	C456.267731,272.988281 462.033356,258.750702 457.280640,246.402328 
	C452.219727,233.253159 440.279999,227.592896 425.909729,232.120331 
z"/>
<path fill="#0D1214" opacity="1.000000" stroke="none" 
	d="
M248.003540,108.269257 
	C235.804611,103.520569 229.662796,94.520210 229.118668,82.183487 
	C228.593811,70.283455 233.599411,60.648212 244.449829,55.155579 
	C255.003738,49.813049 265.494629,50.838028 274.933350,58.135258 
	C285.525299,66.324059 288.686432,81.937012 282.581299,94.263504 
	C276.332489,106.880142 263.190369,112.309906 248.003540,108.269257 
M242.464294,101.153664 
	C253.192795,108.255005 265.499451,107.657585 274.083801,99.618706 
	C282.808807,91.448090 284.621643,78.032745 278.403931,67.648918 
	C272.443329,57.694492 260.597076,53.343861 249.412018,57.001404 
	C231.003220,63.021122 226.903244,86.821976 242.464294,101.153664 
z"/>
<path fill="#150C10" opacity="1.000000" stroke="none" 
	d="
M236.857117,453.129181 
	C221.771835,436.356934 229.680252,410.681488 248.975677,405.018982 
	C262.226379,401.130371 276.489502,407.175964 282.696960,419.466980 
	C288.895386,431.740082 285.504547,447.561066 274.862213,456.022308 
	C264.323486,464.401184 248.627121,463.704987 238.214325,454.395874 
	C237.842545,454.063538 237.478531,453.722504 236.857117,453.129181 
M271.823395,453.472870 
	C282.207581,444.804199 284.998077,432.184998 279.053741,420.775726 
	C273.725800,410.549530 261.773987,405.310028 250.604309,408.582916 
	C240.703522,411.484009 234.784760,418.352997 233.088852,428.388397 
	C231.330475,438.793457 234.658875,447.714355 243.492340,453.692139 
	C252.460922,459.761383 261.931946,459.599976 271.823395,453.472870 
z"/>
<path fill="#130E0C" opacity="1.000000" stroke="none" 
	d="
M105.869278,262.599976 
	C101.041374,277.539124 89.492142,285.613312 75.873817,283.911041 
	C62.877583,282.286530 52.893513,271.504425 51.803806,257.917084 
	C50.668079,243.755997 58.841133,231.322693 71.741745,227.586304 
	C90.523979,222.146408 109.231194,238.582794 106.650185,258.268280 
	C106.477379,259.586212 106.189468,260.889099 105.869278,262.599976 
M74.176186,279.878052 
	C76.823685,279.972107 79.497871,280.352875 82.113930,280.109283 
	C92.032959,279.185699 100.462029,271.062012 102.716843,260.509521 
	C104.989845,249.871918 99.902275,238.439041 90.575500,233.225174 
	C81.462883,228.131042 70.635788,229.534637 62.952950,236.806122 
	C48.841984,250.161545 54.379295,272.984924 74.176186,279.878052 
z"/>
<path fill="#110C10" opacity="1.000000" stroke="none" 
	d="
M360.534851,401.420776 
	C350.659790,388.161407 350.968475,372.748993 361.077576,361.854340 
	C369.015839,353.299194 381.128418,350.721039 391.711609,355.333984 
	C402.477234,360.026428 409.544891,371.964752 408.390717,384.125000 
	C407.277161,395.857483 401.565552,404.647827 390.337982,408.909027 
	C379.023438,413.203217 369.137817,410.218719 360.534851,401.420776 
M373.123993,358.258057 
	C355.946747,365.568909 351.392151,386.811249 364.199768,399.879791 
	C372.372467,408.219025 384.618469,409.344238 394.284912,402.644104 
	C404.189972,395.778564 407.691284,382.342682 402.516846,371.055359 
	C397.432343,359.964203 385.871002,354.699554 373.123993,358.258057 
z"/>
<path fill="#130E0C" opacity="1.000000" stroke="none" 
	d="
M109.014984,369.197174 
	C116.550034,355.800476 128.820740,350.323090 141.743988,354.288391 
	C154.450058,358.187012 162.401337,370.819336 161.130356,385.087860 
	C159.926697,398.600861 149.707916,409.679413 136.030029,410.683685 
	C115.097038,412.220703 102.091850,391.900452 107.319489,373.751099 
	C107.731407,372.321014 108.356895,370.952423 109.014984,369.197174 
M130.021896,357.105347 
	C128.733292,357.436310 127.411308,357.672516 126.161308,358.113037 
	C115.017700,362.039948 108.185875,373.950073 110.074478,386.093353 
	C111.835732,397.417786 121.414650,406.378998 132.387955,406.967926 
	C146.402771,407.720154 158.022034,396.045074 157.823715,381.409973 
	C157.624420,366.702850 145.868591,356.052124 130.021896,357.105347 
z"/>
<path fill="#0E0C10" opacity="1.000000" stroke="none" 
	d="
M392.200867,158.475998 
	C375.296844,164.889526 359.352722,154.308823 355.507629,139.563171 
	C351.251343,123.240372 360.506226,106.863838 376.638763,103.465736 
	C387.558990,101.165558 396.855560,104.837730 403.534302,113.678711 
	C410.893738,123.420731 411.597382,134.189117 406.350067,145.198196 
	C403.455017,151.272186 398.780396,155.650177 392.200867,158.475998 
M405.995636,130.630569 
	C405.369812,121.318642 401.171265,114.009659 393.017853,109.522789 
	C378.451111,101.506615 360.928680,110.839386 358.283752,128.133301 
	C356.915710,137.077972 360.004913,144.959976 366.877472,150.915085 
	C374.010803,157.096146 382.299042,158.603806 391.032562,154.823013 
	C401.103546,150.463226 405.543640,142.190735 405.995636,130.630569 
z"/>
<path fill="#13110D" opacity="1.000000" stroke="none" 
	d="
M120.449982,157.797363 
	C108.589592,151.137741 103.425636,141.180817 104.851860,128.156693 
	C106.141541,116.379494 112.502243,108.040337 123.828850,104.173233 
	C134.961823,100.372246 147.009750,104.523674 153.964401,114.022697 
	C161.544052,124.375381 161.606323,138.584824 154.117828,149.024918 
	C147.210297,158.655060 135.392410,162.640488 124.073158,159.139465 
	C122.965927,158.796997 121.891243,158.349289 120.449982,157.797363 
M111.734947,118.409752 
	C111.025169,119.908058 110.188705,121.360329 109.624992,122.911705 
	C103.203423,140.584183 117.680099,159.405563 135.411224,156.473557 
	C146.452148,154.647842 154.879639,145.624161 155.973373,134.456757 
	C157.109253,122.859299 150.744476,112.099792 140.383148,108.101822 
	C129.961090,104.080414 119.468948,107.663307 111.734947,118.409752 
z"/>
<path fill="#73247F" opacity="1.000000" stroke="none" 
	d="
M426.283142,232.002350 
	C440.279999,227.592896 452.219727,233.253159 457.280640,246.402328 
	C462.033356,258.750702 456.267731,272.988281 444.361115,278.305695 
	C433.450531,283.178314 420.598907,278.888092 414.555298,268.355774 
	C408.108154,257.120209 410.818665,242.447250 420.761230,235.147202 
	C422.357605,233.975082 424.187683,233.121292 426.283142,232.002350 
z"/>
<path fill="#29A7DC" opacity="1.000000" stroke="none" 
	d="
M242.172745,100.936165 
	C226.903244,86.821976 231.003220,63.021122 249.412018,57.001404 
	C260.597076,53.343861 272.443329,57.694492 278.403931,67.648918 
	C284.621643,78.032745 282.808807,91.448090 274.083801,99.618706 
	C265.499451,107.657585 253.192795,108.255005 242.172745,100.936165 
z"/>
<path fill="#EF1C79" opacity="1.000000" stroke="none" 
	d="
M271.519287,453.680725 
	C261.931946,459.599976 252.460922,459.761383 243.492340,453.692139 
	C234.658875,447.714355 231.330475,438.793457 233.088852,428.388397 
	C234.784760,418.352997 240.703522,411.484009 250.604309,408.582916 
	C261.773987,405.310028 273.725800,410.549530 279.053741,420.775726 
	C284.998077,432.184998 282.207581,444.804199 271.519287,453.680725 
z"/>
<path fill="#F08831" opacity="1.000000" stroke="none" 
	d="
M73.764862,279.776367 
	C54.379295,272.984924 48.841984,250.161545 62.952950,236.806122 
	C70.635788,229.534637 81.462883,228.131042 90.575500,233.225174 
	C99.902275,238.439041 104.989845,249.871918 102.716843,260.509521 
	C100.462029,271.062012 92.032959,279.185699 82.113930,280.109283 
	C79.497871,280.352875 76.823685,279.972107 73.764862,279.776367 
z"/>
<path fill="#A6217B" opacity="1.000000" stroke="none" 
	d="
M373.511780,358.140991 
	C385.871002,354.699554 397.432343,359.964203 402.516846,371.055359 
	C407.691284,382.342682 404.189972,395.778564 394.284912,402.644104 
	C384.618469,409.344238 372.372467,408.219025 364.199768,399.879791 
	C351.392151,386.811249 355.946747,365.568909 373.511780,358.140991 
z"/>
<path fill="#EA5723" opacity="1.000000" stroke="none" 
	d="
M130.454346,357.055328 
	C145.868591,356.052124 157.624420,366.702850 157.823715,381.409973 
	C158.022034,396.045074 146.402771,407.720154 132.387955,406.967926 
	C121.414650,406.378998 111.835732,397.417786 110.074478,386.093353 
	C108.185875,373.950073 115.017700,362.039948 126.161308,358.113037 
	C127.411308,357.672516 128.733292,357.436310 130.454346,357.055328 
z"/>
<path fill="#502581" opacity="1.000000" stroke="none" 
	d="
M405.997009,131.068604 
	C405.543640,142.190735 401.103546,150.463226 391.032562,154.823013 
	C382.299042,158.603806 374.010803,157.096146 366.877472,150.915085 
	C360.004913,144.959976 356.915710,137.077972 358.283752,128.133301 
	C360.928680,110.839386 378.451111,101.506615 393.017853,109.522789 
	C401.171265,114.009659 405.369812,121.318642 405.997009,131.068604 
z"/>
<path fill="#F0A839" opacity="1.000000" stroke="none" 
	d="
M111.914154,118.086037 
	C119.468948,107.663307 129.961090,104.080414 140.383148,108.101822 
	C150.744476,112.099792 157.109253,122.859299 155.973373,134.456757 
	C154.879639,145.624161 146.452148,154.647842 135.411224,156.473557 
	C117.680099,159.405563 103.203423,140.584183 109.624992,122.911705 
	C110.188705,121.360329 111.025169,119.908058 111.914154,118.086037 
z"/>
</svg>