<svg xmlns="http://www.w3.org/2000/svg" width="256" height="256" fill="none"><g clip-path="url(#a)"><path fill="#f9f9f6" d="M0 0h256v256H0z"/><path fill="#0b5e5c" d="M128 67.2c10.604 0 19.2-8.596 19.2-19.2s-8.596-19.2-19.2-19.2-19.2 8.596-19.2 19.2 8.596 19.2 19.2 19.2M197.281 107.2c10.603 0 19.2-8.596 19.2-19.2s-8.597-19.2-19.2-19.2-19.2 8.596-19.2 19.2 8.596 19.2 19.2 19.2M197.281 187.2c10.603 0 19.2-8.596 19.2-19.2s-8.597-19.2-19.2-19.2-19.2 8.596-19.2 19.2 8.596 19.2 19.2 19.2M128 227.2c10.604 0 19.2-8.596 19.2-19.2s-8.596-19.2-19.2-19.2-19.2 8.596-19.2 19.2 8.596 19.2 19.2 19.2M58.72 187.2c10.604 0 19.2-8.596 19.2-19.2s-8.596-19.2-19.2-19.2-19.2 8.596-19.2 19.2 8.596 19.2 19.2 19.2M58.72 107.2c10.604 0 19.2-8.596 19.2-19.2s-8.596-19.2-19.2-19.2-19.2 8.596-19.2 19.2 8.596 19.2 19.2 19.2M128 150.4c12.372 0 22.4-10.029 22.4-22.4s-10.028-22.4-22.4-22.4-22.4 10.029-22.4 22.4 10.029 22.4 22.4 22.4"/><path stroke="#0b5e5c" stroke-opacity=".25" stroke-width="6.4" d="M128 48v80m0 0 69.28-40M128 128l69.28 40M128 128v80m0-80-69.28 40M128 128 58.72 88"/></g><defs><clipPath id="a"><path fill="#fff" d="M0 0h256v256H0z"/></clipPath></defs></svg>
