<?xml version="1.0" encoding="UTF-8" standalone="no"?><svg xmlns="http://www.w3.org/2000/svg" xml:space="preserve" viewBox="0 0 84 34"><path fill="#04558a" d="M3.2 21.7c-.36-.34-.49-11.35-.15-12 .45-.87 5.17-.86 6.94.01a3.7 3.7 0 0 1-.03 6.66c-.55.26-.55.26-.05.82.52.58.68.81 1.39 1.96l.67 1.06a1.13 1.13 0 0 1-1.46 1.64c-.3-.15-.85-.96-1.39-2-.17-.33-.53-.9-.81-1.25a171 171 0 0 1-.84-1.07c-.32-.42-.32-.42-1.29-.43-.97 0-.97 0-1 2.16-.03 2.16-.03 2.16-.36 2.45-.47.42-1.2.42-1.63 0Zm5.1-6.74c.95-.34 1.24-.72 1.28-1.65.08-1.6-.59-2.18-2.7-2.37-1.72-.15-1.68-.2-1.68 2.18 0 2.1 0 2.1 1.32 2.05a7.33 7.33 0 0 0 1.78-.21zm8.5 6.91c-1.34-.3-2.76-1.9-3.05-3.42-.68-3.55 1.28-6.4 4.4-6.4 2.2 0 3.46 1.2 3.91 3.7.33 1.83.3 1.85-3.32 1.85-2.84 0-2.84 0-2.84.28 0 .96.74 1.88 1.75 2.17.65.2 2.46.15 2.71-.06.64-.53 1.6.87 1 1.46-.47.47-3.22.72-4.56.42zm3.24-5.85a3.52 3.52 0 0 0-.37-1.45c-.72-1.1-2.72-.93-3.31.28l-.33.67c-.3.59-.32.58 1.91.58 1.13 0 2.07-.04 2.1-.08zm18.05 5.88c-3.6-.9-5.32-4.85-4-9.17 1.06-3.48 5.88-5.11 9.19-3.11 1.22.74.57 2.28-.71 1.65-3.61-1.75-6.77.15-6.77 4.09 0 4.04 2.79 5.92 6.6 4.45.71-.27.95-.27 1.25.04.56.55.08 1.75-.7 1.75-.14 0-.42.07-.63.17-.43.19-3.6.29-4.23.13zm8.2-.07a.8.8 0 0 1-.33-.37c-.11-.42-.06-13.34.05-13.59.37-.8 1.97-.64 2 .21L48 10.32c0 1.15 0 2.08.03 2.08l.58-.16c1.43-.43 3.44 0 4.3.93.9.97.94 1.17.97 4.62.05 3.95-.02 4.21-.98 4.21-1.08 0-1.1-.06-1.1-3.13 0-4.3-.26-4.87-2.16-4.87-1.8 0-1.65-.33-1.63 3.75.01 3.75 0 3.93-.4 4.15-.3.15-1.03.11-1.33-.07zm13.01.03c-3.75-.83-4.36-7.24-.87-9.3 2.8-1.66 6.17.44 6.17 3.84 0 1.18-.05 1.2-3.45 1.23-2.8.02-2.8.02-2.77.32.1.93.86 1.87 1.72 2.12.6.17 2.45.12 2.82-.08.72-.39 1.45.93.83 1.5-.48.46-3.09.67-4.45.37Zm3.25-6.23c-.35-2.32-3.19-2.44-4.02-.17-.23.64-.23.64 1.93.64s2.16 0 2.1-.47zm6.7 6.25c-1.2-.22-2.5-1.53-2.95-2.96-1.27-4.1 1.86-7.78 5.75-6.77 2.07.54 1.77 2.22-.32 1.81-2.31-.45-3.53.77-3.4 3.38.1 2.2 1.03 2.96 3.47 2.81 1.4-.08 1.74.08 1.74.8 0 .9-2.06 1.35-4.29.93zm5.89-.22c-.34-.34-.34-.34-.34-6.89 0-7.68-.03-7.47 1.15-7.47.93 0 .95.1.95 4.6 0 2.2.04 4 .08 4 .1 0 2.17-2.14 3.1-3.18.84-.95 1.56-1 1.92-.13.2.47.05.79-.7 1.52-2.35 2.36-2.33 2.28-1.18 3.52 1.57 1.7 2.38 2.8 2.38 3.23 0 1.27-1.52 1.63-2.06.49a4.3 4.3 0 0 0-.53-.77c-.2-.24-.51-.64-.69-.89A14.87 14.87 0 0 0 77 17.4c-.06 0-.1.7-.1 2.05 0 2.05 0 2.06-.25 2.3-.39.4-1.07.35-1.51-.09Z"/><path fill="#57b440" d="M21.94 32.7c-.98-.4-.86-1.23.32-2.15 3.26-2.53 5.2-5.17 6.33-8.63 2.23-6.8-.34-14.63-6.07-18.51-1.26-.85-1.55-1.37-1.17-2.1.36-.71 1.07-.64 2.27.22a18.61 18.61 0 0 1 2.16 28.83c-1.93 1.86-3.16 2.62-3.84 2.34zm-2.3-4.14c-.95-.42-.82-1.39.31-2.15 6.55-4.45 6.53-14.9-.03-19.15-1.04-.67-1.22-1.16-.7-1.88.48-.64.92-.6 2.05.14 7.22 4.83 7.58 16.8.66 22.11-1.2.92-1.77 1.15-2.29.93z"/></svg>