<svg xmlns="http://www.w3.org/2000/svg" fill="none" viewBox="0 0 105.8 29.16">
    <style>path { fill: #1d1d1f; } @media (prefers-color-scheme: dark) { path { fill: #ffffff; } }</style>
    <g transform="translate(5 29.16) scale(0.012678 -0.012678)">
        <path d="m0 2070v-230h270 270v-920-920h180 180v920 920h270 270v230 230h-720-720v-230z"/>
        <path d="m1800 2070v-230h-90-90v-920-920h180 180v460 460h270 270v-460-460h180 180v920 920h-90-90v230 230h-450-450v-230zm720-460v-230h-270-270v230 230h270 270v-230z"/>
        <path d="m3240 2070v-230h-90-90v-690-690h90 90v-230-230h540 540v230 230h90 90v460 460h-270-270v-230-230h90 90v-230-230h-360-360v690 690h450 450v230 230h-540-540v-230z"/>
        <path d="m4860 2070v-230h-90-90v-690-690h90 90v-230-230h540 540v230 230h90 90v460 460h-270-270v-230-230h90 90v-230-230h-360-360v690 690h450 450v230 230h-540-540v-230z"/>
        <path d="m6300 1150v-1150h180 180v460 460h270 270v-460-460h180 180v460 460h-90-90v230 230h90 90v230 230h-90-90v230 230h-540-540v-1150zm900 460v-230h-270-270v230 230h270 270v-230z"/>
    </g>
</svg>

