<svg xmlns="http://www.w3.org/2000/svg" viewBox="0 0 128 128"><style>rect { fill: #161616; } path { fill: #fff; } @media (prefers-color-scheme: dark) { rect { fill: #fff; } path { fill: #161616; } }</style><rect fill="#fff" width="128" height="128"/><path d="M107.92 64c0-11.58-9.59-21-21.35-21-4.9 0-10.24 2.54-15.9 7.56-2.68 2.38-5 4.92-6.74 6.96-6.12-6.9-14.32-14.53-22.5-14.53-9.9 0-18.52 6.94-20.77 16.13l.01-.02v.02c-.4 1.57-.6 3.2-.6 4.88 0 11.58 9.44 21 21.2 21 4.91 0 10.4-2.54 16.06-7.56 2.68-2.38 5-4.92 6.74-6.96 6.11 6.9 14.32 14.53 22.5 14.53 9.9 0 18.52-6.94 20.77-16.13.38-1.57.58-3.2.58-4.88Zm-42.35-6.5c2-2.29 3.98-4.3 5.9-6 5.43-4.83 10.51-7.27 15.1-7.27 11.1 0 20.13 8.87 20.13 19.77 0 1.53-.18 3.06-.54 4.54-.06.18-.8 2.23-2.9 4.22-2.74 2.59-6.45 3.9-11.03 3.9A13.9 13.9 0 0 0 100.6 64c0-7.65-6.3-13.87-14.03-13.87-3.01 0-6.7 1.92-10.97 5.71a62.68 62.68 0 0 0-5.92 6.1l-.8.94-4.13-4.47.82-.91zm-7.3 6.7a65.38 65.38 0 0 1-6.67 7.03c-5.03 4.47-8.3 5.4-10.17 5.4A12.74 12.74 0 0 1 28.62 64c0-6.96 5.75-12.59 12.8-12.63.27 0 .57.02.95.1a29.42 29.42 0 0 1 8.85 5.48c1.58 1.46 4.44 4.46 7.05 7.26zm4.16 6.3a67.5 67.5 0 0 1-5.9 6c-5.36 4.76-10.63 7.27-15.25 7.27a19.95 19.95 0 0 1-14.16-5.8 19.55 19.55 0 0 1-5.28-18.51c.06-.18.8-2.23 2.9-4.22 2.74-2.59 6.45-3.9 11.03-3.9A13.9 13.9 0 0 0 27.4 64c0 7.65 6.3 13.87 14.03 13.87 3.01 0 6.7-1.92 10.97-5.71a62.47 62.47 0 0 0 5.92-6.1l.8-.94 4.11 4.45-.8.93zm7.3-6.7a65.38 65.38 0 0 1 6.67-7.03c5.03-4.47 8.3-5.4 10.17-5.4 7.06 0 12.8 5.67 12.8 12.63 0 6.96-5.74 12.59-12.8 12.63a5.3 5.3 0 0 1-.93-.09 29.47 29.47 0 0 1-8.86-5.49 182.65 182.65 0 0 1-7.06-7.26zm37.6 5.1v-.02.02z"/></svg>