<?xml version="1.0" standalone="no"?>
<!DOCTYPE svg PUBLIC "-//W3C//DTD SVG 20010904//EN"
 "http://www.w3.org/TR/2001/REC-SVG-20010904/DTD/svg10.dtd">
<svg version="1.0" xmlns="http://www.w3.org/2000/svg"
 width="512.000000pt" height="512.000000pt" viewBox="0 0 512.000000 512.000000"
 preserveAspectRatio="xMidYMid meet">
<metadata>
Created by potrace 1.14, written by Peter Selinger 2001-2017
</metadata>
<g transform="translate(0.000000,512.000000) scale(0.100000,-0.100000)"
fill="#000000" stroke="none">
<path d="M1230 3643 c-384 -58 -702 -280 -869 -608 -125 -245 -149 -547 -64
-805 148 -444 555 -748 1025 -764 270 -10 505 84 808 324 93 73 384 357 415
404 l15 23 173 -171 c190 -190 250 -243 370 -329 235 -168 428 -246 629 -251
314 -9 615 114 838 343 155 159 257 355 293 568 16 92 15 293 -2 378 -94 459
-457 802 -934 883 -49 8 -280 8 -317 0 -110 -25 -185 -51 -280 -97 -66 -32
-73 -36 -145 -80 -157 -96 -400 -311 -572 -505 l-53 -59 -142 144 c-184 186
-254 248 -378 339 -95 70 -157 110 -169 110 -5 0 -11 4 -13 9 -9 24 -223 110
-346 138 -41 10 -231 14 -282 6z m280 -476 c207 -98 323 -187 558 -424 166
-169 191 -198 180 -212 -83 -103 -293 -315 -398 -400 -275 -221 -447 -273
-675 -204 -288 87 -484 349 -477 638 3 117 20 183 73 286 99 190 299 331 504
354 33 4 61 8 63 10 12 10 101 -14 172 -48z m2358 38 c23 -3 67 -15 97 -25
276 -95 453 -326 460 -603 8 -286 -174 -543 -454 -640 -70 -25 -103 -30 -181
-31 l-95 -1 -110 56 c-60 31 -136 73 -169 95 -32 21 -66 44 -75 49 -29 18
-134 111 -206 182 -132 131 -265 271 -265 280 0 20 250 283 365 383 152 133
336 239 444 256 20 3 37 7 39 8 4 4 102 -2 150 -9z"/>
</g>
</svg>
